<?xml version="1.0" encoding="UTF-8"?>
<svg xmlns="http://www.w3.org/2000/svg" xmlns:xlink="http://www.w3.org/1999/xlink" version="1.2" >
<font id="BetecknaLowerCase">
<font-face  font-family="BetecknaLowerCase" units-per-em="1000" ascent="800" descent="-200" font-style="normal" font-weight="500" font-stretch="normal" cap-height="689" x-height="429" underline-position="-225" underline-thickness="50" />
<missing-glyph  horiz-adv-x="500" d="M50 0 L50 533 L450 533 L450 0 L50 0 Z M100 50 L400 50 L400 483 L100 483 L100 50 Z " />
<glyph glyph-name="space" unicode="&#x20;" horiz-adv-x="351" d="" />
<glyph glyph-name="exclam" unicode="&#x21;" horiz-adv-x="238" d="M74 693 L164 693 L159 252 L68 252 L74 693 Z M54 60 Q54 87 72 102.5 Q90 118 112 118.5 Q134 119 152 104 Q170 89 170 62 Q170 33 152 16.5 Q134 0 112 0 Q90 0 72 16 Q54 32 54 60 Z " />
<glyph glyph-name="quotedbl" unicode="&#x22;" horiz-adv-x="340" d="M248 558 Q245 571 222 627 Q199 683 200 699 Q200 725 217.5 740 Q235 755 256.5 755.5 Q278 756 296 740.5 Q314 725 314 696 Q310 672 301 649 Q292 626 285.5 614.5 Q279 603 265 583 Q251 563 248 558 Z M74 558 Q71 571 48 627 Q25 683 26 699 Q26 725 43.5 740 Q61 755 82.5 755.5 Q104 756 122 740.5 Q140 725 140 696 Q136 672 127 649 Q118 626 111.5 614.5 Q105 603 91 583 Q77 563 74 558 Z " />
<glyph glyph-name="numbersign" unicode="&#x23;" horiz-adv-x="455" d="M105 620 L182 620 L182 480 L272 480 L272 620 L350 620 L350 480 L408 480 L408 389 L350 389 L350 306 L408 306 L408 219 L350 219 L350 70 L272 70 L272 219 L182 219 L182 70 L105 70 L105 219 L47 220 L47 306 L105 306 L105 390 L47 390 L47 481 L105 480 L105 620 Z M182 390 L182 306 L272 306 L272 389 L182 390 Z " />
<glyph glyph-name="dollar" unicode="&#x24;" horiz-adv-x="733" d="M344 28 L340 28 Q305 29 265.5 47.5 Q226 66 206.5 81 Q187 96 170 111 L210 180 Q234 157 250.5 144.5 Q267 132 295.5 120 Q324 108 356 108 Q402 108 421 118 Q443 131 469 173 Q496 217 476 260 Q459 301 409 321 Q342 349 338 350 Q279 370 248 397 Q213 428 199.5 463.5 Q186 499 189 537 Q192 575 211 606 Q230 637 265 658 Q300 679 345 682 L332 750 L407 750 L395 682 Q462 678 509 640 L468 578 Q422 619 352 610 Q320 606 298.5 584 Q277 562 273.5 534.5 Q270 507 292 477 Q316 444 361 429 L434 404 Q462 394 494 370 Q522 347 544.5 313 Q567 279 570 237 Q572 191 551 143 Q509 47 404 31 L412 -30 L337 -30 L344 28 Z " />
<glyph glyph-name="percent" unicode="&#x25;" horiz-adv-x="560" d="M107 473 Q107 446 128 434.5 Q149 423 169.5 434.5 Q190 446 190 474 Q190 494 177 504.5 Q164 515 148.5 515 Q133 515 120 503.5 Q107 492 107 473 Z M40 472 Q40 506 56 530 Q72 554 96.5 563.5 Q121 573 149.5 572 Q178 571 202.5 559 Q227 547 243 523 Q259 499 259 469 Q259 437 243 412 Q227 387 202.5 375.5 Q178 364 149.5 363.5 Q121 363 96.5 374 Q72 385 56 410.5 Q40 436 40 472 Z M371 161 Q371 134 392 123 Q413 112 433.5 123.5 Q454 135 454 162 Q454 188 433.5 198.5 Q413 209 392 198 Q371 187 371 161 Z M304 160 Q304 195 320.5 219 Q337 243 361 252.5 Q385 262 413.5 260.5 Q442 259 466.5 247 Q491 235 507.5 211.5 Q524 188 524 157 Q524 125 507.5 100.5 Q491 76 466.5 64 Q442 52 413.5 51.5 Q385 51 361 62 Q337 73 320.5 98.5 Q304 124 304 160 Z M462 559 L519 500 L86 52 L29 111 L462 559 Z " />
<glyph glyph-name="ampersand" unicode="&#x26;" horiz-adv-x="754" d="M303 410 L515 188 Q553 267 548 346 L631 346 Q628 214 575 125 L693 0 L575 0 L520 57 Q447 -10 327 -22 Q275 -26 222 -8.5 Q169 9 126 51 Q83 93 67 150 Q61 184 61 212.5 Q61 241 71 269 Q81 297 93.5 318.5 Q106 340 124 360.5 Q142 381 157.5 395 Q173 409 189 421 Q168 462 165 500.5 Q162 539 174 568 Q186 597 201 616.5 Q216 636 233 650 Q268 677 323.5 682.5 Q379 688 427 671.5 Q475 655 490 624 L435 572 Q413 604 357.5 607.5 Q302 611 271 578 Q210 505 303 410 Z M236 355 Q189 316 164 267 Q139 218 155 170 Q168 131 204.5 102.5 Q241 74 277.5 63 Q314 52 340 55 Q412 62 465 116 L236 355 Z " />
<glyph glyph-name="quotesingle" unicode="&#x27;" horiz-adv-x="154" d="M74 558 Q20 639 20 699 Q20 725 37.5 740.5 Q55 756 76 757 Q97 758 114.5 743 Q132 728 132 699 Q132 665 113 625 Q94 585 74 558 Z " />
<glyph glyph-name="parenleft" unicode="&#x28;" horiz-adv-x="268" d="M40 148 Q39 159 39 326.5 Q39 494 40 502 Q47 601 98 670.5 Q149 740 229 775 L229 672 Q146 613 134 505 Q133 497 133 328 Q133 159 134 148 Q148 38 228 -24 L228 -136 Q150 -98 99.5 -26 Q49 46 40 148 Z " />
<glyph glyph-name="parenright" unicode="&#x29;" horiz-adv-x="295" d="M242 150 Q232 49 181.5 -23.5 Q131 -96 53 -134 L53 -22 Q133 41 147 150 Q148 161 148 330 Q148 499 147 507 Q136 615 53 675 L53 778 Q133 742 183.5 673 Q234 604 242 505 Q242 497 242 329 Q242 161 242 150 Z " />
<glyph glyph-name="asterisk" unicode="&#x2a;" horiz-adv-x="212" d="M174 678 L146 678 Q134 678 146 666 L178 634 L168 617 L152 605 L111 645 Q111 645 107 647 Q107 647 102 645 L62 605 L44 617 L35 634 L69 666 Q74 670 71.5 674.5 Q69 679 64 678 L37 678 L32 698 L37 716 L72 715 Q75 715 80.5 721.5 Q86 728 86 733 L86 755 L106 759 L126 755 L126 733 Q126 727 132 722 Q138 717 142 717 L174 716 L180 698 L174 678 Z " />
<glyph glyph-name="plus" unicode="&#x2b;" horiz-adv-x="495" d="M431 316 L295 315 L295 160 L205 160 L204 315 L64 314 L64 405 L207 403 L204 549 L294 549 L294 405 L431 406 L431 316 Z " />
<glyph glyph-name="comma" unicode="&#x2c;" horiz-adv-x="154" d="M20 69 Q20 95 37.5 110 Q55 125 76.5 125.5 Q98 126 116 110.5 Q134 95 134 66 Q134 46 125 27.5 Q116 9 108 -2 Q100 -13 81.5 -27 Q63 -41 59 -43 Q55 -45 39 -55 Q44 -49 50 -38.5 Q56 -28 61.5 -15.5 Q67 -3 70 7.5 Q73 18 72 24 Q71 30 64 28 Q47 23 33 36 Q19 49 20 69 Z " />
<glyph glyph-name="hyphen" unicode="&#x2d;" horiz-adv-x="470" d="M438 217 L49 217 L49 307 L438 308 L438 217 Z " />
<glyph glyph-name="period" unicode="&#x2e;" horiz-adv-x="190" d="M15 60 Q15 87 33 102.5 Q51 118 73 118.5 Q95 119 113 104 Q131 89 131 62 Q131 33 113 16.5 Q95 0 73 0 Q51 0 33 16 Q15 32 15 60 Z " />
<glyph glyph-name="slash" unicode="&#x2f;" horiz-adv-x="500" d="M170 0 L63 0 L337 702 L437 704 L170 0 Z " />
<glyph glyph-name="zero" unicode="0" horiz-adv-x="569" d="M123 367 Q123 234 167 171 Q212 107 281.5 101.5 Q351 96 396 155 Q445 220 445 360 Q445 502 388 565 Q356 600 312 610 Q268 620 226 600.5 Q184 581 157 535 Q123 477 123 367 Z M31 361 Q31 504 85 588 Q127 654 194.5 682.5 Q262 711 331.5 696.5 Q401 682 452 629 Q538 540 538 358 Q541 180 473 88 Q427 25 357 5.5 Q287 -14 217 11.5 Q147 37 99 101 Q31 192 31 361 Z " />
<glyph glyph-name="one" unicode="1" horiz-adv-x="392" d="M171 600 L57 600 L56 720 L268 720 L269 605 L270 78 L271 78 L271 0 L174 0 L173 78 L172 78 L171 600 Z " />
<glyph glyph-name="two" unicode="2" horiz-adv-x="540" d="M36 0 L340 396 Q392 476 382 538 Q372 600 306 615 Q271 623 227.5 605 Q184 587 170 546 L92 596 Q145 705 284 702 Q385 700 435 646.5 Q485 593 474 505 Q463 417 392 319 L220 90 L494 91 L494 0 L136 -1 L136 0 L36 0 Z " />
<glyph glyph-name="three" unicode="3" horiz-adv-x="510" d="M284 414 Q328 421 350.5 472 Q373 523 351 568 Q331 608 277 620 Q240 627 197.5 617 Q155 607 135 572 L59 620 Q121 705 263 702 Q328 701 375.5 670 Q423 639 442.5 593.5 Q462 548 451.5 493 Q441 438 398 391 Q440 347 461 298.5 Q482 250 481 206.5 Q480 163 462 123 Q444 83 412 54.5 Q380 26 336 9 Q292 -8 243 -8 Q134 -12 29 44 L87 112 Q123 95 153 87 Q183 79 203 79 Q223 79 247 80 Q290 80 322.5 101.5 Q355 123 367.5 156 Q380 189 379 224.5 Q378 260 355 290.5 Q332 321 293 334 L202 334 L199 412 L284 414 Z " />
<glyph glyph-name="four" unicode="4" horiz-adv-x="477" d="M319 243 L319 511 L140 243 L319 243 Z M414 722 L414 244 L460 244 L459 159 L417 159 L417 0 L317 0 L317 162 L124 162 L17 162 L17 205 L372 722 L414 722 Z " />
<glyph glyph-name="five" unicode="5" horiz-adv-x="509" d="M111 700 L403 700 L405 620 L204 620 L201 422 Q274 424 315.5 416 Q357 408 399 379 Q434 356 454 318.5 Q474 281 478 239.5 Q482 198 469 156 Q456 114 429 80 Q402 46 355 25 Q308 4 249 4 Q192 1 133 22 Q74 43 30 73 L78 135 Q129 105 161.5 93.5 Q194 82 245 82 Q293 83 327.5 110 Q362 137 374.5 173.5 Q387 210 379.5 248.5 Q372 287 344 310 Q295 348 227 352 L110 348 L111 700 Z " />
<glyph glyph-name="six" unicode="6" horiz-adv-x="590" d="M48 256 Q44 273 42.5 308.5 Q41 344 40.5 380.5 Q40 417 52 466 Q64 515 88 560 Q122 624 184.5 663 Q247 702 316 702 Q402 703 445 677 L408 602 Q399 611 372 618 Q345 625 304 620 Q258 615 223.5 590 Q189 565 170 528 Q151 491 142.5 451.5 Q134 412 134 370 Q136 356 137 353 Q174 394 217 414.5 Q260 435 293.5 437.5 Q327 440 363 432 Q399 424 415.5 416.5 Q432 409 447 400 Q482 380 506.5 331.5 Q531 283 531 224 Q531 144 489 90 Q420 3 305 2 Q177 2 108 104 Q91 128 70.5 181 Q50 234 48 256 Z M154 226 Q154 182 176 150 Q198 118 230 104 Q262 90 299.5 90.5 Q337 91 369.5 106.5 Q402 122 423.5 155 Q445 188 445 233 Q445 282 415 313.5 Q385 345 340 358 Q315 362 299.5 359.5 Q284 357 260 350 Q221 338 187.5 298.5 Q154 259 154 226 Z " />
<glyph glyph-name="seven" unicode="7" horiz-adv-x="481" d="M72 691 L438 690 L438 606 L439 603 L165 0 L42 0 L325 598 L72 598 L72 691 Z " />
<glyph glyph-name="eight" unicode="8" horiz-adv-x="555" d="M66 505 Q66 552 85 594.5 Q104 637 135 661 Q191 704 270.5 704.5 Q350 705 404 666 Q438 642 459.5 598 Q481 554 481 505 Q478 460 421 383 Q520 317 520 207 Q520 121 481 71 Q447 28 393 5.5 Q339 -17 279 -17 Q214 -17 157.5 9 Q101 35 68 83 Q35 131 35 206 Q35 311 130 379 Q69 445 66 505 Z M136 212 Q136 168 157.5 135.5 Q179 103 211 88.5 Q243 74 280.5 73.5 Q318 73 350.5 87.5 Q383 102 404 134.5 Q425 167 425 212 Q425 261 397.5 293.5 Q370 326 326 338 Q275 347 231 336 Q189 324 162.5 292 Q136 260 136 212 Z M303 419 Q341 428 364.5 455 Q388 482 388 525 Q388 558 371 582 Q354 606 328 617 Q302 628 272.5 627.5 Q243 627 217.5 616 Q192 605 174.5 581 Q157 557 157 524 Q157 480 181 453 Q205 426 243 418 Q272 415 303 419 Z " />
<glyph glyph-name="nine" unicode="9" horiz-adv-x="515" d="M132 501 Q132 449 160 419 Q188 389 225 385 Q262 381 299.5 395 Q337 409 356 436 Q377 463 381 508 Q380 546 361.5 573.5 Q343 601 315 612.5 Q287 624 255 622.5 Q223 621 195.5 608 Q168 595 150 566.5 Q132 538 132 501 Z M39 495 Q39 564 71.5 614.5 Q104 665 153.5 687.5 Q203 710 260 710 Q317 710 365.5 687.5 Q414 665 445.5 614.5 Q477 564 476 496 Q470 404 416.5 262 Q363 120 282 0 L154 1 Q203 64 224 92 Q245 120 277.5 175.5 Q310 231 330 284 Q332 290 334.5 304.5 Q337 319 338 322 Q299 296 238 296 Q187 296 143 317 Q99 338 69 384.5 Q39 431 39 495 Z " />
<glyph glyph-name="colon" unicode="&#x3a;" horiz-adv-x="161" d="M22 409 Q22 434 40.5 449 Q59 464 80.5 464.5 Q102 465 120.5 450.5 Q139 436 139 410 Q139 383 120.5 367.5 Q102 352 80.5 352 Q59 352 40.5 367 Q22 382 22 409 Z M21 75 Q21 102 39 117.5 Q57 133 79 133.5 Q101 134 119 119 Q137 104 137 77 Q137 48 119 31.5 Q101 15 79 15 Q57 15 39 31 Q21 47 21 75 Z " />
<glyph glyph-name="semicolon" unicode="&#x3b;" horiz-adv-x="154" d="M17 414 Q17 440 35 455 Q53 470 75 470 Q97 470 115 456 Q133 442 133 416 Q133 389 115 373.5 Q97 358 75 358 Q53 358 35 373 Q17 388 17 414 Z M22 92 Q22 117 40 132.5 Q58 148 79.5 148.5 Q101 149 118.5 133 Q136 117 136 88 Q136 69 127.5 50 Q119 31 111 20.5 Q103 10 84 -4 Q65 -18 61.5 -20.5 Q58 -23 41 -32 Q46 -27 52 -16 Q58 -5 63.5 7 Q69 19 72.5 29.5 Q76 40 74.5 46 Q73 52 66 50 Q50 46 35.5 58.5 Q21 71 22 92 Z " />
<glyph glyph-name="less" unicode="&#x3c;" horiz-adv-x="618" d="M535 596 L535 496 L284 371 L530 239 L529 136 L159 331 L83 374 L142 402 L535 596 Z " />
<glyph glyph-name="equal" unicode="&#x3d;" horiz-adv-x="665" d="M114 289 L556 288 L554 200 L112 201 L114 289 Z M110 527 L552 526 L554 438 L112 439 L110 527 Z " />
<glyph glyph-name="greater" unicode="&#x3e;" horiz-adv-x="618" d="M83 596 L476 402 L535 374 L459 331 L89 136 L88 239 L334 371 L83 496 L83 596 Z " />
<glyph glyph-name="question" unicode="&#x3f;" horiz-adv-x="548" d="M248 672 Q217 672 195 662.5 Q173 653 161.5 639.5 Q150 626 135 610 L93 679 Q125 715 165 732 Q205 749 261 749 Q350 749 402.5 699.5 Q455 650 455 568 Q455 526 437 491 Q419 456 378 414 L336 370 Q299 330 292.5 309.5 Q286 289 286 237 L284 220 L187 215 L188 248 Q188 306 204 339 Q220 372 258 411 L301 457 Q309 465 318 473.5 Q327 482 335 492.5 Q343 503 349.5 512.5 Q356 522 360 534 Q364 546 363 558 Q360 672 248 672 Z M178 60 Q178 87 196 102.5 Q214 118 236 118.5 Q258 119 276 104 Q294 89 294 62 Q294 33 276 16.5 Q258 0 236 0 Q214 0 196 16 Q178 32 178 60 Z " />
<glyph glyph-name="at" unicode="&#x40;" horiz-adv-x="905" d="M695 90 Q665 71 647.5 61.5 Q630 52 598.5 40 Q567 28 528.5 23 Q490 18 438 18 Q373 18 316 38.5 Q259 59 220 92.5 Q181 126 152.5 169 Q124 212 111 258 Q98 304 98 350 Q98 489 182 590 Q227 644 306 677 Q385 710 464 710 Q537 710 605 689 Q673 668 715 632 Q769 584 795 516 Q821 448 821 371 Q821 314 808 280.5 Q795 247 754 210 Q720 181 674 174 Q628 167 590 181.5 Q552 196 537 226 Q501 201 455.5 197.5 Q410 194 370 210 Q330 226 302.5 266.5 Q275 307 274 363 Q273 407 288 442.5 Q303 478 328 498.5 Q353 519 384 530 Q415 541 448.5 539.5 Q482 538 511 525 Q529 516 536 504 L536 535 L609 535 Q607 507 604 467 Q601 427 599.5 404.5 Q598 382 599 347.5 Q600 313 605 277 Q614 250 651 244 Q688 238 712 262 Q737 287 743.5 303 Q750 319 750 367 Q751 495 670 571 Q637 603 579.5 620.5 Q522 638 465 638 Q398 638 333 612 Q268 586 234 542 Q175 465 175 350 Q175 310 193 265.5 Q211 221 243.5 181 Q276 141 327.5 114 Q379 87 438 86 Q475 85 505 87.5 Q535 90 554.5 95.5 Q574 101 591 108 Q608 115 620 123 Q632 131 646 140 L695 90 Z M347 366 Q347 333 363.5 307.5 Q380 282 405 272.5 Q430 263 456 264 Q482 265 504 281.5 Q526 298 534 327 Q536 338 535.5 368.5 Q535 399 534 409 Q525 439 503.5 457 Q482 475 456 475.5 Q430 476 405 465.5 Q380 455 363.5 428.5 Q347 402 347 366 Z " />
<glyph glyph-name="A" unicode="A" horiz-adv-x="674" d="M329 731 L370 639 L653 1 L558 1 L472 183 L197 183 L116 1 L21 1 L299 656 L329 731 Z M434 266 L330 514 L233 266 L434 266 Z " />
<glyph glyph-name="B" unicode="B" horiz-adv-x="517" d="M44 688 L244 688 L247 686 Q292 687 328 669.5 Q364 652 384.5 624 Q405 596 413.5 560.5 Q422 525 416.5 492 Q411 459 389.5 430 Q368 401 333 386 Q332 386 332 384.5 Q332 383 333 383 Q379 381 412.5 351.5 Q446 322 460.5 279 Q475 236 471.5 186.5 Q468 137 446.5 95 Q425 53 379 26 Q333 -1 271 1 L261 0 L93 0 L93 1 L44 0 L44 688 Z M131 616 L131 407 L243 407 Q279 412 302 434.5 Q325 457 329 486.5 Q333 516 325 545 Q317 574 291 594 Q265 614 228 615 L228 616 L131 616 Z M131 334 L131 95 L284 95 Q323 96 348 120 Q373 144 377 179 Q381 214 372.5 248.5 Q364 283 337 307.5 Q310 332 273 333 L273 334 L131 334 Z " />
<glyph glyph-name="C" unicode="C" horiz-adv-x="694" d="M430 702 Q518 699 579 671 Q602 660 611.5 653.5 Q621 647 642 629 L571 566 Q557 584 510 599.5 Q463 615 429 616 Q348 619 271.5 571.5 Q195 524 159 447 Q111 344 148.5 245 Q186 146 290 98 Q341 74 397 73 Q453 72 502.5 90 Q552 108 598 142 L658 75 Q614 35 553 12.5 Q492 -10 434 -13.5 Q376 -17 324.5 -9.5 Q273 -2 240 15 Q101 87 55 215.5 Q9 344 75 485 Q124 590 221 648.5 Q318 707 430 702 Z " />
<glyph glyph-name="D" unicode="D" horiz-adv-x="611" d="M145 691 Q164 693 201.5 692 Q239 691 255 691 Q313 690 362.5 673.5 Q412 657 445 630 Q478 603 498 578 Q518 553 531 526 Q564 455 570 376.5 Q576 298 555.5 227.5 Q535 157 483.5 99.5 Q432 42 357 16 Q336 9 285 0 Q269 0 240 -0.5 Q211 -1 194 -1 Q177 -1 138 0 L39 0 L39 691 L145 691 Z M454 476 Q428 540 374.5 577.5 Q321 615 246 615 Q241 615 203 615.5 Q165 616 131 615 L134 83 Q170 83 202.5 82 Q235 81 275.5 86.5 Q316 92 349 106 Q399 126 429.5 176 Q460 226 467.5 282.5 Q475 339 471 391 Q467 443 454 476 Z " />
<glyph glyph-name="E" unicode="E" horiz-adv-x="483" d="M54 693 L420 693 L420 608 L146 608 L146 412 L342 412 L342 329 L146 329 L146 82 L429 82 L429 0 L54 0 L54 693 Z " />
<glyph glyph-name="F" unicode="F" horiz-adv-x="469" d="M58 691 L411 691 L411 609 L151 609 L151 412 L346 412 L346 329 L151 329 L151 0 L58 0 L58 691 Z " />
<glyph glyph-name="G" unicode="G" horiz-adv-x="704" d="M673 365 L672 116 Q672 100 654 91 Q610 50 549 27 Q488 4 429 -0.5 Q370 -5 318.5 2 Q267 9 234 26 Q143 74 91.5 147 Q40 220 32.5 297 Q25 374 50 452 Q75 530 126.5 590.5 Q178 651 256.5 687 Q335 723 424 720 Q512 717 573 688 Q596 677 605.5 670.5 Q615 664 636 646 L565 582 Q552 601 504.5 616 Q457 631 423 633 Q342 636 265.5 588 Q189 540 153 463 Q105 358 142.5 258.5 Q180 159 284 109 Q333 86 386.5 85 Q440 84 488 101 Q536 118 581 149 L585 290 L447 290 L448 364 L673 365 Z " />
<glyph glyph-name="H" unicode="H" horiz-adv-x="630" d="M481 694 L572 694 L572 0 L481 0 L481 311 L151 312 L151 0 L58 0 L58 690 L150 690 L151 617 L151 394 L481 394 L481 694 Z " />
<glyph glyph-name="I" unicode="I" horiz-adv-x="207" d="M58 696 L148 696 L149 1 L59 1 L58 696 Z " />
<glyph glyph-name="J" unicode="J" horiz-adv-x="396" d="M63 72 Q99 46 138.5 44 Q178 42 209.5 61.5 Q241 81 261 125 Q281 169 280 228 L273 700 L364 700 L373 222 Q375 152 352 96.5 Q329 41 290.5 10.5 Q252 -20 206 -33.5 Q160 -47 111.5 -39.5 Q63 -32 22 -7 L63 72 Z " />
<glyph glyph-name="K" unicode="K" horiz-adv-x="636" d="M414 686 L527 686 L249 362 L587 -2 L472 -2 L142 358 L142 -2 L49 -2 L49 686 L142 686 L142 361 L414 686 Z " />
<glyph glyph-name="L" unicode="L" horiz-adv-x="474" d="M142 690 L142 85 L425 85 L425 2 L49 2 L49 691 L142 690 Z " />
<glyph glyph-name="M" unicode="M" horiz-adv-x="734" d="M369 330 L654 719 L689 -4 L603 -4 L572 457 L369 190 L162 460 L131 -1 L45 -1 L80 723 L369 330 Z " />
<glyph glyph-name="N" unicode="N" horiz-adv-x="646" d="M145 467 L145 3 L58 3 L58 700 L503 204 L500 696 L588 696 L588 -28 L145 467 Z " />
<glyph glyph-name="O" unicode="O" horiz-adv-x="752" d="M354 627 Q296 627 249.5 603.5 Q203 580 175 541.5 Q147 503 132 454 Q117 405 118 354 Q119 303 136 253.5 Q153 204 183 166 Q213 128 261.5 104.5 Q310 81 370 81 Q431 81 482 104.5 Q533 128 564.5 166.5 Q596 205 613 254.5 Q630 304 630.5 355.5 Q631 407 613 456 Q595 505 562.5 543.5 Q530 582 476 605 Q422 628 354 627 Z M361 707 Q450 707 521.5 676 Q593 645 637 595 Q681 545 704.5 481 Q728 417 727.5 350.5 Q727 284 703.5 220.5 Q680 157 636.5 107.5 Q593 58 523 27.5 Q453 -3 368 -3 Q285 -3 218 27.5 Q151 58 110 108 Q69 158 47 221.5 Q25 285 25 352 Q25 419 46.5 482.5 Q68 546 108.5 596 Q149 646 214.5 676.5 Q280 707 361 707 Z " />
<glyph glyph-name="P" unicode="P" horiz-adv-x="506" d="M52 693 L259 692 Q321 693 367 664.5 Q413 636 433.5 593 Q454 550 453.5 499 Q453 448 431.5 404.5 Q410 361 362.5 332 Q315 303 249 304 L144 303 L144 3 L52 1 L52 693 Z M144 610 L144 385 L252 385 Q284 385 308 401.5 Q332 418 343.5 442.5 Q355 467 356.5 496 Q358 525 348 550 Q338 575 314.5 592 Q291 609 258 609 L144 610 Z " />
<glyph glyph-name="Q" unicode="Q" horiz-adv-x="763" d="M360 627 Q302 627 255.5 603.5 Q209 580 180.5 541.5 Q152 503 137.5 454 Q123 405 124 354 Q125 303 142 253.5 Q159 204 189 166 Q219 128 267.5 104.5 Q316 81 375 81 Q437 81 487.5 104.5 Q538 128 569.5 166.5 Q601 205 618.5 254.5 Q636 304 636 355.5 Q636 407 618.5 456 Q601 505 568.5 543.5 Q536 582 481.5 605 Q427 628 360 627 Z M367 707 Q456 707 527.5 676 Q599 645 642.5 595 Q686 545 709.5 481 Q733 417 733 350.5 Q733 284 709 220.5 Q685 157 642 107.5 Q599 58 529 27.5 Q459 -3 373 -3 Q290 -3 223 27.5 Q156 58 115.5 108 Q75 158 52.5 221.5 Q30 285 30 352 Q30 419 52 482.5 Q74 546 114.5 596 Q155 646 220.5 676.5 Q286 707 367 707 Z M572 199 L708 48 L633 -14 L512 125 L445 201 L518 260 L572 199 Z " />
<glyph glyph-name="R" unicode="R" horiz-adv-x="489" d="M49 700 L256 701 Q308 702 349 682 Q390 662 413 629.5 Q436 597 445.5 556 Q455 515 448.5 475.5 Q442 436 419 399.5 Q396 363 360 341 L524 1 L423 1 L272 314 Q261 313 246 313 L141 312 L145 1 L52 1 L49 700 Z M141 618 L141 394 L250 394 Q281 394 305 410.5 Q329 427 341 451.5 Q353 476 354 505 Q355 534 345 559 Q335 584 311.5 601 Q288 618 255 618 L141 618 Z " />
<glyph glyph-name="S" unicode="S" horiz-adv-x="528" d="M255 705 Q315 705 351.5 696 Q388 687 424 659 L378 592 Q328 634 248 626 Q212 622 188 598 Q164 574 160 544 Q156 514 180.5 481.5 Q205 449 258 430 L339 402 Q367 392 393.5 375 Q420 358 443 331.5 Q466 305 479.5 274 Q493 243 492 202.5 Q491 162 472 120 Q403 -29 184 0 Q146 7 119 15.5 Q92 24 81 29 Q70 34 36 52 L54 149 Q136 111 191 97 Q224 88 257.5 88 Q291 88 324.5 104.5 Q358 121 379 152 Q409 200 387 247.5 Q365 295 312 312 Q261 334 232 344 Q170 362 129.5 397 Q89 432 74.5 471.5 Q60 511 65.5 553 Q71 595 94 628.5 Q117 662 159.5 683.5 Q202 705 255 705 Z " />
<glyph glyph-name="T" unicode="T" horiz-adv-x="490" d="M16 686 L474 686 L474 606 L292 605 L288 0 L196 0 L196 1 L199 605 L16 606 L16 686 Z " />
<glyph glyph-name="U" unicode="U" horiz-adv-x="592" d="M145 685 L147 266 Q147 224 159.5 189 Q172 154 192.5 132.5 Q213 111 239.5 99.5 Q266 88 293.5 88 Q321 88 347.5 100 Q374 112 395 133.5 Q416 155 429 190.5 Q442 226 443 270 L445 268 L444 682 L535 682 L539 265 Q540 200 519 148.5 Q498 97 463.5 65.5 Q429 34 384.5 17.5 Q340 1 293.5 2 Q247 3 203 20.5 Q159 38 125 69.5 Q91 101 71.5 152 Q52 203 54 264 L52 683 L145 685 Z " />
<glyph glyph-name="V" unicode="V" horiz-adv-x="675" d="M445 429 L559 693 L653 693 L330 -37 L299 39 L22 693 L116 693 L229 429 L331 181 L445 429 Z " />
<glyph glyph-name="W" unicode="W" horiz-adv-x="865" d="M437 370 L270 -21 L27 692 L115 692 L274 227 L418 560 L434 598 L450 559 L593 228 L751 693 L838 692 L596 -19 L437 370 Z " />
<glyph glyph-name="X" unicode="X" horiz-adv-x="695" d="M29 0 L95 93 L292 390 L166 570 L75 698 L196 698 L286 570 L349 476 L419 582 L496 696 L602 697 L522 576 L523 576 L404 395 L608 90 L608 89 L666 -1 L562 0 L505 84 L347 310 L204 93 L148 0 L29 0 Z " />
<glyph glyph-name="Y" unicode="Y" horiz-adv-x="604" d="M16 692 L122 692 L304 418 L482 692 L588 692 L354 334 L354 3 L248 0 L255 330 L256 330 L16 692 Z " />
<glyph glyph-name="Z" unicode="Z" horiz-adv-x="795" d="M169 682 L682 682 L625 592 L296 93 L675 93 L675 2 L120 0 Q127 10 147 37 Q167 64 186 93 L516 597 L169 597 L169 682 Z " />
<glyph glyph-name="bracketleft" unicode="&#x5b;" horiz-adv-x="348" d="M62 0 L62 704 L156 702 L284 702 L283 609 L156 609 L156 92 L286 92 L285 0 L156 0 L62 0 Z " />
<glyph glyph-name="backslash" unicode="&#x5c;" horiz-adv-x="492" d="M326 0 L59 704 L159 702 L433 0 L326 0 Z " />
<glyph glyph-name="bracketright" unicode="&#x5d;" horiz-adv-x="344" d="M284 0 L190 0 L61 0 L60 92 L190 92 L190 609 L63 609 L62 702 L190 702 L284 704 L284 0 Z " />
<glyph glyph-name="asciicircum" unicode="&#x5e;" horiz-adv-x="605" d="M448 530 L361 530 L308 608 L249 530 L157 529 L309 734 L448 530 Z " />
<glyph glyph-name="underscore" unicode="&#x5f;" horiz-adv-x="559" d="M511 0 L511 -82 L48 -82 L48 0 L511 0 Z " />
<glyph glyph-name="grave" unicode="&#x60;" horiz-adv-x="1000" d="M461 985 L601 838 L551 791 L399 912 L461 985 Z " />
<glyph glyph-name="a" unicode="a" horiz-adv-x="509" d="M33 207 Q33 263 52 308 Q71 353 103 380 Q135 407 175 421 Q215 435 257.5 432.5 Q300 430 337 413 Q360 403 370 387 L370 427 L463 427 L462 0 L371 0 L371 31 Q334 6 288.5 -3 Q243 -12 199 -2 Q155 8 118 32.5 Q81 57 57.5 102.5 Q34 148 33 207 Z M119 210 Q119 165 140.5 131.5 Q162 98 195 86 Q228 74 262.5 74.5 Q297 75 326 97.5 Q355 120 365 157 Q369 172 368 212.5 Q367 253 365 266 Q356 300 334 321.5 Q312 343 284.5 350 Q257 357 227.5 351.5 Q198 346 174 328.5 Q150 311 134.5 280 Q119 249 119 210 Z " />
<glyph glyph-name="b" unicode="b" horiz-adv-x="511" d="M474 207 Q473 148 449.5 102.5 Q426 57 389 32.5 Q352 8 308 -2 Q264 -12 218.5 -3 Q173 6 136 31 L136 0 L45 0 L44 748 L137 748 L137 386 Q145 394 163 405 Q181 416 194 420 Q224 430 257 430.5 Q290 431 321.5 423 Q353 415 381 396.5 Q409 378 429.5 352 Q450 326 462 288.5 Q474 251 474 207 Z M379 211 Q379 256 358 290 Q337 324 305.5 337 Q274 350 240.5 349.5 Q207 349 179 326.5 Q151 304 141 265 Q139 252 138 213 Q137 174 141 160 Q151 123 179 101.5 Q207 80 240.5 79.5 Q274 79 305.5 91 Q337 103 358 135 Q379 167 379 211 Z " />
<glyph glyph-name="c" unicode="c" horiz-adv-x="421" d="M283 430 Q337 424 373 404 Q388 396 386 397 Q384 398 393 391 L343 313 Q336 323 313.5 332 Q291 341 275 343 Q234 347 196.5 330 Q159 313 140 277 Q112 227 123.5 181 Q135 135 183 107 Q211 91 243 90 Q290 87 326 107 Q339 113 345 118 L390 40 Q344 -1 249 0 Q175 0 136 24 Q54 73 31.5 153.5 Q9 234 55 317 Q89 378 151.5 407.5 Q214 437 283 430 Z " />
<glyph glyph-name="d" unicode="d" horiz-adv-x="515" d="M43 207 Q42 258 58 300.5 Q74 343 101 369 Q128 395 163.5 412.5 Q199 430 236.5 431.5 Q274 433 311 426 Q356 416 379 403 L379 748 L472 748 L471 0 L381 0 L380 38 Q377 36 365.5 25.5 Q354 15 347 12 Q310 -4 268 -6.5 Q226 -9 187 4 Q148 17 115.5 42 Q83 67 63.5 110 Q44 153 43 207 Z M137 211 Q137 167 158.5 135 Q180 103 211.5 91 Q243 79 276.5 79.5 Q310 80 338 101.5 Q366 123 376 160 Q379 174 378.5 213 Q378 252 376 265 Q365 304 337 326.5 Q309 349 276 349.5 Q243 350 211 337 Q179 324 158 290 Q137 256 137 211 Z " />
<glyph glyph-name="e" unicode="e" horiz-adv-x="500" d="M452 81 Q424 45 370 20 Q341 6 298 1 Q278 -1 258 -1 Q231 -1 207 3 Q151 14 111 46.5 Q71 79 53 122 Q35 165 35.5 214 Q36 263 54.5 306.5 Q73 350 113.5 383.5 Q154 417 208 428 Q235 433 264 433 Q291 433 314 429 Q374 417 410.5 377 Q447 337 457 286.5 Q467 236 457 180 L132 179 Q144 137 172.5 115 Q201 93 262 88 Q274 86 289.5 87.5 Q305 89 331 98.5 Q357 108 376 126 L377 127 L452 82 L452 81 Z M373 252 Q364 356 263 356 Q207 356 173 324 Q139 292 134 251 L373 252 Z " />
<glyph glyph-name="f" unicode="f" horiz-adv-x="359" d="M81 0 L81 346 L31 346 L31 422 L85 422 Q85 483 100 528.5 Q115 574 139.5 597.5 Q164 621 189.5 631.5 Q215 642 241 642 Q258 642 271 638.5 Q284 635 297 629.5 Q310 624 318 622 L270 547 L253 556 Q213 556 196 527 Q179 498 179 422 L282 422 L282 344 L176 344 L177 0 L81 0 Z " />
<glyph glyph-name="g" unicode="g" horiz-adv-x="476" d="M118 224 Q118 185 138.5 154.5 Q159 124 189 111 Q219 98 250.5 98 Q282 98 308 119.5 Q334 141 343 179 Q343 189 344 214.5 Q345 240 344 252 Q344 285 327.5 308 Q311 331 286 340 Q261 349 231.5 346.5 Q202 344 177 330.5 Q152 317 135 289 Q118 261 118 224 Z M441 6 Q441 -102 356 -164 Q308 -197 242 -198.5 Q176 -200 124 -172 Q94 -156 87.5 -152.5 Q81 -149 71 -140 L107 -69 Q109 -70 165 -99 Q189 -111 218 -113 Q247 -115 273.5 -107 Q300 -99 322 -79 Q344 -59 352 -30 L351 0 L352 59 Q330 36 297.5 25 Q265 14 230 15 Q195 16 160 30 Q125 44 97 67.5 Q69 91 51.5 129.5 Q34 168 33 214 Q33 264 50 306.5 Q67 349 96.5 375.5 Q126 402 162.5 417 Q199 432 239.5 431 Q280 430 317 413 Q340 403 350 387 L349 427 L443 427 L441 6 Z " />
<glyph glyph-name="h" unicode="h" horiz-adv-x="487" d="M437 229 Q437 159 437 120 Q437 81 437 71.5 Q437 62 436.5 44 Q436 26 436 -1 L342 -1 Q342 31 342.5 63 Q343 95 343 131.5 Q343 168 343 235 Q343 274 328 300.5 Q313 327 290.5 337.5 Q268 348 241.5 346 Q215 344 192.5 330.5 Q170 317 155 292 Q140 267 140 235 L140 -1 L50 -1 L49 742 L142 748 L142 387 Q152 395 168.5 406 Q185 417 198 421 Q230 432 264 432 Q352 432 394.5 377 Q437 322 437 229 Z " />
<glyph glyph-name="i" unicode="i" horiz-adv-x="207" d="M51 545 Q51 568 67.5 581.5 Q84 595 103.5 595.5 Q123 596 139.5 583 Q156 570 156 546 Q156 521 139.5 506.5 Q123 492 103.5 492 Q84 492 67.5 506 Q51 520 51 545 Z M59 433 L151 433 L151 -2 L61 -2 L59 433 Z " />
<glyph glyph-name="j" unicode="j" horiz-adv-x="207" d="M51 545 Q51 568 67.5 581.5 Q84 595 103.5 595.5 Q123 596 139.5 583 Q156 570 156 546 Q156 521 139.5 506.5 Q123 492 103.5 492 Q84 492 67.5 506 Q51 520 51 545 Z M59 430 L151 430 L150 -102 L59 -102 L59 430 Z " />
<glyph glyph-name="k" unicode="k" horiz-adv-x="490" d="M143 748 L142 238 L197 293 L329 425 L447 424 L251 227 L477 0 L359 -1 L197 161 L142 216 L142 0 L49 0 L50 748 L143 748 Z " />
<glyph glyph-name="l" unicode="l" horiz-adv-x="210" d="M151 238 L151 0 L58 0 L58 782 L152 782 L151 238 Z " />
<glyph glyph-name="m" unicode="m" horiz-adv-x="746" d="M254 433 Q289 433 313 423.5 Q337 414 359 393 Q368 386 376 384.5 Q384 383 388 384 Q392 385 401.5 392 Q411 399 415 401 Q436 416 464 424 Q479 430 489 430.5 Q499 431 512 430 Q599 430 642.5 373 Q686 316 686 223 Q686 153 686 115.5 Q686 78 686 69.5 Q686 61 685.5 45 Q685 29 685 1 L590 0 Q590 32 590 60.5 Q590 89 590.5 123 Q591 157 591 225 Q591 263 577.5 290.5 Q564 318 544 330.5 Q524 343 500.5 343 Q477 343 457 331.5 Q437 320 423.5 295 Q410 270 410 236 Q410 230 409 0 L322 0 Q322 33 322 64 Q322 95 322.5 130.5 Q323 166 323 233 Q323 272 309 299.5 Q295 327 274.5 338.5 Q254 350 230 349.5 Q206 349 185.5 337.5 Q165 326 151 301.5 Q137 277 137 245 L137 0 L47 0 L46 429 L139 429 L139 394 Q156 406 166 412 Q176 418 201 425.5 Q226 433 254 433 Z " />
<glyph glyph-name="n" unicode="n" horiz-adv-x="426" d="M404 230 Q404 230 403 0 L309 0 Q309 33 309 65.5 Q309 98 309.5 135 Q310 172 310 239 Q310 278 296 305 Q282 332 261.5 343 Q241 354 217 352.5 Q193 351 172 338.5 Q151 326 137.5 301 Q124 276 124 244 L126 0 L36 0 L35 429 L128 429 L128 396 Q133 399 174 420 Q193 429 248 429 Q334 429 369 377.5 Q404 326 404 230 Z " />
<glyph glyph-name="o" unicode="o" horiz-adv-x="499" d="M248 362 Q205 362 173 341 Q141 320 126.5 289.5 Q112 259 111.5 223 Q111 187 125 156 Q139 125 170.5 104.5 Q202 84 245 84 Q311 84 350 127 Q376 156 383 196.5 Q390 237 378.5 273.5 Q367 310 332.5 336 Q298 362 248 362 Z M249 434 Q321 434 373 402 Q425 370 448 322 Q471 274 470.5 217.5 Q470 161 446 112.5 Q422 64 369 32 Q316 0 245 0 Q173 0 120 32 Q67 64 44 112.5 Q21 161 22 217.5 Q23 274 47.5 322 Q72 370 125 402 Q178 434 249 434 Z " />
<glyph glyph-name="p" unicode="p" horiz-adv-x="507" d="M468 207 Q467 148 444 102.5 Q421 57 383.5 32.5 Q346 8 302 -2 Q258 -12 212.5 -3 Q167 6 131 31 L130 -201 L40 -201 L39 427 L132 427 L132 395 Q168 420 214 429 Q260 438 304.5 427 Q349 416 386.5 390 Q424 364 446.5 316 Q469 268 468 207 Z M374 211 Q374 256 353 290 Q332 324 300 337 Q268 350 235 349.5 Q202 349 174 326.5 Q146 304 135 265 Q133 252 132.5 213 Q132 174 135 160 Q145 123 173 101.5 Q201 80 234.5 79.5 Q268 79 299.5 91 Q331 103 352.5 135 Q374 167 374 211 Z " />
<glyph glyph-name="q" unicode="q" horiz-adv-x="497" d="M34 207 Q33 252 45.5 290 Q58 328 79.5 354.5 Q101 381 130 399.5 Q159 418 191.5 425.5 Q224 433 257.5 432 Q291 431 322 419 Q355 408 370 387 L370 427 L463 427 L462 -201 L372 -201 L371 31 Q335 6 289.5 -3 Q244 -12 200 -2 Q156 8 118.5 32.5 Q81 57 58 102.5 Q35 148 34 207 Z M128 211 Q128 167 149.5 135 Q171 103 202.5 91 Q234 79 267.5 79.5 Q301 80 329 101.5 Q357 123 367 160 Q370 174 369.5 213 Q369 252 367 265 Q356 304 328 326.5 Q300 349 267 349.5 Q234 350 202 337 Q170 324 149 290 Q128 256 128 211 Z " />
<glyph glyph-name="r" unicode="r" horiz-adv-x="343" d="M261 440 Q290 440 318 427 L282 345 Q255 351 222.5 343.5 Q190 336 169 314 Q151 294 137 262.5 Q123 231 123 204 L122 0 L32 0 L31 429 L124 429 L123 343 L124 344 Q129 377 153.5 400 Q178 423 205.5 431.5 Q233 440 261 440 Z " />
<glyph glyph-name="s" unicode="s" horiz-adv-x="416" d="M45 74 L113 134 Q147 91 206 84 Q236 80 257 90.5 Q278 101 284 117 Q290 133 279.5 149.5 Q269 166 242 174 Q166 196 149 202 Q111 218 94.5 249 Q78 280 78 314 Q78 332 85 351.5 Q92 371 108 390.5 Q124 410 157 422.5 Q190 435 234 435 Q318 435 358 394 L309 330 Q285 358 248 363 Q235 365 219.5 362.5 Q204 360 189.5 349 Q175 338 175 318 Q175 282 222 267 L269 258 Q320 242 347 212 Q374 182 375.5 149.5 Q377 117 366 88 Q355 59 334 39 Q309 15 277 6.5 Q245 -2 202 -3 Q168 -4 115.5 17.5 Q63 39 45 74 Z " />
<glyph glyph-name="t" unicode="t" horiz-adv-x="243" d="M167 422 L215 422 L215 338 L166 338 L166 -2 L71 -2 L71 340 L28 340 L28 422 L74 422 Q74 422 74 514 L167 514 Q167 456 167 422 Z " />
<glyph glyph-name="u" unicode="u" horiz-adv-x="472" d="M41 199 Q41 269 41.5 308 Q42 347 42 356.5 Q42 366 42 384 Q42 402 42 429 L136 429 Q136 191 136 190 Q136 151 149.5 126.5 Q163 102 183.5 94.5 Q204 87 227.5 92.5 Q251 98 271.5 114 Q292 130 306 157 Q320 184 320 216 L319 429 L410 429 L411 0 L318 0 L316 64 Q308 59 291 40 Q274 21 264 16 Q232 0 198 0 Q111 0 76 51.5 Q41 103 41 199 Z " />
<glyph glyph-name="v" unicode="v" horiz-adv-x="467" d="M438 429 L230 -37 L30 427 L126 428 L231 181 L347 430 L438 429 Z " />
<glyph glyph-name="w" unicode="w" horiz-adv-x="585" d="M312 342 L396 177 L488 430 L580 429 L412 -31 L311 166 L202 -31 L32 427 L128 428 L222 174 L312 342 L312 342 Z " />
<glyph glyph-name="x" unicode="x" horiz-adv-x="492" d="M33 0 L99 93 L195 234 L127 335 L61 427 L181 428 L237 335 L250 315 L325 428 L431 428 L351 308 L303 235 L379 120 L459 -1 L353 0 L276 114 L249 154 L209 93 L153 0 L33 0 Z " />
<glyph glyph-name="y" unicode="y" horiz-adv-x="462" d="M183 75 L19 427 L115 428 L233 181 L361 430 L452 429 L146 -200 L39 -200 L183 75 Z " />
<glyph glyph-name="z" unicode="z" horiz-adv-x="446" d="M58 346 L58 424 L411 424 L357 343 L357 343 L189 86 L417 86 L417 0 L29 0 L265 347 L58 346 Z " />
<glyph glyph-name="braceleft" unicode="&#x7b;" horiz-adv-x="268" d="M135 144 Q143 42 228 -24 L228 -136 Q150 -98 99.5 -26 Q49 46 40 147 Q40 148 40.5 156.5 Q41 165 41.5 176.5 Q42 188 41 204 Q40 220 37.5 235 Q35 250 30 265.5 Q25 281 17.5 292 Q10 303 -2 310.5 Q-14 318 -30 318 Q0 318 16.5 346 Q33 374 36 407.5 Q39 441 39 471.5 Q39 502 40 502 Q47 601 98 670.5 Q149 740 229 775 L229 672 Q146 613 134 505 Q134 504 133.5 474 Q133 444 130 410.5 Q127 377 110.5 348.5 Q94 320 64 320 Q80 320 92.5 312.5 Q105 305 112 293.5 Q119 282 124.5 266 Q130 250 132 234.5 Q134 219 135 202.5 Q136 186 136 174.5 Q136 163 136 154 Q135 145 135 144 Z " />
<glyph glyph-name="bar" unicode="&#x7c;" horiz-adv-x="207" d="M151 238 L149 0 L56 0 L56 697 L150 697 L151 238 Z " />
<glyph glyph-name="braceright" unicode="&#x7d;" horiz-adv-x="268" d="M64 144 Q64 145 64 154 Q63 163 63 174.5 Q63 186 64 202.5 Q65 219 67 234.5 Q69 250 74 266 Q79 282 86.5 293.5 Q94 305 106.5 312.5 Q119 320 135 320 Q105 320 88 348.5 Q71 377 68.5 410.5 Q66 444 65.5 474 Q65 504 65 505 Q53 613 -30 672 L-30 775 Q50 740 101 670.5 Q152 601 159 502 Q159 501 160 472 Q160 441 163 407.5 Q166 374 182.5 346 Q199 318 229 318 Q213 318 201 310.5 Q189 303 181.5 292 Q174 281 168.5 265.5 Q163 250 161 235 Q159 220 158 204 Q157 188 157.5 176.5 Q158 165 158.5 156.5 Q159 148 159 147 Q150 46 99.5 -26 Q49 -98 -29 -136 L-29 -24 Q56 42 64 144 Z " />
<glyph glyph-name="asciitilde" unicode="&#x7e;" horiz-adv-x="496" d="M282 559 Q289 545 303 543.5 Q317 542 326 552.5 Q335 563 328 577 Q328 577 328 578 Q328 578 327 579 L369 598 L369 597 Q379 573 374 552 Q369 531 351 519.5 Q333 508 312.5 504 Q292 500 272 509 Q252 518 242 539 L282 559 Z M242 539 Q235 553 221 554.5 Q207 556 198 545.5 Q189 535 196 521 Q196 521 196 520 Q196 520 197 519 L155 500 L155 501 Q145 525 150 546 Q155 567 173 578.5 Q191 590 211.5 594 Q232 598 252 589 Q272 580 282 559 L242 539 Z " />
<glyph glyph-name="exclamdown" unicode="&#xa1;" horiz-adv-x="238" d="M74 1 L68 442 L159 442 L164 1 L74 1 Z M54 634 Q54 662 72 678 Q90 694 112 694 Q134 694 152 677.5 Q170 661 170 632 Q170 605 152 590 Q134 575 112 575.5 Q90 576 72 591.5 Q54 607 54 634 Z " />
<glyph glyph-name="yen" unicode="&#xa5;" horiz-adv-x="604" d="M48 200 L549 200 L547 112 L46 112 L48 200 Z M45 380 L546 380 L548 292 L47 292 L45 380 Z M16 692 L122 692 L304 418 L482 692 L588 692 L354 334 L354 3 L248 0 L255 330 L256 330 L16 692 Z " />
<glyph glyph-name="brokenbar" unicode="&#xa6;" horiz-adv-x="207" d="M63 315 L147 315 L150 0 L63 0 L63 315 Z M64 696 L148 696 L147 387 L63 387 L64 696 Z " />
<glyph glyph-name="dieresis" unicode="&#xa8;" horiz-adv-x="713" d="M160 805 Q160 832 178 848 Q196 864 218 864 Q240 864 258 849 Q276 834 276 807 Q276 778 258 761.5 Q240 745 218 745 Q196 745 178 761 Q160 777 160 805 Z M408 800 Q408 827 426 843 Q444 859 466 859 Q488 859 506 844 Q524 829 524 802 Q524 773 506 756.5 Q488 740 466 740 Q444 740 426 756 Q408 772 408 800 Z " />
<glyph glyph-name="guillemotleft" unicode="&#xab;" horiz-adv-x="605" d="M444 428 L444 341 L366 288 L444 229 L445 138 L241 289 L444 428 Z M237 430 L237 344 L159 290 L237 232 L238 140 L33 292 L237 430 Z " />
<glyph glyph-name="degree" unicode="&#xb0;" horiz-adv-x="560" d="M256 802 Q256 786 268 779.5 Q280 773 292.5 779.5 Q305 786 305 803 Q305 818 292.5 824.5 Q280 831 268 824 Q256 817 256 802 Z M210 801 Q210 833 232 850.5 Q254 868 280 866 Q306 864 328 846 Q350 828 350 799 Q350 768 328 749.5 Q306 731 280 730 Q254 729 232 748 Q210 767 210 801 Z " />
<glyph glyph-name="plusminus" unicode="&#xb1;" horiz-adv-x="495" d="M442 127 L54 127 L54 217 L442 218 L442 127 Z M429 474 L293 473 L294 318 L203 318 L203 473 L62 472 L62 562 L205 561 L202 707 L292 707 L292 563 L429 564 L429 474 Z " />
<glyph glyph-name="uni00B2" unicode="&#xb2;" horiz-adv-x="402" d="M151 525 L303 723 Q329 763 324 794 Q319 825 285 833 Q268 837 246.5 828 Q225 819 218 798 L179 823 Q205 878 275 876 Q325 875 350 848.5 Q375 822 369.5 778 Q364 734 329 685 L243 570 L380 571 L380 525 L201 525 L151 525 Z " />
<glyph glyph-name="uni00B3" unicode="&#xb3;" horiz-adv-x="382" d="M269 730 Q292 734 303 759.5 Q314 785 303 807 Q293 827 266 833 Q247 837 226 832 Q205 827 195 809 L157 833 Q188 876 259 874 Q291 874 315 858.5 Q339 843 348.5 820.5 Q358 798 353 770 Q348 742 326 719 Q358 686 365.5 649.5 Q373 613 359 585 Q345 557 315.5 538 Q286 519 249 519 Q195 517 142 545 L171 579 Q189 571 204 567 Q219 563 229 563 Q239 563 251 563 Q287 563 305.5 590 Q324 617 315.5 648 Q307 679 274 690 L228 691 L227 729 L269 730 Z " />
<glyph glyph-name="acute" unicode="&#xb4;" horiz-adv-x="1000" d="M424 985 L486 912 L334 791 L284 838 L424 985 Z " />
<glyph glyph-name="uni00B9" unicode="&#xb9;" horiz-adv-x="284" d="M174 786 L161 772 L130 800 L197 863 L222 890 L223 832 L223 832 L223 569 L224 569 L224 530 L175 530 L175 569 L174 786 Z " />
<glyph glyph-name="guillemotright" unicode="&#xbb;" horiz-adv-x="605" d="M34 428 L237 289 L33 138 L34 229 L112 288 L34 341 L34 428 Z M241 430 L445 292 L240 140 L241 232 L319 290 L241 344 L241 430 Z " />
<glyph glyph-name="questiondown" unicode="&#xbf;" horiz-adv-x="548" d="M300 77 Q331 77 353 86.5 Q375 96 386.5 110 Q398 124 413 140 L455 71 Q423 35 383 17.5 Q343 0 287 0 Q198 0 145.5 50 Q93 100 93 182 Q93 223 111 258.5 Q129 294 170 336 L212 380 Q249 420 255.5 440.5 Q262 461 262 513 L264 530 L361 535 L360 502 Q360 444 344 411 Q328 378 290 339 L247 293 Q239 284 230 276 Q221 268 213 257.5 Q205 247 198.5 237 Q192 227 188 215.5 Q184 204 185 192 Q188 77 300 77 Z M370 690 Q370 663 352 647.5 Q334 632 312 631.5 Q290 631 272 646 Q254 661 254 688 Q254 717 272 733.5 Q290 750 312 750 Q334 750 352 734 Q370 718 370 690 Z " />
<glyph glyph-name="Agrave" unicode="&#xc0;" horiz-adv-x="695" d="M271 961 L411 814 L361 767 L209 888 L271 961 Z M329 731 L370 639 L653 1 L558 1 L472 183 L197 183 L116 1 L21 1 L299 656 L329 731 Z M434 266 L330 514 L233 266 L434 266 Z " />
<glyph glyph-name="Aacute" unicode="&#xc1;" horiz-adv-x="695" d="M371 961 L433 888 L281 767 L231 814 L371 961 Z M329 731 L370 639 L653 1 L558 1 L472 183 L197 183 L116 1 L21 1 L299 656 L329 731 Z M434 266 L330 514 L233 266 L434 266 Z " />
<glyph glyph-name="Acircumflex" unicode="&#xc2;" horiz-adv-x="674" d="M475 792 L388 792 L335 870 L276 792 L184 791 L336 996 L475 792 Z M329 731 L370 639 L653 1 L558 1 L472 183 L197 183 L116 1 L21 1 L299 656 L329 731 Z M434 266 L330 514 L233 266 L434 266 Z " />
<glyph glyph-name="Atilde" unicode="&#xc3;" horiz-adv-x="674" d="M349 851 Q356 837 370 835.5 Q384 834 393 844.5 Q402 855 395 869 Q395 869 395 870 Q395 870 394 871 L436 890 L436 889 Q446 865 441 844 Q436 823 418 811.5 Q400 800 379.5 796 Q359 792 339 801 Q319 810 309 831 L349 851 Z M309 831 Q302 845 288 846.5 Q274 848 265 837.5 Q256 827 263 813 Q263 813 263 812 Q263 812 264 811 L222 792 L222 793 Q212 817 217 838 Q222 859 240 870.5 Q258 882 278.5 886 Q299 890 319 881 Q339 872 349 851 L309 831 Z M329 731 L370 639 L653 1 L558 1 L472 183 L197 183 L116 1 L21 1 L299 656 L329 731 Z M434 266 L330 514 L233 266 L434 266 Z " />
<glyph glyph-name="Adieresis" unicode="&#xc4;" horiz-adv-x="695" d="M329 731 L370 639 L653 1 L558 1 L472 183 L197 183 L116 1 L21 1 L299 656 L329 731 Z M434 266 L330 514 L233 266 L434 266 Z M160 805 Q160 832 178 848 Q196 864 218 864 Q240 864 258 849 Q276 834 276 807 Q276 778 258 761.5 Q240 745 218 745 Q196 745 178 761 Q160 777 160 805 Z M408 800 Q408 827 426 843 Q444 859 466 859 Q488 859 506 844 Q524 829 524 802 Q524 773 506 756.5 Q488 740 466 740 Q444 740 426 756 Q408 772 408 800 Z " />
<glyph glyph-name="Aring" unicode="&#xc5;" horiz-adv-x="695" d="M305 802 Q305 786 317 779.5 Q329 773 341.5 779.5 Q354 786 354 803 Q354 818 341.5 824.5 Q329 831 317 824 Q305 817 305 802 Z M259 801 Q259 833 281 850.5 Q303 868 329 866 Q355 864 377 846 Q399 828 399 799 Q399 768 377 749.5 Q355 731 329 730 Q303 729 281 748 Q259 767 259 801 Z M329 731 L370 639 L653 1 L558 1 L472 183 L197 183 L116 1 L21 1 L299 656 L329 731 Z M434 266 L330 514 L233 266 L434 266 Z " />
<glyph glyph-name="Egrave" unicode="&#xc8;" horiz-adv-x="518" d="M197 961 L337 814 L287 767 L135 888 L197 961 Z M54 693 L420 693 L420 608 L146 608 L146 412 L342 412 L342 329 L146 329 L146 82 L429 82 L429 0 L54 0 L54 693 Z " />
<glyph glyph-name="Eacute" unicode="&#xc9;" horiz-adv-x="518" d="M295 961 L357 888 L205 767 L155 814 L295 961 Z M54 693 L420 693 L420 608 L146 608 L146 412 L342 412 L342 329 L146 329 L146 82 L429 82 L429 0 L54 0 L54 693 Z " />
<glyph glyph-name="Ecircumflex" unicode="&#xca;" horiz-adv-x="483" d="M383 768 L296 768 L243 846 L184 768 L92 767 L244 972 L383 768 Z M54 693 L420 693 L420 608 L146 608 L146 412 L342 412 L342 329 L146 329 L146 82 L429 82 L429 0 L54 0 L54 693 Z " />
<glyph glyph-name="Edieresis" unicode="&#xcb;" horiz-adv-x="483" d="M55 832 Q55 859 73 875 Q91 891 113 891 Q135 891 153 876 Q171 861 171 834 Q171 805 153 788.5 Q135 772 113 772 Q91 772 73 788 Q55 804 55 832 Z M303 827 Q303 854 321 870 Q339 886 361 886 Q383 886 401 871 Q419 856 419 829 Q419 800 401 783.5 Q383 767 361 767 Q339 767 321 783 Q303 799 303 827 Z M54 693 L420 693 L420 608 L146 608 L146 412 L342 412 L342 329 L146 329 L146 82 L429 82 L429 0 L54 0 L54 693 Z " />
<glyph glyph-name="Igrave" unicode="&#xcc;" horiz-adv-x="207" d="M18 961 L158 814 L108 767 L-44 888 L18 961 Z M58 696 L148 696 L149 1 L59 1 L58 696 Z " />
<glyph glyph-name="Iacute" unicode="&#xcd;" horiz-adv-x="207" d="M190 961 L252 888 L100 767 L50 814 L190 961 Z M58 696 L148 696 L149 1 L59 1 L58 696 Z " />
<glyph glyph-name="Icircumflex" unicode="&#xce;" horiz-adv-x="207" d="M248 768 L161 768 L108 846 L49 768 L-43 767 L109 972 L248 768 Z M58 696 L148 696 L149 1 L59 1 L58 696 Z " />
<glyph glyph-name="Idieresis" unicode="&#xcf;" horiz-adv-x="207" d="M58 832 Q58 859 76 875 Q94 891 116 891 Q138 891 156 876 Q174 861 174 834 Q174 805 156 788.5 Q138 772 116 772 Q94 772 76 788 Q58 804 58 832 Z M306 827 Q306 854 324 870 Q342 886 364 886 Q386 886 404 871 Q422 856 422 829 Q422 800 404 783.5 Q386 767 364 767 Q342 767 324 783 Q306 799 306 827 Z M195 696 L285 696 L286 1 L196 1 L195 696 Z " />
<glyph glyph-name="Ograve" unicode="&#xd2;" horiz-adv-x="752" d="M271 961 L411 814 L361 767 L209 888 L271 961 Z M354 627 Q296 627 249.5 603.5 Q203 580 175 541.5 Q147 503 132 454 Q117 405 118 354 Q119 303 136 253.5 Q153 204 183 166 Q213 128 261.5 104.5 Q310 81 370 81 Q431 81 482 104.5 Q533 128 564.5 166.5 Q596 205 613 254.5 Q630 304 630.5 355.5 Q631 407 613 456 Q595 505 562.5 543.5 Q530 582 476 605 Q422 628 354 627 Z M361 707 Q450 707 521.5 676 Q593 645 637 595 Q681 545 704.5 481 Q728 417 727.5 350.5 Q727 284 703.5 220.5 Q680 157 636.5 107.5 Q593 58 523 27.5 Q453 -3 368 -3 Q285 -3 218 27.5 Q151 58 110 108 Q69 158 47 221.5 Q25 285 25 352 Q25 419 46.5 482.5 Q68 546 108.5 596 Q149 646 214.5 676.5 Q280 707 361 707 Z " />
<glyph glyph-name="Oacute" unicode="&#xd3;" horiz-adv-x="752" d="M451 961 L513 888 L361 767 L311 814 L451 961 Z M354 627 Q296 627 249.5 603.5 Q203 580 175 541.5 Q147 503 132 454 Q117 405 118 354 Q119 303 136 253.5 Q153 204 183 166 Q213 128 261.5 104.5 Q310 81 370 81 Q431 81 482 104.5 Q533 128 564.5 166.5 Q596 205 613 254.5 Q630 304 630.5 355.5 Q631 407 613 456 Q595 505 562.5 543.5 Q530 582 476 605 Q422 628 354 627 Z M361 707 Q450 707 521.5 676 Q593 645 637 595 Q681 545 704.5 481 Q728 417 727.5 350.5 Q727 284 703.5 220.5 Q680 157 636.5 107.5 Q593 58 523 27.5 Q453 -3 368 -3 Q285 -3 218 27.5 Q151 58 110 108 Q69 158 47 221.5 Q25 285 25 352 Q25 419 46.5 482.5 Q68 546 108.5 596 Q149 646 214.5 676.5 Q280 707 361 707 Z " />
<glyph glyph-name="Ocircumflex" unicode="&#xd4;" horiz-adv-x="752" d="M507 768 L420 768 L367 846 L308 768 L216 767 L368 972 L507 768 Z M354 627 Q296 627 249.5 603.5 Q203 580 175 541.5 Q147 503 132 454 Q117 405 118 354 Q119 303 136 253.5 Q153 204 183 166 Q213 128 261.5 104.5 Q310 81 370 81 Q431 81 482 104.5 Q533 128 564.5 166.5 Q596 205 613 254.5 Q630 304 630.5 355.5 Q631 407 613 456 Q595 505 562.5 543.5 Q530 582 476 605 Q422 628 354 627 Z M361 707 Q450 707 521.5 676 Q593 645 637 595 Q681 545 704.5 481 Q728 417 727.5 350.5 Q727 284 703.5 220.5 Q680 157 636.5 107.5 Q593 58 523 27.5 Q453 -3 368 -3 Q285 -3 218 27.5 Q151 58 110 108 Q69 158 47 221.5 Q25 285 25 352 Q25 419 46.5 482.5 Q68 546 108.5 596 Q149 646 214.5 676.5 Q280 707 361 707 Z " />
<glyph glyph-name="Otilde" unicode="&#xd5;" horiz-adv-x="752" d="M381 827 Q388 813 402 811.5 Q416 810 425 820.5 Q434 831 427 845 Q427 845 427 846 Q427 846 426 847 L468 866 L468 865 Q478 841 473 820 Q468 799 450 787.5 Q432 776 411.5 772 Q391 768 371 777 Q351 786 341 807 L381 827 Z M341 807 Q334 821 320 822.5 Q306 824 297 813.5 Q288 803 295 789 Q295 789 295 788 Q295 788 296 787 L254 768 L254 769 Q244 793 249 814 Q254 835 272 846.5 Q290 858 310.5 862 Q331 866 351 857 Q371 848 381 827 L341 807 Z M354 627 Q296 627 249.5 603.5 Q203 580 175 541.5 Q147 503 132 454 Q117 405 118 354 Q119 303 136 253.5 Q153 204 183 166 Q213 128 261.5 104.5 Q310 81 370 81 Q431 81 482 104.5 Q533 128 564.5 166.5 Q596 205 613 254.5 Q630 304 630.5 355.5 Q631 407 613 456 Q595 505 562.5 543.5 Q530 582 476 605 Q422 628 354 627 Z M361 707 Q450 707 521.5 676 Q593 645 637 595 Q681 545 704.5 481 Q728 417 727.5 350.5 Q727 284 703.5 220.5 Q680 157 636.5 107.5 Q593 58 523 27.5 Q453 -3 368 -3 Q285 -3 218 27.5 Q151 58 110 108 Q69 158 47 221.5 Q25 285 25 352 Q25 419 46.5 482.5 Q68 546 108.5 596 Q149 646 214.5 676.5 Q280 707 361 707 Z " />
<glyph glyph-name="Odieresis" unicode="&#xd6;" horiz-adv-x="812" d="M354 627 Q296 627 249.5 603.5 Q203 580 175 541.5 Q147 503 132 454 Q117 405 118 354 Q119 303 136 253.5 Q153 204 183 166 Q213 128 261.5 104.5 Q310 81 370 81 Q431 81 482 104.5 Q533 128 564.5 166.5 Q596 205 613 254.5 Q630 304 630.5 355.5 Q631 407 613 456 Q595 505 562.5 543.5 Q530 582 476 605 Q422 628 354 627 Z M361 707 Q450 707 521.5 676 Q593 645 637 595 Q681 545 704.5 481 Q728 417 727.5 350.5 Q727 284 703.5 220.5 Q680 157 636.5 107.5 Q593 58 523 27.5 Q453 -3 368 -3 Q285 -3 218 27.5 Q151 58 110 108 Q69 158 47 221.5 Q25 285 25 352 Q25 419 46.5 482.5 Q68 546 108.5 596 Q149 646 214.5 676.5 Q280 707 361 707 Z M186 805 Q186 832 204 848 Q222 864 244 864 Q266 864 284 849 Q302 834 302 807 Q302 778 284 761.5 Q266 745 244 745 Q222 745 204 761 Q186 777 186 805 Z M434 800 Q434 827 452 843 Q470 859 492 859 Q514 859 532 844 Q550 829 550 802 Q550 773 532 756.5 Q514 740 492 740 Q470 740 452 756 Q434 772 434 800 Z " />
<glyph glyph-name="multiply" unicode="&#xd7;" horiz-adv-x="495" d="M405 457 L309 360 L419 251 L355 187 L245 296 L147 196 L83 260 L184 361 L79 461 L143 525 L245 423 L341 521 L405 457 Z " />
<glyph glyph-name="Ugrave" unicode="&#xd9;" horiz-adv-x="592" d="M145 685 L147 266 Q147 224 159.5 189 Q172 154 192.5 132.5 Q213 111 239.5 99.5 Q266 88 293.5 88 Q321 88 347.5 100 Q374 112 395 133.5 Q416 155 429 190.5 Q442 226 443 270 L445 268 L444 682 L535 682 L539 265 Q540 200 519 148.5 Q498 97 463.5 65.5 Q429 34 384.5 17.5 Q340 1 293.5 2 Q247 3 203 20.5 Q159 38 125 69.5 Q91 101 71.5 152 Q52 203 54 264 L52 683 L145 685 Z M210 961 L350 814 L300 767 L148 888 L210 961 Z " />
<glyph glyph-name="Uacute" unicode="&#xda;" horiz-adv-x="592" d="M145 685 L147 266 Q147 224 159.5 189 Q172 154 192.5 132.5 Q213 111 239.5 99.5 Q266 88 293.5 88 Q321 88 347.5 100 Q374 112 395 133.5 Q416 155 429 190.5 Q442 226 443 270 L445 268 L444 682 L535 682 L539 265 Q540 200 519 148.5 Q498 97 463.5 65.5 Q429 34 384.5 17.5 Q340 1 293.5 2 Q247 3 203 20.5 Q159 38 125 69.5 Q91 101 71.5 152 Q52 203 54 264 L52 683 L145 685 Z M395 961 L457 888 L305 767 L255 814 L395 961 Z " />
<glyph glyph-name="Ucircumflex" unicode="&#xdb;" horiz-adv-x="592" d="M145 685 L147 266 Q147 224 159.5 189 Q172 154 192.5 132.5 Q213 111 239.5 99.5 Q266 88 293.5 88 Q321 88 347.5 100 Q374 112 395 133.5 Q416 155 429 190.5 Q442 226 443 270 L445 268 L444 682 L535 682 L539 265 Q540 200 519 148.5 Q498 97 463.5 65.5 Q429 34 384.5 17.5 Q340 1 293.5 2 Q247 3 203 20.5 Q159 38 125 69.5 Q91 101 71.5 152 Q52 203 54 264 L52 683 L145 685 Z M443 768 L356 768 L303 846 L244 768 L152 767 L304 972 L443 768 Z " />
<glyph glyph-name="Udieresis" unicode="&#xdc;" horiz-adv-x="592" d="M145 685 L147 266 Q147 224 159.5 189 Q172 154 192.5 132.5 Q213 111 239.5 99.5 Q266 88 293.5 88 Q321 88 347.5 100 Q374 112 395 133.5 Q416 155 429 190.5 Q442 226 443 270 L445 268 L444 682 L535 682 L539 265 Q540 200 519 148.5 Q498 97 463.5 65.5 Q429 34 384.5 17.5 Q340 1 293.5 2 Q247 3 203 20.5 Q159 38 125 69.5 Q91 101 71.5 152 Q52 203 54 264 L52 683 L145 685 Z M120 805 Q120 832 138 848 Q156 864 178 864 Q200 864 218 849 Q236 834 236 807 Q236 778 218 761.5 Q200 745 178 745 Q156 745 138 761 Q120 777 120 805 Z M368 800 Q368 827 386 843 Q404 859 426 859 Q448 859 466 844 Q484 829 484 802 Q484 773 466 756.5 Q448 740 426 740 Q404 740 386 756 Q368 772 368 800 Z " />
<glyph glyph-name="germandbls" unicode="&#xdf;" horiz-adv-x="517" d="M130 0 L93 0 L93 1 L44 0 L44 688 L244 688 L247 686 Q292 687 328 669.5 Q364 652 384.5 624 Q405 596 413.5 560.5 Q422 525 416.5 492 Q411 459 389.5 430 Q368 401 333 386 Q332 386 332 384.5 Q332 383 333 383 Q379 381 412.5 351.5 Q446 322 460.5 279 Q475 236 471.5 186.5 Q468 137 446.5 95 Q425 53 379 26 Q333 -1 271 1 L261 0 L169 0 L169 95 L284 95 Q323 95 348 119 Q373 143 377 178 Q381 213 372.5 247.5 Q364 282 337 307 Q310 332 273 333 L273 334 L169 334 L169 404 Q183 404 211.5 405.5 Q240 407 243 407 Q279 412 302 434.5 Q325 457 329 486.5 Q333 516 325 545 Q317 574 291 594 Q265 614 228 615 L228 616 L131 616 L130 0 Z " />
<glyph glyph-name="agrave" unicode="&#xe0;" horiz-adv-x="509" d="M204 686 L344 539 L294 492 L142 613 L204 686 Z M33 207 Q33 263 52 308 Q71 353 103 380 Q135 407 175 421 Q215 435 257.5 432.5 Q300 430 337 413 Q360 403 370 387 L370 427 L463 427 L462 0 L371 0 L371 31 Q334 6 288.5 -3 Q243 -12 199 -2 Q155 8 118 32.5 Q81 57 57.5 102.5 Q34 148 33 207 Z M119 210 Q119 165 140.5 131.5 Q162 98 195 86 Q228 74 262.5 74.5 Q297 75 326 97.5 Q355 120 365 157 Q369 172 368 212.5 Q367 253 365 266 Q356 300 334 321.5 Q312 343 284.5 350 Q257 357 227.5 351.5 Q198 346 174 328.5 Q150 311 134.5 280 Q119 249 119 210 Z " />
<glyph glyph-name="aacute" unicode="&#xe1;" horiz-adv-x="509" d="M336 688 L398 615 L246 494 L196 541 L336 688 Z M33 207 Q33 263 52 308 Q71 353 103 380 Q135 407 175 421 Q215 435 257.5 432.5 Q300 430 337 413 Q360 403 370 387 L370 427 L463 427 L462 0 L371 0 L371 31 Q334 6 288.5 -3 Q243 -12 199 -2 Q155 8 118 32.5 Q81 57 57.5 102.5 Q34 148 33 207 Z M119 210 Q119 165 140.5 131.5 Q162 98 195 86 Q228 74 262.5 74.5 Q297 75 326 97.5 Q355 120 365 157 Q369 172 368 212.5 Q367 253 365 266 Q356 300 334 321.5 Q312 343 284.5 350 Q257 357 227.5 351.5 Q198 346 174 328.5 Q150 311 134.5 280 Q119 249 119 210 Z " />
<glyph glyph-name="acircumflex" unicode="&#xe2;" horiz-adv-x="509" d="M392 495 L305 495 L252 573 L193 495 L101 494 L253 699 L392 495 Z M33 207 Q33 263 52 308 Q71 353 103 380 Q135 407 175 421 Q215 435 257.5 432.5 Q300 430 337 413 Q360 403 370 387 L370 427 L463 427 L462 0 L371 0 L371 31 Q334 6 288.5 -3 Q243 -12 199 -2 Q155 8 118 32.5 Q81 57 57.5 102.5 Q34 148 33 207 Z M119 210 Q119 165 140.5 131.5 Q162 98 195 86 Q228 74 262.5 74.5 Q297 75 326 97.5 Q355 120 365 157 Q369 172 368 212.5 Q367 253 365 266 Q356 300 334 321.5 Q312 343 284.5 350 Q257 357 227.5 351.5 Q198 346 174 328.5 Q150 311 134.5 280 Q119 249 119 210 Z " />
<glyph glyph-name="atilde" unicode="&#xe3;" horiz-adv-x="509" d="M266 554 Q273 540 287 538.5 Q301 537 310 547.5 Q319 558 312 572 Q312 572 312 573 Q312 573 311 574 L353 593 L353 592 Q363 568 358 547 Q353 526 335 514.5 Q317 503 296.5 499 Q276 495 256 504 Q236 513 226 534 L266 554 Z M226 534 Q219 548 205 549.5 Q191 551 182 540.5 Q173 530 180 516 Q180 516 180 515 Q180 515 181 514 L139 495 L139 496 Q129 520 134 541 Q139 562 157 573.5 Q175 585 195.5 589 Q216 593 236 584 Q256 575 266 554 L226 534 Z M33 207 Q33 263 52 308 Q71 353 103 380 Q135 407 175 421 Q215 435 257.5 432.5 Q300 430 337 413 Q360 403 370 387 L370 427 L463 427 L462 0 L371 0 L371 31 Q334 6 288.5 -3 Q243 -12 199 -2 Q155 8 118 32.5 Q81 57 57.5 102.5 Q34 148 33 207 Z M119 210 Q119 165 140.5 131.5 Q162 98 195 86 Q228 74 262.5 74.5 Q297 75 326 97.5 Q355 120 365 157 Q369 172 368 212.5 Q367 253 365 266 Q356 300 334 321.5 Q312 343 284.5 350 Q257 357 227.5 351.5 Q198 346 174 328.5 Q150 311 134.5 280 Q119 249 119 210 Z " />
<glyph glyph-name="adieresis" unicode="&#xe4;" horiz-adv-x="496" d="M33 207 Q33 263 52 308 Q71 353 103 380 Q135 407 175 421 Q215 435 257.5 432.5 Q300 430 337 413 Q360 403 370 387 L370 427 L463 427 L462 0 L371 0 L371 31 Q334 6 288.5 -3 Q243 -12 199 -2 Q155 8 118 32.5 Q81 57 57.5 102.5 Q34 148 33 207 Z M119 210 Q119 165 140.5 131.5 Q162 98 195 86 Q228 74 262.5 74.5 Q297 75 326 97.5 Q355 120 365 157 Q369 172 368 212.5 Q367 253 365 266 Q356 300 334 321.5 Q312 343 284.5 350 Q257 357 227.5 351.5 Q198 346 174 328.5 Q150 311 134.5 280 Q119 249 119 210 Z M81 573 Q81 600 99 616 Q117 632 139 632 Q161 632 179 617 Q197 602 197 575 Q197 546 179 529.5 Q161 513 139 513 Q117 513 99 529 Q81 545 81 573 Z M329 568 Q329 595 347 611 Q365 627 387 627 Q409 627 427 612 Q445 597 445 570 Q445 541 427 524.5 Q409 508 387 508 Q365 508 347 524 Q329 540 329 568 Z " />
<glyph glyph-name="aring" unicode="&#xe5;" horiz-adv-x="496" d="M232 582 Q232 566 244 559.5 Q256 553 268.5 559.5 Q281 566 281 583 Q281 598 268.5 604.5 Q256 611 244 604 Q232 597 232 582 Z M186 581 Q186 613 208 630.5 Q230 648 256 646 Q282 644 304 626 Q326 608 326 579 Q326 548 304 529.5 Q282 511 256 510 Q230 509 208 528 Q186 547 186 581 Z M33 207 Q33 263 52 308 Q71 353 103 380 Q135 407 175 421 Q215 435 257.5 432.5 Q300 430 337 413 Q360 403 370 387 L370 427 L463 427 L462 0 L371 0 L371 31 Q334 6 288.5 -3 Q243 -12 199 -2 Q155 8 118 32.5 Q81 57 57.5 102.5 Q34 148 33 207 Z M119 210 Q119 165 140.5 131.5 Q162 98 195 86 Q228 74 262.5 74.5 Q297 75 326 97.5 Q355 120 365 157 Q369 172 368 212.5 Q367 253 365 266 Q356 300 334 321.5 Q312 343 284.5 350 Q257 357 227.5 351.5 Q198 346 174 328.5 Q150 311 134.5 280 Q119 249 119 210 Z " />
<glyph glyph-name="egrave" unicode="&#xe8;" horiz-adv-x="470" d="M160 688 L300 541 L250 494 L98 615 L160 688 Z M452 81 Q424 45 370 20 Q341 6 298 1 Q278 -1 258 -1 Q231 -1 207 3 Q151 14 111 46.5 Q71 79 53 122 Q35 165 35.5 214 Q36 263 54.5 306.5 Q73 350 113.5 383.5 Q154 417 208 428 Q235 433 264 433 Q291 433 314 429 Q374 417 410.5 377 Q447 337 457 286.5 Q467 236 457 180 L132 179 Q144 137 172.5 115 Q201 93 262 88 Q274 86 289.5 87.5 Q305 89 331 98.5 Q357 108 376 126 L377 127 L452 82 L452 81 Z M373 252 Q364 356 263 356 Q207 356 173 324 Q139 292 134 251 L373 252 Z " />
<glyph glyph-name="eacute" unicode="&#xe9;" horiz-adv-x="470" d="M339 688 L401 615 L249 494 L199 541 L339 688 Z M452 81 Q424 45 370 20 Q341 6 298 1 Q278 -1 258 -1 Q231 -1 207 3 Q151 14 111 46.5 Q71 79 53 122 Q35 165 35.5 214 Q36 263 54.5 306.5 Q73 350 113.5 383.5 Q154 417 208 428 Q235 433 264 433 Q291 433 314 429 Q374 417 410.5 377 Q447 337 457 286.5 Q467 236 457 180 L132 179 Q144 137 172.5 115 Q201 93 262 88 Q274 86 289.5 87.5 Q305 89 331 98.5 Q357 108 376 126 L377 127 L452 82 L452 81 Z M373 252 Q364 356 263 356 Q207 356 173 324 Q139 292 134 251 L373 252 Z " />
<glyph glyph-name="ecircumflex" unicode="&#xea;" horiz-adv-x="500" d="M410 495 L323 495 L270 573 L211 495 L119 494 L271 699 L410 495 Z M452 81 Q424 45 370 20 Q341 6 298 1 Q278 -1 258 -1 Q231 -1 207 3 Q151 14 111 46.5 Q71 79 53 122 Q35 165 35.5 214 Q36 263 54.5 306.5 Q73 350 113.5 383.5 Q154 417 208 428 Q235 433 264 433 Q291 433 314 429 Q374 417 410.5 377 Q447 337 457 286.5 Q467 236 457 180 L132 179 Q144 137 172.5 115 Q201 93 262 88 Q274 86 289.5 87.5 Q305 89 331 98.5 Q357 108 376 126 L377 127 L452 82 L452 81 Z M373 252 Q364 356 263 356 Q207 356 173 324 Q139 292 134 251 L373 252 Z " />
<glyph glyph-name="edieresis" unicode="&#xeb;" horiz-adv-x="500" d="M83 559 Q83 586 101 602 Q119 618 141 618 Q163 618 181 603 Q199 588 199 561 Q199 532 181 515.5 Q163 499 141 499 Q119 499 101 515 Q83 531 83 559 Z M331 554 Q331 581 349 597 Q367 613 389 613 Q411 613 429 598 Q447 583 447 556 Q447 527 429 510.5 Q411 494 389 494 Q367 494 349 510 Q331 526 331 554 Z M452 81 Q424 45 370 20 Q341 6 298 1 Q278 -1 258 -1 Q231 -1 207 3 Q151 14 111 46.5 Q71 79 53 122 Q35 165 35.5 214 Q36 263 54.5 306.5 Q73 350 113.5 383.5 Q154 417 208 428 Q235 433 264 433 Q291 433 314 429 Q374 417 410.5 377 Q447 337 457 286.5 Q467 236 457 180 L132 179 Q144 137 172.5 115 Q201 93 262 88 Q274 86 289.5 87.5 Q305 89 331 98.5 Q357 108 376 126 L377 127 L452 82 L452 81 Z M373 252 Q364 356 263 356 Q207 356 173 324 Q139 292 134 251 L373 252 Z " />
<glyph glyph-name="igrave" unicode="&#xec;" horiz-adv-x="207" d="M15 688 L155 541 L105 494 L-47 615 L15 688 Z M59 433 L151 433 L151 -2 L61 -2 L59 433 Z " />
<glyph glyph-name="iacute" unicode="&#xed;" horiz-adv-x="207" d="M195 688 L257 615 L105 494 L55 541 L195 688 Z M59 433 L151 433 L151 -2 L61 -2 L59 433 Z " />
<glyph glyph-name="icircumflex" unicode="&#xee;" horiz-adv-x="207" d="M250 495 L163 495 L110 573 L51 495 L-41 494 L111 699 L250 495 Z M59 433 L151 433 L151 -2 L61 -2 L59 433 Z " />
<glyph glyph-name="idieresis" unicode="&#xef;" horiz-adv-x="207" d="M59 559 Q59 586 77 602 Q95 618 117 618 Q139 618 157 603 Q175 588 175 561 Q175 532 157 515.5 Q139 499 117 499 Q95 499 77 515 Q59 531 59 559 Z M307 554 Q307 581 325 597 Q343 613 365 613 Q387 613 405 598 Q423 583 423 556 Q423 527 405 510.5 Q387 494 365 494 Q343 494 325 510 Q307 526 307 554 Z M195 433 L287 433 L287 -2 L197 -2 L195 433 Z " />
<glyph glyph-name="ograve" unicode="&#xf2;" horiz-adv-x="499" d="M160 688 L300 541 L250 494 L98 615 L160 688 Z M248 362 Q205 362 173 341 Q141 320 126.5 289.5 Q112 259 111.5 223 Q111 187 125 156 Q139 125 170.5 104.5 Q202 84 245 84 Q311 84 350 127 Q376 156 383 196.5 Q390 237 378.5 273.5 Q367 310 332.5 336 Q298 362 248 362 Z M249 434 Q321 434 373 402 Q425 370 448 322 Q471 274 470.5 217.5 Q470 161 446 112.5 Q422 64 369 32 Q316 0 245 0 Q173 0 120 32 Q67 64 44 112.5 Q21 161 22 217.5 Q23 274 47.5 322 Q72 370 125 402 Q178 434 249 434 Z " />
<glyph glyph-name="oacute" unicode="&#xf3;" horiz-adv-x="499" d="M339 688 L401 615 L249 494 L199 541 L339 688 Z M248 362 Q205 362 173 341 Q141 320 126.5 289.5 Q112 259 111.5 223 Q111 187 125 156 Q139 125 170.5 104.5 Q202 84 245 84 Q311 84 350 127 Q376 156 383 196.5 Q390 237 378.5 273.5 Q367 310 332.5 336 Q298 362 248 362 Z M249 434 Q321 434 373 402 Q425 370 448 322 Q471 274 470.5 217.5 Q470 161 446 112.5 Q422 64 369 32 Q316 0 245 0 Q173 0 120 32 Q67 64 44 112.5 Q21 161 22 217.5 Q23 274 47.5 322 Q72 370 125 402 Q178 434 249 434 Z " />
<glyph glyph-name="ocircumflex" unicode="&#xf4;" horiz-adv-x="499" d="M395 495 L308 495 L255 573 L196 495 L104 494 L256 699 L395 495 Z M248 362 Q205 362 173 341 Q141 320 126.5 289.5 Q112 259 111.5 223 Q111 187 125 156 Q139 125 170.5 104.5 Q202 84 245 84 Q311 84 350 127 Q376 156 383 196.5 Q390 237 378.5 273.5 Q367 310 332.5 336 Q298 362 248 362 Z M249 434 Q321 434 373 402 Q425 370 448 322 Q471 274 470.5 217.5 Q470 161 446 112.5 Q422 64 369 32 Q316 0 245 0 Q173 0 120 32 Q67 64 44 112.5 Q21 161 22 217.5 Q23 274 47.5 322 Q72 370 125 402 Q178 434 249 434 Z " />
<glyph glyph-name="otilde" unicode="&#xf5;" horiz-adv-x="499" d="M266 554 Q273 540 287 538.5 Q301 537 310 547.5 Q319 558 312 572 Q312 572 312 573 Q312 573 311 574 L353 593 L353 592 Q363 568 358 547 Q353 526 335 514.5 Q317 503 296.5 499 Q276 495 256 504 Q236 513 226 534 L266 554 Z M226 534 Q219 548 205 549.5 Q191 551 182 540.5 Q173 530 180 516 Q180 516 180 515 Q180 515 181 514 L139 495 L139 496 Q129 520 134 541 Q139 562 157 573.5 Q175 585 195.5 589 Q216 593 236 584 Q256 575 266 554 L226 534 Z M248 362 Q205 362 173 341 Q141 320 126.5 289.5 Q112 259 111.5 223 Q111 187 125 156 Q139 125 170.5 104.5 Q202 84 245 84 Q311 84 350 127 Q376 156 383 196.5 Q390 237 378.5 273.5 Q367 310 332.5 336 Q298 362 248 362 Z M249 434 Q321 434 373 402 Q425 370 448 322 Q471 274 470.5 217.5 Q470 161 446 112.5 Q422 64 369 32 Q316 0 245 0 Q173 0 120 32 Q67 64 44 112.5 Q21 161 22 217.5 Q23 274 47.5 322 Q72 370 125 402 Q178 434 249 434 Z " />
<glyph glyph-name="odieresis" unicode="&#xf6;" horiz-adv-x="567" d="M248 362 Q205 362 173 341 Q141 320 126.5 289.5 Q112 259 111.5 223 Q111 187 125 156 Q139 125 170.5 104.5 Q202 84 245 84 Q311 84 350 127 Q376 156 383 196.5 Q390 237 378.5 273.5 Q367 310 332.5 336 Q298 362 248 362 Z M249 434 Q321 434 373 402 Q425 370 448 322 Q471 274 470.5 217.5 Q470 161 446 112.5 Q422 64 369 32 Q316 0 245 0 Q173 0 120 32 Q67 64 44 112.5 Q21 161 22 217.5 Q23 274 47.5 322 Q72 370 125 402 Q178 434 249 434 Z M74 574 Q74 601 92 617 Q110 633 132 633 Q154 633 172 618 Q190 603 190 576 Q190 547 172 530.5 Q154 514 132 514 Q110 514 92 530 Q74 546 74 574 Z M322 569 Q322 596 340 612 Q358 628 380 628 Q402 628 420 613 Q438 598 438 571 Q438 542 420 525.5 Q402 509 380 509 Q358 509 340 525 Q322 541 322 569 Z " />
<glyph glyph-name="ugrave" unicode="&#xf9;" horiz-adv-x="472" d="M41 199 Q41 269 41.5 308 Q42 347 42 356.5 Q42 366 42 384 Q42 402 42 429 L136 429 Q136 191 136 190 Q136 151 149.5 126.5 Q163 102 183.5 94.5 Q204 87 227.5 92.5 Q251 98 271.5 114 Q292 130 306 157 Q320 184 320 216 L319 429 L410 429 L411 0 L318 0 L316 64 Q308 59 291 40 Q274 21 264 16 Q232 0 198 0 Q111 0 76 51.5 Q41 103 41 199 Z M137 688 L277 541 L227 494 L75 615 L137 688 Z " />
<glyph glyph-name="uacute" unicode="&#xfa;" horiz-adv-x="472" d="M41 199 Q41 269 41.5 308 Q42 347 42 356.5 Q42 366 42 384 Q42 402 42 429 L136 429 Q136 191 136 190 Q136 151 149.5 126.5 Q163 102 183.5 94.5 Q204 87 227.5 92.5 Q251 98 271.5 114 Q292 130 306 157 Q320 184 320 216 L319 429 L410 429 L411 0 L318 0 L316 64 Q308 59 291 40 Q274 21 264 16 Q232 0 198 0 Q111 0 76 51.5 Q41 103 41 199 Z M320 688 L382 615 L230 494 L180 541 L320 688 Z " />
<glyph glyph-name="ucircumflex" unicode="&#xfb;" horiz-adv-x="472" d="M41 199 Q41 269 41.5 308 Q42 347 42 356.5 Q42 366 42 384 Q42 402 42 429 L136 429 Q136 191 136 190 Q136 151 149.5 126.5 Q163 102 183.5 94.5 Q204 87 227.5 92.5 Q251 98 271.5 114 Q292 130 306 157 Q320 184 320 216 L319 429 L410 429 L411 0 L318 0 L316 64 Q308 59 291 40 Q274 21 264 16 Q232 0 198 0 Q111 0 76 51.5 Q41 103 41 199 Z M374 495 L287 495 L234 573 L175 495 L83 494 L235 699 L374 495 Z " />
<glyph glyph-name="udieresis" unicode="&#xfc;" horiz-adv-x="472" d="M43 562 Q43 589 61 605 Q79 621 101 621 Q123 621 141 606 Q159 591 159 564 Q159 535 141 518.5 Q123 502 101 502 Q79 502 61 518 Q43 534 43 562 Z M291 557 Q291 584 309 600 Q327 616 349 616 Q371 616 389 601 Q407 586 407 559 Q407 530 389 513.5 Q371 497 349 497 Q327 497 309 513 Q291 529 291 557 Z M41 199 Q41 269 41.5 308 Q42 347 42 356.5 Q42 366 42 384 Q42 402 42 429 L136 429 Q136 191 136 190 Q136 151 149.5 126.5 Q163 102 183.5 94.5 Q204 87 227.5 92.5 Q251 98 271.5 114 Q292 130 306 157 Q320 184 320 216 L319 429 L410 429 L411 0 L318 0 L316 64 Q308 59 291 40 Q274 21 264 16 Q232 0 198 0 Q111 0 76 51.5 Q41 103 41 199 Z " />
<glyph glyph-name="yacute" unicode="&#xfd;" horiz-adv-x="462" d="" />
<glyph glyph-name="Ccircumflex" unicode="&#x108;" horiz-adv-x="694" d="M562 768 L475 768 L422 846 L363 768 L271 767 L423 972 L562 768 Z M430 702 Q518 699 579 671 Q602 660 611.5 653.5 Q621 647 642 629 L571 566 Q557 584 510 599.5 Q463 615 429 616 Q348 619 271.5 571.5 Q195 524 159 447 Q111 344 148.5 245 Q186 146 290 98 Q341 74 397 73 Q453 72 502.5 90 Q552 108 598 142 L658 75 Q614 35 553 12.5 Q492 -10 434 -13.5 Q376 -17 324.5 -9.5 Q273 -2 240 15 Q101 87 55 215.5 Q9 344 75 485 Q124 590 221 648.5 Q318 707 430 702 Z " />
<glyph glyph-name="ccircumflex" unicode="&#x109;" horiz-adv-x="421" d="M403 495 L316 495 L263 573 L204 495 L112 494 L264 699 L403 495 Z M283 430 Q337 424 373 404 Q388 396 386 397 Q384 398 393 391 L343 313 Q336 323 313.5 332 Q291 341 275 343 Q234 347 196.5 330 Q159 313 140 277 Q112 227 123.5 181 Q135 135 183 107 Q211 91 243 90 Q290 87 326 107 Q339 113 345 118 L390 40 Q344 -1 249 0 Q175 0 136 24 Q54 73 31.5 153.5 Q9 234 55 317 Q89 378 151.5 407.5 Q214 437 283 430 Z " />
<glyph glyph-name="Cdotaccent" unicode="&#x10a;" horiz-adv-x="694" d="M358 827 Q358 854 376 869.5 Q394 885 416 885.5 Q438 886 456 871 Q474 856 474 829 Q474 800 456 783.5 Q438 767 416 767 Q394 767 376 783 Q358 799 358 827 Z M430 702 Q518 699 579 671 Q602 660 611.5 653.5 Q621 647 642 629 L571 566 Q557 584 510 599.5 Q463 615 429 616 Q348 619 271.5 571.5 Q195 524 159 447 Q111 344 148.5 245 Q186 146 290 98 Q341 74 397 73 Q453 72 502.5 90 Q552 108 598 142 L658 75 Q614 35 553 12.5 Q492 -10 434 -13.5 Q376 -17 324.5 -9.5 Q273 -2 240 15 Q101 87 55 215.5 Q9 344 75 485 Q124 590 221 648.5 Q318 707 430 702 Z " />
<glyph glyph-name="cdotaccent" unicode="&#x10b;" horiz-adv-x="421" d="M199 554 Q199 581 217 596.5 Q235 612 257 612.5 Q279 613 297 598 Q315 583 315 556 Q315 527 297 510.5 Q279 494 257 494 Q235 494 217 510 Q199 526 199 554 Z M283 430 Q337 424 373 404 Q388 396 386 397 Q384 398 393 391 L343 313 Q336 323 313.5 332 Q291 341 275 343 Q234 347 196.5 330 Q159 313 140 277 Q112 227 123.5 181 Q135 135 183 107 Q211 91 243 90 Q290 87 326 107 Q339 113 345 118 L390 40 Q344 -1 249 0 Q175 0 136 24 Q54 73 31.5 153.5 Q9 234 55 317 Q89 378 151.5 407.5 Q214 437 283 430 Z " />
<glyph glyph-name="Edotaccent" unicode="&#x116;" horiz-adv-x="483" d="M179 827 Q179 854 197 869.5 Q215 885 237 885.5 Q259 886 277 871 Q295 856 295 829 Q295 800 277 783.5 Q259 767 237 767 Q215 767 197 783 Q179 799 179 827 Z M54 693 L420 693 L420 608 L146 608 L146 412 L342 412 L342 329 L146 329 L146 82 L429 82 L429 0 L54 0 L54 693 Z " />
<glyph glyph-name="edotaccent" unicode="&#x117;" horiz-adv-x="500" d="M207 554 Q207 581 225 596.5 Q243 612 265 612.5 Q287 613 305 598 Q323 583 323 556 Q323 527 305 510.5 Q287 494 265 494 Q243 494 225 510 Q207 526 207 554 Z M452 81 Q424 45 370 20 Q341 6 298 1 Q278 -1 258 -1 Q231 -1 207 3 Q151 14 111 46.5 Q71 79 53 122 Q35 165 35.5 214 Q36 263 54.5 306.5 Q73 350 113.5 383.5 Q154 417 208 428 Q235 433 264 433 Q291 433 314 429 Q374 417 410.5 377 Q447 337 457 286.5 Q467 236 457 180 L132 179 Q144 137 172.5 115 Q201 93 262 88 Q274 86 289.5 87.5 Q305 89 331 98.5 Q357 108 376 126 L377 127 L452 82 L452 81 Z M373 252 Q364 356 263 356 Q207 356 173 324 Q139 292 134 251 L373 252 Z " />
<glyph glyph-name="Gcircumflex" unicode="&#x11c;" horiz-adv-x="704" d="M555 781 L468 781 L415 859 L356 781 L264 780 L416 985 L555 781 Z M673 365 L672 116 Q672 100 654 91 Q610 50 549 27 Q488 4 429 -0.5 Q370 -5 318.5 2 Q267 9 234 26 Q143 74 91.5 147 Q40 220 32.5 297 Q25 374 50 452 Q75 530 126.5 590.5 Q178 651 256.5 687 Q335 723 424 720 Q512 717 573 688 Q596 677 605.5 670.5 Q615 664 636 646 L565 582 Q552 601 504.5 616 Q457 631 423 633 Q342 636 265.5 588 Q189 540 153 463 Q105 358 142.5 258.5 Q180 159 284 109 Q333 86 386.5 85 Q440 84 488 101 Q536 118 581 149 L585 290 L447 290 L448 364 L673 365 Z " />
<glyph glyph-name="gcircumflex" unicode="&#x11d;" horiz-adv-x="476" d="M380 495 L293 495 L240 573 L181 495 L89 494 L241 699 L380 495 Z M118 224 Q118 185 138.5 154.5 Q159 124 189 111 Q219 98 250.5 98 Q282 98 308 119.5 Q334 141 343 179 Q343 189 344 214.5 Q345 240 344 252 Q344 285 327.5 308 Q311 331 286 340 Q261 349 231.5 346.5 Q202 344 177 330.5 Q152 317 135 289 Q118 261 118 224 Z M441 6 Q441 -102 356 -164 Q308 -197 242 -198.5 Q176 -200 124 -172 Q94 -156 87.5 -152.5 Q81 -149 71 -140 L107 -69 Q109 -70 165 -99 Q189 -111 218 -113 Q247 -115 273.5 -107 Q300 -99 322 -79 Q344 -59 352 -30 L351 0 L352 59 Q330 36 297.5 25 Q265 14 230 15 Q195 16 160 30 Q125 44 97 67.5 Q69 91 51.5 129.5 Q34 168 33 214 Q33 264 50 306.5 Q67 349 96.5 375.5 Q126 402 162.5 417 Q199 432 239.5 431 Q280 430 317 413 Q340 403 350 387 L349 427 L443 427 L441 6 Z " />
<glyph glyph-name="Gdotaccent" unicode="&#x120;" horiz-adv-x="704" d="M352 840 Q352 867 370 882.5 Q388 898 410 898.5 Q432 899 450 884 Q468 869 468 842 Q468 813 450 796.5 Q432 780 410 780 Q388 780 370 796 Q352 812 352 840 Z M673 365 L672 116 Q672 100 654 91 Q610 50 549 27 Q488 4 429 -0.5 Q370 -5 318.5 2 Q267 9 234 26 Q143 74 91.5 147 Q40 220 32.5 297 Q25 374 50 452 Q75 530 126.5 590.5 Q178 651 256.5 687 Q335 723 424 720 Q512 717 573 688 Q596 677 605.5 670.5 Q615 664 636 646 L565 582 Q552 601 504.5 616 Q457 631 423 633 Q342 636 265.5 588 Q189 540 153 463 Q105 358 142.5 258.5 Q180 159 284 109 Q333 86 386.5 85 Q440 84 488 101 Q536 118 581 149 L585 290 L447 290 L448 364 L673 365 Z " />
<glyph glyph-name="gdotaccent" unicode="&#x121;" horiz-adv-x="476" d="M177 554 Q177 581 195 596.5 Q213 612 235 612.5 Q257 613 275 598 Q293 583 293 556 Q293 527 275 510.5 Q257 494 235 494 Q213 494 195 510 Q177 526 177 554 Z M118 224 Q118 185 138.5 154.5 Q159 124 189 111 Q219 98 250.5 98 Q282 98 308 119.5 Q334 141 343 179 Q343 189 344 214.5 Q345 240 344 252 Q344 285 327.5 308 Q311 331 286 340 Q261 349 231.5 346.5 Q202 344 177 330.5 Q152 317 135 289 Q118 261 118 224 Z M441 6 Q441 -102 356 -164 Q308 -197 242 -198.5 Q176 -200 124 -172 Q94 -156 87.5 -152.5 Q81 -149 71 -140 L107 -69 Q109 -70 165 -99 Q189 -111 218 -113 Q247 -115 273.5 -107 Q300 -99 322 -79 Q344 -59 352 -30 L351 0 L352 59 Q330 36 297.5 25 Q265 14 230 15 Q195 16 160 30 Q125 44 97 67.5 Q69 91 51.5 129.5 Q34 168 33 214 Q33 264 50 306.5 Q67 349 96.5 375.5 Q126 402 162.5 417 Q199 432 239.5 431 Q280 430 317 413 Q340 403 350 387 L349 427 L443 427 L441 6 Z " />
<glyph glyph-name="Hcircumflex" unicode="&#x124;" horiz-adv-x="630" d="" />
<glyph glyph-name="Idot" unicode="&#x130;" horiz-adv-x="207" d="M45 827 Q45 854 63 869.5 Q81 885 103 885.5 Q125 886 143 871 Q161 856 161 829 Q161 800 143 783.5 Q125 767 103 767 Q81 767 63 783 Q45 799 45 827 Z M58 696 L148 696 L149 1 L59 1 L58 696 Z " />
<glyph glyph-name="dotlessi" unicode="&#x131;" horiz-adv-x="207" d="M59 433 L151 433 L151 -2 L61 -2 L59 433 Z " />
<glyph glyph-name="Jcircumflex" unicode="&#x134;" horiz-adv-x="396" d="M464 768 L377 768 L324 846 L265 768 L173 767 L325 972 L464 768 Z M63 72 Q99 46 138.5 44 Q178 42 209.5 61.5 Q241 81 261 125 Q281 169 280 228 L273 700 L364 700 L373 222 Q375 152 352 96.5 Q329 41 290.5 10.5 Q252 -20 206 -33.5 Q160 -47 111.5 -39.5 Q63 -32 22 -7 L63 72 Z " />
<glyph glyph-name="jcircumflex" unicode="&#x135;" horiz-adv-x="207" d="M59 430 L151 430 L150 -102 L59 -102 L59 430 Z M253 495 L166 495 L113 573 L54 495 L-38 494 L114 699 L253 495 Z " />
<glyph glyph-name="Nacute" unicode="&#x143;" horiz-adv-x="646" d="" />
<glyph glyph-name="sacute" unicode="&#x15b;" horiz-adv-x="394" d="" />
<glyph glyph-name="ycircumflex" unicode="&#x177;" horiz-adv-x="462" d="" />
<glyph glyph-name="Zdotaccent" unicode="&#x17b;" horiz-adv-x="795" d="" />
<glyph glyph-name="uni01F4" unicode="&#x1f4;" horiz-adv-x="704" d="M499 974 L561 901 L409 780 L359 827 L499 974 Z M673 365 L672 116 Q672 100 654 91 Q610 50 549 27 Q488 4 429 -0.5 Q370 -5 318.5 2 Q267 9 234 26 Q143 74 91.5 147 Q40 220 32.5 297 Q25 374 50 452 Q75 530 126.5 590.5 Q178 651 256.5 687 Q335 723 424 720 Q512 717 573 688 Q596 677 605.5 670.5 Q615 664 636 646 L565 582 Q552 601 504.5 616 Q457 631 423 633 Q342 636 265.5 588 Q189 540 153 463 Q105 358 142.5 258.5 Q180 159 284 109 Q333 86 386.5 85 Q440 84 488 101 Q536 118 581 149 L585 290 L447 290 L448 364 L673 365 Z " />
<glyph glyph-name="uni01F5" unicode="&#x1f5;" horiz-adv-x="476" d="M324 688 L386 615 L234 494 L184 541 L324 688 Z M118 224 Q118 185 138.5 154.5 Q159 124 189 111 Q219 98 250.5 98 Q282 98 308 119.5 Q334 141 343 179 Q343 189 344 214.5 Q345 240 344 252 Q344 285 327.5 308 Q311 331 286 340 Q261 349 231.5 346.5 Q202 344 177 330.5 Q152 317 135 289 Q118 261 118 224 Z M441 6 Q441 -102 356 -164 Q308 -197 242 -198.5 Q176 -200 124 -172 Q94 -156 87.5 -152.5 Q81 -149 71 -140 L107 -69 Q109 -70 165 -99 Q189 -111 218 -113 Q247 -115 273.5 -107 Q300 -99 322 -79 Q344 -59 352 -30 L351 0 L352 59 Q330 36 297.5 25 Q265 14 230 15 Q195 16 160 30 Q125 44 97 67.5 Q69 91 51.5 129.5 Q34 168 33 214 Q33 264 50 306.5 Q67 349 96.5 375.5 Q126 402 162.5 417 Q199 432 239.5 431 Q280 430 317 413 Q340 403 350 387 L349 427 L443 427 L441 6 Z " />
<glyph glyph-name="uni030A" unicode="&#x30a;" horiz-adv-x="154" d="M52 791 Q52 775 64 768.5 Q76 762 88.5 769 Q101 776 101 792 Q101 807 88.5 813.5 Q76 820 64 813.5 Q52 807 52 791 Z M6 790 Q6 823 28 840 Q50 857 76 855 Q102 853 124 835 Q146 817 146 788 Q146 757 124 738.5 Q102 720 76 719.5 Q50 719 28 737.5 Q6 756 6 790 Z " />
<glyph glyph-name="increment" unicode="&#x394;" horiz-adv-x="674" d="M329 731 L370 639 L653 1 L558 1 L472 0 L197 0 L116 1 L21 1 L299 656 L329 731 Z M525 82 L330 514 L156 82 L525 82 Z " />
<glyph glyph-name="beta" unicode="&#x3b2;" horiz-adv-x="517" d="M130 -120 L93 -120 L93 -119 L44 -120 L44 688 L244 688 L247 686 Q292 687 328 669.5 Q364 652 384.5 624 Q405 596 413.5 560.5 Q422 525 416.5 492 Q411 459 389.5 430 Q368 401 333 386 Q332 386 332 384.5 Q332 383 333 383 Q379 381 412.5 351.5 Q446 322 460.5 279 Q475 236 471.5 186.5 Q468 137 446.5 95 Q425 53 379 26 Q333 -1 271 1 L261 0 L169 0 L169 95 L284 95 Q323 95 348 119 Q373 143 377 178 Q381 213 372.5 247.5 Q364 282 337 307 Q310 332 273 333 L273 334 L169 334 L169 404 Q183 404 211.5 405.5 Q240 407 243 407 Q279 412 302 434.5 Q325 457 329 486.5 Q333 516 325 545 Q317 574 291 594 Q265 614 228 615 L228 616 L131 616 L130 -120 Z " />
<glyph glyph-name="quoteleft" unicode="&#x2018;" horiz-adv-x="187" d="M127 620 Q130 601 117.5 586.5 Q105 572 89 567.5 Q73 563 58 575 Q43 587 40 616 Q37 661 61.5 699 Q86 737 113 746 Q102 730 101 694 Q100 658 112 645 Q127 634 127 620 Z " />
<glyph glyph-name="quoteright" unicode="&#x2019;" horiz-adv-x="187" d="M56 682 Q52 701 63 716.5 Q74 732 89.5 737.5 Q105 743 121 732 Q137 721 142 693 Q148 649 126.5 609 Q105 569 80 558 Q89 574 87 611 Q85 648 72 658 Q57 668 56 682 Z " />
<glyph glyph-name="quotedblleft" unicode="&#x201c;" horiz-adv-x="292" d="M250 622 Q252 604 240 589 Q228 574 211.5 570 Q195 566 180 578 Q165 590 162 618 Q160 663 184 701 Q208 739 235 748 Q224 733 223.5 696.5 Q223 660 234 648 Q249 637 250 622 Z M127 620 Q130 601 117.5 586.5 Q105 572 89 567.5 Q73 563 58 575 Q43 587 40 616 Q37 661 61.5 699 Q86 737 113 746 Q102 730 101 694 Q100 658 112 645 Q127 634 127 620 Z " />
<glyph glyph-name="quotedblright" unicode="&#x201d;" horiz-adv-x="358" d="M191 685 Q187 703 198 719 Q209 735 224.5 740 Q240 745 256 734.5 Q272 724 277 696 Q283 651 261.5 611.5 Q240 572 215 560 Q224 576 222 613 Q220 650 207 661 Q192 671 191 685 Z M56 682 Q52 701 63 716.5 Q74 732 89.5 737.5 Q105 743 121 732 Q137 721 142 693 Q148 649 126.5 609 Q105 569 80 558 Q89 574 87 611 Q85 648 72 658 Q57 668 56 682 Z " />
<glyph glyph-name="Euro" unicode="&#x20ac;" horiz-adv-x="715" d="M569 293 L539 211 L25 211 L55 293 L569 293 Z M621 455 L589 375 L31 375 L57 455 L621 455 Z M679 641 L651 557 Q640 578 593 597 Q557 612 494 614 Q413 617 336.5 569.5 Q260 522 224 445 Q176 342 213.5 243 Q251 144 355 96 Q406 72 462 71 Q518 70 567.5 88 Q617 106 663 140 L663 41 Q619 1 588 -5.5 Q557 -12 499 -15.5 Q441 -19 389.5 -11.5 Q338 -4 305 13 Q166 85 120 213.5 Q74 342 140 483 Q189 588 286 646.5 Q383 705 495 700 Q553 698 622 670 Q660 654 679 641 Z " />
<glyph glyph-name="uniFB00" unicode="&#xfb00;" horiz-adv-x="631" d="" />
</font>
</svg>
