<?xml version="1.0" encoding="UTF-8"?>
<svg xmlns="http://www.w3.org/2000/svg" xmlns:xlink="http://www.w3.org/1999/xlink" version="1.2" >
<font id="BetecknaLowerCase">
<font-face  font-family="BetecknaLowerCase" units-per-em="1000" ascent="800" descent="-200" font-style="italic" font-weight="500" font-stretch="normal" cap-height="689" x-height="429" underline-position="-225" underline-thickness="50" />
<missing-glyph  horiz-adv-x="500" d="M3 0 L97 533 L497 533 L403 0 L3 0 Z M62 50 L362 50 L438 483 L138 483 L62 50 Z " />
<glyph glyph-name="space" unicode="&#x20;" horiz-adv-x="351" d="" />
<glyph glyph-name="exclam" unicode="&#x21;" horiz-adv-x="238" d="M135 693 L225 693 L142 252 L51 252 L135 693 Z M3 60 Q8 87 29 102.5 Q50 118 72 118.5 Q94 119 109.5 104 Q125 89 120 62 Q115 33 94 16.5 Q73 0 51 0 Q29 0 14 16 Q-1 32 3 60 Z " />
<glyph glyph-name="quotedbl" unicode="&#x22;" horiz-adv-x="340" d="M231 558 Q230 571 217 627 Q204 683 207 699 Q212 725 232 740 Q252 755 273.5 755.5 Q295 756 310.5 740.5 Q326 725 321 696 Q313 672 300 649 Q287 626 278.5 614.5 Q270 603 252 583 Q234 563 231 558 Z M57 558 Q56 571 43 627 Q30 683 33 699 Q38 725 58 740 Q78 755 99.5 755.5 Q121 756 136.5 740.5 Q152 725 147 696 Q139 672 126 649 Q113 626 104.5 614.5 Q96 603 78 583 Q60 563 57 558 Z " />
<glyph glyph-name="numbersign" unicode="&#x23;" horiz-adv-x="455" d="M153 620 L230 620 L206 480 L296 480 L320 620 L398 620 L374 480 L432 480 L416 389 L358 389 L343 306 L401 306 L386 219 L328 219 L302 70 L224 70 L250 219 L160 219 L134 70 L57 70 L83 219 L25 220 L40 306 L98 306 L113 390 L55 390 L71 481 L129 480 L153 620 Z M190 390 L175 306 L265 306 L280 389 L190 390 Z " />
<glyph glyph-name="dollar" unicode="&#x24;" horiz-adv-x="733" d="M285 28 L281 28 Q247 29 210.5 47.5 Q174 66 157 81 Q140 96 126 111 L178 180 Q198 157 212.5 144.5 Q227 132 253.5 120 Q280 108 312 108 Q358 108 378 118 Q403 131 436 173 Q471 217 459 260 Q448 301 402 321 Q340 349 336 350 Q281 370 255 397 Q225 428 218 463.5 Q211 499 220.5 537 Q230 575 254.5 606 Q279 637 317.5 658 Q356 679 402 682 L401 750 L476 750 L452 682 Q518 678 558 640 L506 578 Q468 619 396 610 Q363 606 338 584 Q313 562 304.5 534.5 Q296 507 313 477 Q331 444 373 429 L442 404 Q468 394 495 370 Q520 347 536.5 313 Q553 279 548 237 Q542 191 513 143 Q454 47 346 31 L343 -30 L268 -30 L285 28 Z " />
<glyph glyph-name="percent" unicode="&#x25;" horiz-adv-x="560" d="M136 473 Q132 446 151 434.5 Q170 423 192.5 434.5 Q215 446 220 474 Q223 494 212 504.5 Q201 515 185.5 515 Q170 515 155 503.5 Q140 492 136 473 Z M69 472 Q75 506 95.5 530 Q116 554 142 563.5 Q168 573 196.5 572 Q225 571 247 559 Q269 547 281 523 Q293 499 288 469 Q282 437 261.5 412 Q241 387 214.5 375.5 Q188 364 159.5 363.5 Q131 363 108.5 374 Q86 385 74.5 410.5 Q63 436 69 472 Z M345 161 Q341 134 360 123 Q379 112 401.5 123.5 Q424 135 429 162 Q433 188 414.5 198.5 Q396 209 373 198 Q350 187 345 161 Z M278 160 Q284 195 305 219 Q326 243 351.5 252.5 Q377 262 405.5 260.5 Q434 259 456 247 Q478 235 490.5 211.5 Q503 188 498 157 Q492 125 471 100.5 Q450 76 423.5 64 Q397 52 368.5 51.5 Q340 51 318 62 Q296 73 284 98.5 Q272 124 278 160 Z M507 559 L553 500 L41 52 L-5 111 L507 559 Z " />
<glyph glyph-name="ampersand" unicode="&#x26;" horiz-adv-x="754" d="M317 410 L490 188 Q542 267 551 346 L634 346 Q607 214 539 125 L635 0 L517 0 L472 57 Q387 -10 265 -22 Q212 -26 162 -8.5 Q112 9 76.5 51 Q41 93 35 150 Q35 184 40 212.5 Q45 241 60 269 Q75 297 91.5 318.5 Q108 340 129.5 360.5 Q151 381 169 395 Q187 409 205 421 Q191 462 195 500.5 Q199 539 216 568 Q233 597 251.5 616.5 Q270 636 289 650 Q329 677 385.5 682.5 Q442 688 487 671.5 Q532 655 542 624 L478 572 Q461 604 406 607.5 Q351 611 315 578 Q241 505 317 410 Z M240 355 Q186 316 152.5 267 Q119 218 127 170 Q133 131 164.5 102.5 Q196 74 230.5 63 Q265 52 291 55 Q365 62 427 116 L240 355 Z " />
<glyph glyph-name="quotesingle" unicode="&#x27;" horiz-adv-x="154" d="M56 558 Q17 639 27 699 Q32 725 52 740.5 Q72 756 93.5 757 Q115 758 129.5 743 Q144 728 139 699 Q133 665 107 625 Q81 585 56 558 Z " />
<glyph glyph-name="parenleft" unicode="&#x28;" horiz-adv-x="268" d="M10 148 Q11 159 40.5 326.5 Q70 494 72 502 Q97 601 160 670.5 Q223 740 309 775 L291 672 Q198 613 167 505 Q164 497 134.5 328 Q105 159 104 148 Q98 38 167 -24 L148 -136 Q76 -98 38.5 -26 Q1 46 10 148 Z " />
<glyph glyph-name="parenright" unicode="&#x29;" horiz-adv-x="295" d="M213 150 Q185 49 121.5 -23.5 Q58 -96 -26 -134 L-7 -22 Q84 41 118 150 Q121 161 150.5 330 Q180 499 181 507 Q189 615 116 675 L134 778 Q208 742 246.5 673 Q285 604 275 505 Q274 497 244.5 329 Q215 161 213 150 Z " />
<glyph glyph-name="asterisk" unicode="&#x2a;" horiz-adv-x="212" d="M173 678 L145 678 Q133 678 143 666 L170 634 L157 617 L138 605 L104 645 Q104 645 101 647 Q101 647 95 645 L48 605 L33 617 L27 634 L66 666 Q72 670 70 674.5 Q68 679 63 678 L36 678 L35 698 L43 716 L78 715 Q81 715 87.5 721.5 Q94 728 95 733 L99 755 L120 759 L139 755 L135 733 Q134 727 139 722 Q144 717 148 717 L180 716 L183 698 L173 678 Z " />
<glyph glyph-name="plus" unicode="&#x2b;" horiz-adv-x="495" d="M424 316 L288 315 L261 160 L171 160 L197 315 L57 314 L73 405 L216 403 L238 549 L328 549 L303 405 L440 406 L424 316 Z " />
<glyph glyph-name="comma" unicode="&#x2c;" horiz-adv-x="154" d="M26 69 Q31 95 51 110 Q71 125 92.5 125.5 Q114 126 129.5 110.5 Q145 95 139 66 Q136 46 123.5 27.5 Q111 9 101 -2 Q91 -13 70.5 -27 Q50 -41 45.5 -43 Q41 -45 23 -55 Q29 -49 37 -38.5 Q45 -28 52.5 -15.5 Q60 -3 65 7.5 Q70 18 70 24 Q70 30 63 28 Q45 23 33 36 Q21 49 26 69 Z " />
<glyph glyph-name="hyphen" unicode="&#x2d;" horiz-adv-x="470" d="M430 217 L41 217 L57 307 L446 308 L430 217 Z " />
<glyph glyph-name="period" unicode="&#x2e;" horiz-adv-x="190" d="M15 60 Q20 87 40.5 102.5 Q61 118 83.5 118.5 Q106 119 121 104 Q136 89 131 62 Q126 33 105.5 16.5 Q85 0 63 0 Q41 0 25.5 16 Q10 32 15 60 Z " />
<glyph glyph-name="slash" unicode="&#x2f;" horiz-adv-x="500" d="M108 0 L1 0 L399 702 L499 704 L108 0 Z " />
<glyph glyph-name="zero" unicode="0" horiz-adv-x="569" d="M126 367 Q103 234 136 171 Q169 107 237.5 101.5 Q306 96 362 155 Q422 220 447 360 Q472 502 426 565 Q400 600 358 610 Q316 620 270.5 600.5 Q225 581 190 535 Q146 477 126 367 Z M33 361 Q58 504 127 588 Q181 654 253.5 682.5 Q326 711 393 696.5 Q460 682 501 629 Q572 540 540 358 Q511 180 427 88 Q370 25 296.5 5.5 Q223 -14 157.5 11.5 Q92 37 55 101 Q3 192 33 361 Z " />
<glyph glyph-name="one" unicode="1" horiz-adv-x="392" d="M213 600 L99 600 L119 720 L331 720 L312 605 L220 78 L221 78 L208 0 L111 0 L123 78 L122 78 L213 600 Z " />
<glyph glyph-name="two" unicode="2" horiz-adv-x="540" d="M-25 0 L349 396 Q415 476 416 538 Q417 600 354 615 Q320 623 273.5 605 Q227 587 205 546 L136 596 Q209 705 347 702 Q448 700 488.5 646.5 Q529 593 502.5 505 Q476 417 387 319 L175 90 L449 91 L433 0 L75 -1 L75 0 L-25 0 Z " />
<glyph glyph-name="three" unicode="3" horiz-adv-x="510" d="M297 414 Q342 421 373.5 472 Q405 523 391 568 Q378 608 326 620 Q290 627 246 617 Q202 607 176 572 L108 620 Q185 705 327 702 Q391 701 433.5 670 Q476 639 487 593.5 Q498 548 478 493 Q458 438 407 391 Q441 347 453.5 298.5 Q466 250 457.5 206.5 Q449 163 423.5 123 Q398 83 361 54.5 Q324 26 277 9 Q230 -8 181 -8 Q72 -12 -23 44 L47 112 Q80 95 108.5 87 Q137 79 157 79 Q177 79 201 80 Q244 80 280.5 101.5 Q317 123 335 156 Q353 189 358.5 224.5 Q364 260 346 290.5 Q328 321 292 334 L201 334 L211 412 L297 414 Z " />
<glyph glyph-name="four" unicode="4" horiz-adv-x="477" d="M299 243 L346 511 L120 243 L299 243 Z M479 722 L394 244 L440 244 L424 159 L382 159 L354 0 L254 0 L283 162 L90 162 L-17 162 L-10 205 L437 722 L479 722 Z " />
<glyph glyph-name="five" unicode="5" horiz-adv-x="509" d="M173 700 L465 700 L453 620 L252 620 L214 422 Q288 424 328 416 Q368 408 405 379 Q436 356 449.5 318.5 Q463 281 459.5 239.5 Q456 198 435.5 156 Q415 114 382 80 Q349 46 298.5 25 Q248 4 189 4 Q131 1 76 22 Q21 43 -18 73 L41 135 Q86 105 116.5 93.5 Q147 82 198 82 Q247 83 286 110 Q325 137 344 173.5 Q363 210 362.5 248.5 Q362 287 338 310 Q295 348 228 352 L110 348 L173 700 Z " />
<glyph glyph-name="six" unicode="6" horiz-adv-x="590" d="M31 256 Q30 273 35 308.5 Q40 344 45.5 380.5 Q51 417 72 466 Q93 515 125 560 Q170 624 239.5 663 Q309 702 378 702 Q464 703 502 677 L452 602 Q445 611 419 618 Q393 625 351 620 Q304 615 265.5 590 Q227 565 201.5 528 Q176 491 160.5 451.5 Q145 412 137 370 Q137 356 137 353 Q181 394 228 414.5 Q275 435 309 437.5 Q343 440 377.5 432 Q412 424 427 416.5 Q442 409 455 400 Q487 380 503 331.5 Q519 283 508 224 Q494 144 443 90 Q358 3 243 2 Q115 2 64 104 Q51 128 40 181 Q29 234 31 256 Z M132 226 Q124 182 140.5 150 Q157 118 186.5 104 Q216 90 253.5 90.5 Q291 91 326 106.5 Q361 122 388.5 155 Q416 188 424 233 Q433 282 408.5 313.5 Q384 345 341 358 Q317 362 301 359.5 Q285 357 260 350 Q219 338 178.5 298.5 Q138 259 132 226 Z " />
<glyph glyph-name="seven" unicode="7" horiz-adv-x="481" d="M134 691 L500 690 L485 606 L485 603 L105 0 L-18 0 L371 598 L118 598 L134 691 Z " />
<glyph glyph-name="eight" unicode="8" horiz-adv-x="555" d="M94 505 Q103 552 129.5 594.5 Q156 637 191 661 Q255 704 334.5 704.5 Q414 705 461 666 Q491 642 504.5 598 Q518 554 509 505 Q498 460 428 383 Q515 317 496 207 Q481 121 433 71 Q391 28 333 5.5 Q275 -17 215 -17 Q150 -17 98.5 9 Q47 35 22 83 Q-3 131 11 206 Q29 311 136 379 Q87 445 94 505 Z M113 212 Q105 168 121 135.5 Q137 103 166 88.5 Q195 74 232.5 73.5 Q270 73 305 87.5 Q340 102 367 134.5 Q394 167 402 212 Q410 261 388.5 293.5 Q367 326 325 338 Q276 347 230 336 Q186 324 153.5 292 Q121 260 113 212 Z M316 419 Q356 428 384 455 Q412 482 420 525 Q426 558 413 582 Q400 606 376 617 Q352 628 322.5 627.5 Q293 627 265.5 616 Q238 605 216.5 581 Q195 557 189 524 Q181 480 200.5 453 Q220 426 256 418 Q285 415 316 419 Z " />
<glyph glyph-name="nine" unicode="9" horiz-adv-x="515" d="M158 501 Q149 449 171.5 419 Q194 389 230.5 385 Q267 381 307 395 Q347 409 370 436 Q396 463 408 508 Q414 546 400 573.5 Q386 601 360 612.5 Q334 624 302 622.5 Q270 621 240 608 Q210 595 187 566.5 Q164 538 158 501 Z M64 495 Q76 564 117.5 614.5 Q159 665 212.5 687.5 Q266 710 323 710 Q380 710 424.5 687.5 Q469 665 491.5 614.5 Q514 564 501 496 Q479 404 400.5 262 Q322 120 219 0 L92 1 Q152 64 178 92 Q204 120 246 175.5 Q288 231 317 284 Q321 290 326 304.5 Q331 319 332 322 Q289 296 228 296 Q177 296 136.5 317 Q96 338 74 384.5 Q52 431 64 495 Z " />
<glyph glyph-name="colon" unicode="&#x3a;" horiz-adv-x="161" d="M53 409 Q57 434 78.5 449 Q100 464 121.5 464.5 Q143 465 159 450.5 Q175 436 170 410 Q165 383 144 367.5 Q123 352 101.5 352 Q80 352 64 367 Q48 382 53 409 Z M-7 75 Q-2 102 18.5 117.5 Q39 133 61 133.5 Q83 134 98.5 119 Q114 104 109 77 Q104 48 83 31.5 Q62 15 40 15 Q18 15 3 31 Q-12 47 -7 75 Z " />
<glyph glyph-name="semicolon" unicode="&#x3b;" horiz-adv-x="154" d="M52 414 Q57 440 77.5 455 Q98 470 120 470 Q142 470 157.5 456 Q173 442 169 416 Q164 389 143.5 373.5 Q123 358 101 358 Q79 358 63.5 373 Q48 388 52 414 Z M1 92 Q5 117 25.5 132.5 Q46 148 68 148.5 Q90 149 104.5 133 Q119 117 114 88 Q111 69 99 50 Q87 31 77 20.5 Q67 10 45.5 -4 Q24 -18 20 -20.5 Q16 -23 -2 -32 Q4 -27 12 -16 Q20 -5 27.5 7 Q35 19 40 29.5 Q45 40 45 46 Q45 52 37 50 Q20 46 8 58.5 Q-4 71 1 92 Z " />
<glyph glyph-name="less" unicode="&#x3c;" horiz-adv-x="618" d="M576 596 L558 496 L285 371 L508 239 L488 136 L153 331 L84 374 L148 402 L576 596 Z " />
<glyph glyph-name="equal" unicode="&#x3d;" horiz-adv-x="665" d="M101 289 L543 288 L525 200 L83 201 L101 289 Z M139 527 L581 526 L567 438 L125 439 L139 527 Z " />
<glyph glyph-name="greater" unicode="&#x3e;" horiz-adv-x="618" d="M124 596 L482 402 L536 374 L453 331 L48 136 L66 239 L335 371 L106 496 L124 596 Z " />
<glyph glyph-name="question" unicode="&#x3f;" horiz-adv-x="548" d="M300 672 Q269 672 245.5 662.5 Q222 653 208 639.5 Q194 626 177 610 L147 679 Q185 715 228 732 Q271 749 327 749 Q416 749 460 699.5 Q504 650 489 568 Q482 526 457.5 491 Q433 456 385 414 L335 370 Q291 330 281 309.5 Q271 289 262 237 L257 220 L159 215 L166 248 Q176 306 198 339 Q220 372 264 411 L316 457 Q325 465 335.5 473.5 Q346 482 356 492.5 Q366 503 374 512.5 Q382 522 388 534 Q394 546 395 558 Q412 672 300 672 Z M123 60 Q127 87 148 102.5 Q169 118 191 118.5 Q213 119 228.5 104 Q244 89 239 62 Q234 33 213 16.5 Q192 0 170 0 Q148 0 133 16 Q118 32 123 60 Z " />
<glyph glyph-name="at" unicode="&#x40;" horiz-adv-x="905" d="M647 90 Q613 71 594 61.5 Q575 52 541.5 40 Q508 28 468.5 23 Q429 18 377 18 Q312 18 258.5 38.5 Q205 59 172 92.5 Q139 126 118 169 Q97 212 92 258 Q87 304 96 350 Q120 489 222 590 Q276 644 361 677 Q446 710 525 710 Q598 710 662.5 689 Q727 668 762 632 Q808 584 822 516 Q836 448 822 371 Q812 314 793 280.5 Q774 247 727 210 Q688 181 640.5 174 Q593 167 557.5 181.5 Q522 196 513 226 Q472 201 426 197.5 Q380 194 343 210 Q306 226 285.5 266.5 Q265 307 274 363 Q281 407 302 442.5 Q323 478 351.5 498.5 Q380 519 413 530 Q446 541 479.5 539.5 Q513 538 539 525 Q556 516 561 504 L566 535 L639 535 Q632 507 622 467 Q612 427 606.5 404.5 Q601 382 596 347.5 Q591 313 590 277 Q594 250 630 244 Q666 238 694 262 Q723 287 732.5 303 Q742 319 751 367 Q774 495 706 571 Q679 603 624.5 620.5 Q570 638 513 638 Q446 638 376.5 612 Q307 586 265 542 Q193 465 173 350 Q165 310 175.5 265.5 Q186 221 211.5 181 Q237 141 283.5 114 Q330 87 389 86 Q426 85 456.5 87.5 Q487 90 507.5 95.5 Q528 101 546 108 Q564 115 577.5 123 Q591 131 607 140 L647 90 Z M347 366 Q342 333 354 307.5 Q366 282 389 272.5 Q412 263 438.5 264 Q465 265 489.5 281.5 Q514 298 527 327 Q531 338 536 368.5 Q541 399 542 409 Q538 439 520 457 Q502 475 476 475.5 Q450 476 423 465.5 Q396 455 375 428.5 Q354 402 347 366 Z " />
<glyph glyph-name="A" unicode="A" horiz-adv-x="674" d="M394 731 L419 639 L590 1 L495 1 L441 183 L166 183 L53 1 L-42 1 L351 656 L394 731 Z M417 266 L357 514 L216 266 L417 266 Z " />
<glyph glyph-name="B" unicode="B" horiz-adv-x="517" d="M106 688 L306 688 L308 686 Q353 687 386 669.5 Q419 652 434.5 624 Q450 596 452.5 560.5 Q455 525 443.5 492 Q432 459 405.5 430 Q379 401 341 386 Q340 386 340 384.5 Q340 383 341 383 Q387 381 415 351.5 Q443 322 450 279 Q457 236 445 186.5 Q433 137 404 95 Q375 53 324 26 Q273 -1 212 1 L201 0 L33 0 L34 1 L-16 0 L106 688 Z M180 616 L143 407 L255 407 Q292 412 319 434.5 Q346 457 355 486.5 Q364 516 361.5 545 Q359 574 336.5 594 Q314 614 277 615 L277 616 L180 616 Z M130 334 L88 95 L241 95 Q280 96 309.5 120 Q339 144 349 179 Q359 214 356.5 248.5 Q354 283 331.5 307.5 Q309 332 272 333 L272 334 L130 334 Z " />
<glyph glyph-name="C" unicode="C" horiz-adv-x="694" d="M493 702 Q581 699 637 671 Q658 660 666 653.5 Q674 647 692 629 L610 566 Q599 584 555 599.5 Q511 615 477 616 Q397 619 312 571.5 Q227 524 177 447 Q111 344 131 245 Q151 146 247 98 Q293 74 349 73 Q405 72 457.5 90 Q510 108 562 142 L611 75 Q560 35 495 12.5 Q430 -10 371 -13.5 Q312 -17 262 -9.5 Q212 -2 182 15 Q56 87 32.5 215.5 Q9 344 100 485 Q167 590 274.5 648.5 Q382 707 493 702 Z " />
<glyph glyph-name="D" unicode="D" horiz-adv-x="611" d="M207 691 Q226 693 263.5 692 Q301 691 317 691 Q375 690 421.5 673.5 Q468 657 496 630 Q524 603 540 578 Q556 553 564 526 Q584 455 576.5 376.5 Q569 298 536 227.5 Q503 157 441 99.5 Q379 42 300 16 Q278 9 225 0 Q209 0 180 -0.5 Q151 -1 134 -1 Q117 -1 78 0 L-21 0 L101 691 L207 691 Z M478 476 Q463 540 416 577.5 Q369 615 294 615 Q289 615 251.5 615.5 Q214 616 179 615 L89 83 Q125 83 157 82 Q189 81 230.5 86.5 Q272 92 308 106 Q361 126 400.5 176 Q440 226 457.5 282.5 Q475 339 480 391 Q485 443 478 476 Z " />
<glyph glyph-name="E" unicode="E" horiz-adv-x="483" d="M116 693 L482 693 L467 608 L193 608 L159 412 L355 412 L340 329 L144 329 L100 82 L383 82 L369 0 L-6 0 L116 693 Z " />
<glyph glyph-name="F" unicode="F" horiz-adv-x="469" d="M120 691 L473 691 L458 609 L198 609 L164 412 L359 412 L344 329 L149 329 L91 0 L-2 0 L120 691 Z " />
<glyph glyph-name="G" unicode="G" horiz-adv-x="704" d="M674 365 L629 116 Q626 100 607 91 Q556 50 490.5 27 Q425 4 365.5 -0.5 Q306 -5 255.5 2 Q205 9 175 26 Q93 74 54 147 Q15 220 21.5 297 Q28 374 66.5 452 Q105 530 167 590.5 Q229 651 314 687 Q399 723 488 720 Q575 717 631 688 Q652 677 660.5 670.5 Q669 664 687 646 L604 582 Q595 601 550 616 Q505 631 471 633 Q391 636 306 588 Q221 540 171 463 Q105 358 125 258.5 Q145 159 240 109 Q285 86 338.5 85 Q392 84 443 101 Q494 118 544 149 L573 290 L435 290 L449 364 L674 365 Z " />
<glyph glyph-name="H" unicode="H" horiz-adv-x="630" d="M543 694 L634 694 L512 0 L421 0 L476 311 L146 312 L91 0 L-2 0 L119 690 L211 690 L200 617 L160 394 L490 394 L543 694 Z " />
<glyph glyph-name="I" unicode="I" horiz-adv-x="207" d="M120 696 L210 696 L89 1 L-1 1 L120 696 Z " />
<glyph glyph-name="J" unicode="J" horiz-adv-x="396" d="M19 72 Q50 46 89 44 Q128 42 163 61.5 Q198 81 226 125 Q254 169 263 228 L339 700 L430 700 L355 222 Q345 152 312 96.5 Q279 41 235 10.5 Q191 -20 143 -33.5 Q95 -47 47.5 -39.5 Q0 -32 -36 -7 L19 72 Z " />
<glyph glyph-name="K" unicode="K" horiz-adv-x="636" d="M476 686 L589 686 L254 362 L527 -2 L412 -2 L146 358 L82 -2 L-11 -2 L111 686 L204 686 L146 361 L476 686 Z " />
<glyph glyph-name="L" unicode="L" horiz-adv-x="474" d="M204 690 L97 85 L380 85 L365 2 L-11 2 L111 691 L204 690 Z " />
<glyph glyph-name="M" unicode="M" horiz-adv-x="734" d="M365 330 L718 719 L626 -4 L540 -4 L590 457 L340 190 L181 460 L68 -1 L-18 -1 L145 723 L365 330 Z " />
<glyph glyph-name="N" unicode="N" horiz-adv-x="646" d="M169 467 L87 3 L0 3 L123 700 L481 204 L564 696 L652 696 L525 -28 L169 467 Z " />
<glyph glyph-name="O" unicode="O" horiz-adv-x="752" d="M402 627 Q344 627 293.5 603.5 Q243 580 208.5 541.5 Q174 503 150 454 Q126 405 118 354 Q110 303 118.5 253.5 Q127 204 150.5 166 Q174 128 218 104.5 Q262 81 322 81 Q383 81 438.5 104.5 Q494 128 532 166.5 Q570 205 596 254.5 Q622 304 631.5 355.5 Q641 407 631.5 456 Q622 505 596.5 543.5 Q571 582 521 605 Q471 628 402 627 Z M424 707 Q513 707 579 676 Q645 645 680 595 Q715 545 727 481 Q739 417 727 350.5 Q715 284 680.5 220.5 Q646 157 593.5 107.5 Q541 58 465.5 27.5 Q390 -3 305 -3 Q222 -3 160.5 27.5 Q99 58 67 108 Q35 158 24 221.5 Q13 285 25 352 Q37 419 69.5 482.5 Q102 546 151.5 596 Q201 646 272 676.5 Q343 707 424 707 Z " />
<glyph glyph-name="P" unicode="P" horiz-adv-x="506" d="M114 693 L321 692 Q383 693 424 664.5 Q465 636 478 593 Q491 550 481.5 499 Q472 448 442.5 404.5 Q413 361 360.5 332 Q308 303 242 304 L137 303 L84 3 L-8 1 L114 693 Z M191 610 L152 385 L260 385 Q292 385 319 401.5 Q346 418 361.5 442.5 Q377 467 383.5 496 Q390 525 384.5 550 Q379 575 358.5 592 Q338 609 305 609 L191 610 Z " />
<glyph glyph-name="Q" unicode="Q" horiz-adv-x="763" d="M409 627 Q351 627 300.5 603.5 Q250 580 215 541.5 Q180 503 156.5 454 Q133 405 125 354 Q117 303 125.5 253.5 Q134 204 157 166 Q180 128 224.5 104.5 Q269 81 328 81 Q390 81 444.5 104.5 Q499 128 537.5 166.5 Q576 205 602.5 254.5 Q629 304 638 355.5 Q647 407 638 456 Q629 505 603.5 543.5 Q578 582 527.5 605 Q477 628 409 627 Z M431 707 Q520 707 586 676 Q652 645 686.5 595 Q721 545 733 481 Q745 417 733.5 350.5 Q722 284 687 220.5 Q652 157 600 107.5 Q548 58 472.5 27.5 Q397 -3 311 -3 Q228 -3 166.5 27.5 Q105 58 73.5 108 Q42 158 30.5 221.5 Q19 285 31 352 Q43 419 76 482.5 Q109 546 158.5 596 Q208 646 279 676.5 Q350 707 431 707 Z M546 199 L655 48 L569 -14 L473 125 L419 201 L503 260 L546 199 Z " />
<glyph glyph-name="R" unicode="R" horiz-adv-x="489" d="M112 700 L319 701 Q371 702 408.5 682 Q446 662 463 629.5 Q480 597 482.5 556 Q485 515 471.5 475.5 Q458 436 428.5 399.5 Q399 363 359 341 L463 1 L362 1 L266 314 Q255 313 240 313 L135 312 L84 1 L-9 1 L112 700 Z M189 618 L150 394 L259 394 Q290 394 316.5 410.5 Q343 427 359.5 451.5 Q376 476 382 505 Q388 534 382.5 559 Q377 584 356.5 601 Q336 618 303 618 L189 618 Z " />
<glyph glyph-name="S" unicode="S" horiz-adv-x="528" d="M319 705 Q379 705 413.5 696 Q448 687 479 659 L422 592 Q379 634 298 626 Q261 622 232.5 598 Q204 574 195 544 Q186 514 204.5 481.5 Q223 449 273 430 L349 402 Q375 392 398.5 375 Q422 358 440.5 331.5 Q459 305 467 274 Q475 243 467 202.5 Q459 162 432 120 Q337 -29 123 0 Q86 7 60.5 15.5 Q35 24 25 29 Q15 34 -16 52 L20 149 Q95 111 147 97 Q179 88 212.5 88 Q246 88 282.5 104.5 Q319 121 345 152 Q384 200 370 247.5 Q356 295 306 312 Q259 334 232 344 Q173 362 138.5 397 Q104 432 96.5 471.5 Q89 511 102 553 Q115 595 144 628.5 Q173 662 219.5 683.5 Q266 705 319 705 Z " />
<glyph glyph-name="T" unicode="T" horiz-adv-x="490" d="M76 686 L534 686 L520 606 L338 605 L228 0 L136 0 L136 1 L245 605 L62 606 L76 686 Z " />
<glyph glyph-name="U" unicode="U" horiz-adv-x="592" d="M205 685 L133 266 Q126 224 132.5 189 Q139 154 155.5 132.5 Q172 111 196.5 99.5 Q221 88 248.5 88 Q276 88 304.5 100 Q333 112 358 133.5 Q383 155 402 190.5 Q421 226 430 270 L432 268 L504 682 L595 682 L525 265 Q515 200 485 148.5 Q455 97 414.5 65.5 Q374 34 327 17.5 Q280 1 233.5 2 Q187 3 146 20.5 Q105 38 76.5 69.5 Q48 101 37.5 152 Q27 203 40 264 L112 683 L205 685 Z " />
<glyph glyph-name="V" unicode="V" horiz-adv-x="675" d="M463 429 L623 693 L717 693 L266 -37 L248 39 L86 693 L180 693 L247 429 L305 181 L463 429 Z " />
<glyph glyph-name="W" unicode="W" horiz-adv-x="865" d="M443 370 L207 -21 L90 692 L178 692 L255 227 L457 560 L480 598 L489 559 L574 228 L814 693 L901 692 L533 -19 L443 370 Z " />
<glyph glyph-name="X" unicode="X" horiz-adv-x="695" d="M-31 0 L51 93 L300 390 L206 570 L138 698 L259 698 L326 570 L372 476 L461 582 L558 696 L664 697 L563 576 L564 576 L413 395 L563 90 L563 89 L605 -1 L502 0 L459 84 L341 310 L160 93 L88 0 L-31 0 Z " />
<glyph glyph-name="Y" unicode="Y" horiz-adv-x="604" d="M77 692 L183 692 L317 418 L543 692 L649 692 L352 334 L294 3 L187 0 L252 330 L253 330 L77 692 Z " />
<glyph glyph-name="Z" unicode="Z" horiz-adv-x="795" d="M229 682 L742 682 L669 592 L252 93 L631 93 L615 2 L60 0 Q69 10 93.5 37 Q118 64 142 93 L561 597 L214 597 L229 682 Z " />
<glyph glyph-name="bracketleft" unicode="&#x5b;" horiz-adv-x="348" d="M1 0 L125 704 L219 702 L347 702 L329 609 L202 609 L111 92 L241 92 L224 0 L95 0 L1 0 Z " />
<glyph glyph-name="backslash" unicode="&#x5c;" horiz-adv-x="492" d="M264 0 L121 704 L221 702 L371 0 L264 0 Z " />
<glyph glyph-name="bracketright" unicode="&#x5d;" horiz-adv-x="344" d="M223 0 L129 0 L0 0 L15 92 L145 92 L236 609 L109 609 L125 702 L253 702 L347 704 L223 0 Z " />
<glyph glyph-name="asciicircum" unicode="&#x5e;" horiz-adv-x="605" d="M430 530 L343 530 L304 608 L231 530 L139 529 L327 734 L430 530 Z " />
<glyph glyph-name="underscore" unicode="&#x5f;" horiz-adv-x="559" d="M518 0 L504 -82 L41 -82 L55 0 L518 0 Z " />
<glyph glyph-name="grave" unicode="&#x60;" horiz-adv-x="1000" d="M478 985 L592 838 L534 791 L403 912 L478 985 Z " />
<glyph glyph-name="a" unicode="a" horiz-adv-x="509" d="M32 207 Q42 263 69 308 Q96 353 132.5 380 Q169 407 211.5 421 Q254 435 296 432.5 Q338 430 372 413 Q394 403 401 387 L408 427 L501 427 L424 0 L333 0 L339 31 Q298 6 250.5 -3 Q203 -12 161 -2 Q119 8 86.5 32.5 Q54 57 38.5 102.5 Q23 148 32 207 Z M119 210 Q111 165 126.5 131.5 Q142 98 173 86 Q204 74 238.5 74.5 Q273 75 306 97.5 Q339 120 355 157 Q362 172 368 212.5 Q374 253 374 266 Q371 300 353 321.5 Q335 343 308.5 350 Q282 357 251.5 351.5 Q221 346 194 328.5 Q167 311 146 280 Q125 249 119 210 Z " />
<glyph glyph-name="b" unicode="b" horiz-adv-x="511" d="M446 207 Q435 148 403.5 102.5 Q372 57 330.5 32.5 Q289 8 243.5 -2 Q198 -12 154 -3 Q110 6 77 31 L72 0 L-19 0 L112 748 L205 748 L141 386 Q150 394 170 405 Q190 416 204 420 Q236 430 269 430.5 Q302 431 332 423 Q362 415 386.5 396.5 Q411 378 427 352 Q443 326 448.5 288.5 Q454 251 446 207 Z M352 211 Q360 256 345 290 Q330 324 300.5 337 Q271 350 237.5 349.5 Q204 349 172 326.5 Q140 304 123 265 Q119 252 111 213 Q103 174 105 160 Q108 123 132.5 101.5 Q157 80 190.5 79.5 Q224 79 257.5 91 Q291 103 317.5 135 Q344 167 352 211 Z " />
<glyph glyph-name="c" unicode="c" horiz-adv-x="421" d="M321 430 Q374 424 406 404 Q420 396 418 397 Q416 398 424 391 L360 313 Q355 323 334 332 Q313 341 297 343 Q257 347 216.5 330 Q176 313 151 277 Q114 227 117.5 181 Q121 135 164 107 Q189 91 221 90 Q267 87 307 107 Q321 113 328 118 L359 40 Q306 -1 211 0 Q137 0 102 24 Q29 73 20.5 153.5 Q12 234 73 317 Q118 378 185.5 407.5 Q253 437 321 430 Z " />
<glyph glyph-name="d" unicode="d" horiz-adv-x="515" d="M14 207 Q22 258 45.5 300.5 Q69 343 100.5 369 Q132 395 170.5 412.5 Q209 430 247 431.5 Q285 433 321 426 Q364 416 385 403 L446 748 L539 748 L406 0 L316 0 L321 38 Q318 36 304.5 25.5 Q291 15 284 12 Q244 -4 201.5 -6.5 Q159 -9 122.5 4 Q86 17 57.5 42 Q29 67 17.5 110 Q6 153 14 207 Z M109 211 Q101 167 117 135 Q133 103 162.5 91 Q192 79 225.5 79.5 Q259 80 290.5 101.5 Q322 123 339 160 Q344 174 350.5 213 Q357 252 357 265 Q353 304 329 326.5 Q305 349 272 349.5 Q239 350 205 337 Q171 324 144 290 Q117 256 109 211 Z " />
<glyph glyph-name="e" unicode="e" horiz-adv-x="500" d="M428 81 Q394 45 335 20 Q304 6 260 1 Q240 -1 220 -1 Q193 -1 169 3 Q115 14 81 46.5 Q47 79 36.5 122 Q26 165 35 214 Q44 263 70.5 306.5 Q97 350 143 383.5 Q189 417 245 428 Q273 433 302 433 Q329 433 352 429 Q409 417 438.5 377 Q468 337 469.5 286.5 Q471 236 451 180 L125 179 Q130 137 154.5 115 Q179 93 239 88 Q251 86 267 87.5 Q283 89 310.5 98.5 Q338 108 360 126 L361 127 L428 82 L428 81 Z M379 252 Q389 356 288 356 Q232 356 192 324 Q152 292 140 251 L379 252 Z " />
<glyph glyph-name="f" unicode="f" horiz-adv-x="359" d="M24 0 L85 346 L35 346 L49 422 L103 422 Q114 483 137 528.5 Q160 574 188.5 597.5 Q217 621 244.5 631.5 Q272 642 298 642 Q315 642 327 638.5 Q339 635 351 629.5 Q363 624 371 622 L310 547 L294 556 Q254 556 232 527 Q210 498 197 422 L300 422 L286 344 L180 344 L120 0 L24 0 Z " />
<glyph glyph-name="g" unicode="g" horiz-adv-x="476" d="M137 224 Q130 185 145 154.5 Q160 124 188 111 Q216 98 247.5 98 Q279 98 308.5 119.5 Q338 141 354 179 Q356 189 361.5 214.5 Q367 240 368 252 Q374 285 361.5 308 Q349 331 325.5 340 Q302 349 272 346.5 Q242 344 214.5 330.5 Q187 317 165.5 289 Q144 261 137 224 Z M422 6 Q403 -102 307 -164 Q253 -197 186.5 -198.5 Q120 -200 73 -172 Q46 -156 40 -152.5 Q34 -149 26 -140 L74 -69 Q76 -70 127 -99 Q149 -111 177.5 -113 Q206 -115 234 -107 Q262 -99 287.5 -79 Q313 -59 326 -30 L331 0 L342 59 Q316 36 281.5 25 Q247 14 212 15 Q177 16 144.5 30 Q112 44 88.5 67.5 Q65 91 54 129.5 Q43 168 50 214 Q59 264 83.5 306.5 Q108 349 142 375.5 Q176 402 215.5 417 Q255 432 295 431 Q335 430 369 413 Q391 403 398 387 L404 427 L498 427 L422 6 Z " />
<glyph glyph-name="h" unicode="h" horiz-adv-x="487" d="M413 229 Q400 159 393 120 Q386 81 384.5 71.5 Q383 62 379.5 44 Q376 26 371 -1 L277 -1 Q283 31 289 63 Q295 95 301.5 131.5 Q308 168 320 235 Q326 274 316 300.5 Q306 327 285.5 337.5 Q265 348 238 346 Q211 344 186 330.5 Q161 317 141.5 292 Q122 267 117 235 L75 -1 L-15 -1 L115 742 L209 748 L145 387 Q157 395 175.5 406 Q194 417 207 421 Q241 432 275 432 Q363 432 396 377 Q429 322 413 229 Z " />
<glyph glyph-name="i" unicode="i" horiz-adv-x="207" d="M95 545 Q99 568 118 581.5 Q137 595 156.5 595.5 Q176 596 190 583 Q204 570 200 546 Q196 521 176.5 506.5 Q157 492 137.5 492 Q118 492 104 506 Q90 520 95 545 Z M83 433 L175 433 L98 -2 L8 -2 L83 433 Z " />
<glyph glyph-name="j" unicode="j" horiz-adv-x="207" d="M105 545 Q109 568 127.5 581.5 Q146 595 166 595.5 Q186 596 200 583 Q214 570 210 546 Q205 521 186 506.5 Q167 492 147.5 492 Q128 492 114 506 Q100 520 105 545 Z M92 430 L184 430 L90 -102 L-1 -102 L92 430 Z " />
<glyph glyph-name="k" unicode="k" horiz-adv-x="490" d="M210 748 L119 238 L184 293 L339 425 L457 424 L226 227 L412 0 L294 -1 L161 161 L115 216 L77 0 L-16 0 L117 748 L210 748 Z " />
<glyph glyph-name="l" unicode="l" horiz-adv-x="210" d="M125 238 L83 0 L-10 0 L128 782 L222 782 L125 238 Z " />
<glyph glyph-name="m" unicode="m" horiz-adv-x="746" d="M292 433 Q327 433 349.5 423.5 Q372 414 390 393 Q398 386 405.5 384.5 Q413 383 417.5 384 Q422 385 432.5 392 Q443 399 448 401 Q471 416 501 424 Q517 430 527 430.5 Q537 431 550 430 Q637 430 670.5 373 Q704 316 687 223 Q675 153 668.5 115.5 Q662 78 660.5 69.5 Q659 61 655.5 45 Q652 29 647 1 L552 0 Q557 32 562.5 60.5 Q568 89 574.5 123 Q581 157 592 225 Q599 263 590.5 290.5 Q582 318 564 330.5 Q546 343 522.5 343 Q499 343 477 331.5 Q455 320 437 295 Q419 270 413 236 Q412 230 371 0 L284 0 Q290 33 295.5 64 Q301 95 307.5 130.5 Q314 166 326 233 Q333 272 323.5 299.5 Q314 327 296 338.5 Q278 350 253.5 349.5 Q229 349 206.5 337.5 Q184 326 166 301.5 Q148 277 142 245 L99 0 L9 0 L83 429 L176 429 L170 394 Q189 406 200.5 412 Q212 418 238 425.5 Q264 433 292 433 Z " />
<glyph glyph-name="n" unicode="n" horiz-adv-x="426" d="M408 230 Q408 230 366 0 L272 0 Q278 33 283.5 65.5 Q289 98 296.5 135 Q304 172 315 239 Q322 278 313 305 Q304 332 285.5 343 Q267 354 242.5 352.5 Q218 351 195 338.5 Q172 326 154 301 Q136 276 130 244 L89 0 L-1 0 L74 429 L167 429 L161 396 Q167 399 211 420 Q232 429 287 429 Q373 429 399 377.5 Q425 326 408 230 Z " />
<glyph glyph-name="o" unicode="o" horiz-adv-x="499" d="M274 362 Q231 362 195 341 Q159 320 139 289.5 Q119 259 112.5 223 Q106 187 114.5 156 Q123 125 151 104.5 Q179 84 222 84 Q288 84 334 127 Q365 156 379.5 196.5 Q394 237 388.5 273.5 Q383 310 353.5 336 Q324 362 274 362 Z M287 434 Q359 434 405.5 402 Q452 370 466.5 322 Q481 274 470.5 217.5 Q460 161 427.5 112.5 Q395 64 336.5 32 Q278 0 207 0 Q135 0 87.5 32 Q40 64 25.5 112.5 Q11 161 22 217.5 Q33 274 66 322 Q99 370 157.5 402 Q216 434 287 434 Z " />
<glyph glyph-name="p" unicode="p" horiz-adv-x="507" d="M485 207 Q474 148 443 102.5 Q412 57 370 32.5 Q328 8 282 -2 Q236 -12 192.5 -3 Q149 6 117 31 L75 -201 L-15 -201 L95 427 L188 427 L182 395 Q223 420 270.5 429 Q318 438 360.5 427 Q403 416 436 390 Q469 364 483 316 Q497 268 485 207 Z M392 211 Q400 256 385 290 Q370 324 340 337 Q310 350 277 349.5 Q244 349 212 326.5 Q180 304 162 265 Q158 252 150.5 213 Q143 174 144 160 Q147 123 171.5 101.5 Q196 80 229 79.5 Q262 79 296 91 Q330 103 357 135 Q384 167 392 211 Z " />
<glyph glyph-name="q" unicode="q" horiz-adv-x="497" d="M50 207 Q57 252 76 290 Q95 328 121.5 354.5 Q148 381 180 399.5 Q212 418 246 425.5 Q280 433 313.5 432 Q347 431 376 419 Q407 408 418 387 L425 427 L518 427 L406 -201 L316 -201 L356 31 Q316 6 269 -3 Q222 -12 179.5 -2 Q137 8 104 32.5 Q71 57 56 102.5 Q41 148 50 207 Z M145 211 Q137 167 153 135 Q169 103 198.5 91 Q228 79 261.5 79.5 Q295 80 326.5 101.5 Q358 123 375 160 Q380 174 386.5 213 Q393 252 393 265 Q389 304 365 326.5 Q341 349 308 349.5 Q275 350 241 337 Q207 324 180 290 Q153 256 145 211 Z " />
<glyph glyph-name="r" unicode="r" horiz-adv-x="343" d="M301 440 Q330 440 355 427 L305 345 Q279 351 245 343.5 Q211 336 187 314 Q165 294 145.5 262.5 Q126 231 121 204 L84 0 L-6 0 L69 429 L162 429 L146 343 L147 344 Q158 377 186.5 400 Q215 423 244 431.5 Q273 440 301 440 Z " />
<glyph glyph-name="s" unicode="s" horiz-adv-x="416" d="M20 74 L99 134 Q125 91 183 84 Q212 80 235 90.5 Q258 101 266.5 117 Q275 133 267.5 149.5 Q260 166 235 174 Q162 196 147 202 Q111 218 100 249 Q89 280 95 314 Q98 332 108.5 351.5 Q119 371 138.5 390.5 Q158 410 193.5 422.5 Q229 435 273 435 Q357 435 389 394 L329 330 Q310 358 274 363 Q261 365 245 362.5 Q229 360 213 349 Q197 338 193 318 Q187 282 231 267 L276 258 Q325 242 346.5 212 Q368 182 364 149.5 Q360 117 343.5 88 Q327 59 303 39 Q274 15 240.5 6.5 Q207 -2 163 -3 Q129 -4 80.5 17.5 Q32 39 20 74 Z " />
<glyph glyph-name="t" unicode="t" horiz-adv-x="243" d="M196 422 L244 422 L229 338 L180 338 L121 -2 L26 -2 L86 340 L43 340 L57 422 L103 422 Q103 422 119 514 L212 514 Q202 456 196 422 Z " />
<glyph glyph-name="u" unicode="u" horiz-adv-x="472" d="M38 199 Q51 269 58 308 Q65 347 67 356.5 Q69 366 72 384 Q75 402 80 429 L174 429 Q132 191 132 190 Q125 151 134 126.5 Q143 102 162.5 94.5 Q182 87 206 92.5 Q230 98 253.5 114 Q277 130 296 157 Q315 184 320 216 L357 429 L448 429 L373 0 L280 0 L289 64 Q281 59 260.5 40 Q240 21 229 16 Q194 0 160 0 Q73 0 47 51.5 Q21 103 38 199 Z " />
<glyph glyph-name="v" unicode="v" horiz-adv-x="467" d="M479 429 L189 -37 L71 427 L167 428 L228 181 L388 430 L479 429 Z " />
<glyph glyph-name="w" unicode="w" horiz-adv-x="585" d="M337 342 L392 177 L529 430 L620 429 L371 -31 L305 166 L161 -31 L72 427 L168 428 L218 174 L337 342 L337 342 Z " />
<glyph glyph-name="x" unicode="x" horiz-adv-x="492" d="M-4 0 L79 93 L200 234 L149 335 L100 427 L220 428 L259 335 L269 315 L364 428 L470 428 L369 308 L308 235 L364 120 L422 -1 L316 0 L259 114 L240 154 L189 93 L116 0 L-4 0 Z " />
<glyph glyph-name="y" unicode="y" horiz-adv-x="462" d="M177 75 L75 427 L171 428 L246 181 L418 430 L508 429 L91 -200 L-16 -200 L177 75 Z " />
<glyph glyph-name="z" unicode="z" horiz-adv-x="446" d="M83 346 L96 424 L449 424 L381 343 L381 343 L168 86 L396 86 L381 0 L-7 0 L290 347 L83 346 Z " />
<glyph glyph-name="braceleft" unicode="&#x7b;" horiz-adv-x="268" d="M105 144 Q95 42 168 -24 L149 -136 Q77 -98 39.5 -26 Q2 46 11 147 Q11 148 13 156.5 Q15 165 17.5 176.5 Q20 188 21.5 204 Q23 220 23.5 235 Q24 250 21.5 265.5 Q19 281 13.5 292 Q8 303 -2.5 310.5 Q-13 318 -29 318 Q1 318 22.5 346 Q44 374 52.5 407.5 Q61 441 66.5 471.5 Q72 502 73 502 Q98 601 161 670.5 Q224 740 310 775 L292 672 Q199 613 168 505 Q168 504 162 474 Q156 444 147 410.5 Q138 377 116.5 348.5 Q95 320 65 320 Q81 320 92 312.5 Q103 305 108 293.5 Q113 282 116 266 Q119 250 118 234.5 Q117 219 115 202.5 Q113 186 111 174.5 Q109 163 108 154 Q105 145 105 144 Z " />
<glyph glyph-name="bar" unicode="&#x7c;" horiz-adv-x="207" d="M133 238 L89 0 L-4 0 L118 697 L212 697 L133 238 Z " />
<glyph glyph-name="braceright" unicode="&#x7d;" horiz-adv-x="268" d="M34 144 Q34 145 36 154 Q36 163 38 174.5 Q40 186 44 202.5 Q48 219 53 234.5 Q58 250 65.5 266 Q73 282 82.5 293.5 Q92 305 106 312.5 Q120 320 136 320 Q106 320 94 348.5 Q82 377 85.5 410.5 Q89 444 94 474 Q99 504 99 505 Q106 613 33 672 L51 775 Q125 740 164 670.5 Q203 601 192 502 Q192 501 188 472 Q182 441 179.5 407.5 Q177 374 188.5 346 Q200 318 230 318 Q214 318 200.5 310.5 Q187 303 177.5 292 Q168 281 160 265.5 Q152 250 147 235 Q142 220 138.5 204 Q135 188 133.5 176.5 Q132 165 131 156.5 Q130 148 130 147 Q103 46 39.5 -26 Q-24 -98 -108 -136 L-89 -24 Q8 42 34 144 Z " />
<glyph glyph-name="asciitilde" unicode="&#x7e;" horiz-adv-x="496" d="M284 559 Q288 545 302 543.5 Q316 542 326.5 552.5 Q337 563 333 577 Q333 577 333 578 Q333 578 332 579 L378 598 L377 597 Q383 573 374.5 552 Q366 531 346 519.5 Q326 508 304.5 504 Q283 500 265 509 Q247 518 240 539 L284 559 Z M240 539 Q236 553 222 554.5 Q208 556 197.5 545.5 Q187 535 191 521 Q191 521 191 520 Q191 520 192 519 L146 500 L147 501 Q141 525 149.5 546 Q158 567 178 578.5 Q198 590 219.5 594 Q241 598 259 589 Q277 580 284 559 L240 539 Z " />
<glyph glyph-name="exclamdown" unicode="&#xa1;" horiz-adv-x="238" d="M13 1 L85 442 L176 442 L103 1 L13 1 Z M105 634 Q109 662 130 678 Q151 694 173 694 Q195 694 210 677.5 Q225 661 220 632 Q215 605 194.5 590 Q174 575 152 575.5 Q130 576 115 591.5 Q100 607 105 634 Z " />
<glyph glyph-name="yen" unicode="&#xa5;" horiz-adv-x="604" d="M22 200 L523 200 L506 112 L5 112 L22 200 Z M51 380 L552 380 L538 292 L37 292 L51 380 Z M77 692 L183 692 L317 418 L543 692 L649 692 L352 334 L294 3 L187 0 L252 330 L253 330 L77 692 Z " />
<glyph glyph-name="brokenbar" unicode="&#xa6;" horiz-adv-x="207" d="M57 315 L141 315 L89 0 L2 0 L57 315 Z M125 696 L209 696 L154 387 L70 387 L125 696 Z " />
<glyph glyph-name="dieresis" unicode="&#xa8;" horiz-adv-x="713" d="M161 805 Q165 832 186 848 Q207 864 229 864 Q251 864 266.5 849 Q282 834 277 807 Q272 778 251 761.5 Q230 745 208 745 Q186 745 171 761 Q156 777 161 805 Z M408 800 Q412 827 433 843 Q454 859 476 859 Q498 859 513.5 844 Q529 829 524 802 Q519 773 498 756.5 Q477 740 455 740 Q433 740 418 756 Q403 772 408 800 Z " />
<glyph glyph-name="guillemotleft" unicode="&#xab;" horiz-adv-x="605" d="M469 428 L454 341 L367 288 L434 229 L419 138 L242 289 L469 428 Z M263 430 L248 344 L160 290 L228 232 L213 140 L34 292 L263 430 Z " />
<glyph glyph-name="degree" unicode="&#xb0;" horiz-adv-x="560" d="M257 802 Q254 786 265 779.5 Q276 773 289.5 779.5 Q303 786 306 803 Q309 818 297.5 824.5 Q286 831 272.5 824 Q259 817 257 802 Z M211 801 Q216 833 241 850.5 Q266 868 292 866 Q318 864 336.5 846 Q355 828 350 799 Q345 768 319.5 749.5 Q294 731 268 730 Q242 729 223.5 748 Q205 767 211 801 Z " />
<glyph glyph-name="plusminus" unicode="&#xb1;" horiz-adv-x="495" d="M391 127 L3 127 L19 217 L407 218 L391 127 Z M439 474 L303 473 L277 318 L186 318 L213 473 L72 472 L88 562 L230 561 L253 707 L343 707 L318 563 L455 564 L439 474 Z " />
<glyph glyph-name="uni00B2" unicode="&#xb2;" horiz-adv-x="402" d="M120 525 L307 723 Q340 763 340.5 794 Q341 825 308 833 Q292 837 269 828 Q246 819 235 798 L201 823 Q236 878 306 876 Q356 875 376 848.5 Q396 822 383 778 Q370 734 326 685 L220 570 L357 571 L349 525 L170 525 L120 525 Z " />
<glyph glyph-name="uni00B3" unicode="&#xb3;" horiz-adv-x="382" d="M275 730 Q299 734 314.5 759.5 Q330 785 322 807 Q316 827 290 833 Q272 837 250 832 Q228 827 215 809 L181 833 Q220 876 290 874 Q322 874 343.5 858.5 Q365 843 370.5 820.5 Q376 798 366 770 Q356 742 330 719 Q356 686 357 649.5 Q358 613 339 585 Q320 557 287.5 538 Q255 519 218 519 Q163 517 115 545 L150 579 Q167 571 181 567 Q195 563 205 563 Q215 563 227 563 Q263 563 286.5 590 Q310 617 307 648 Q304 679 273 690 L227 691 L233 729 L275 730 Z " />
<glyph glyph-name="acute" unicode="&#xb4;" horiz-adv-x="1000" d="M441 985 L490 912 L317 791 L275 838 L441 985 Z " />
<glyph glyph-name="uni00B9" unicode="&#xb9;" horiz-adv-x="284" d="M187 786 L172 772 L146 800 L224 863 L254 890 L245 832 L245 832 L198 569 L199 569 L192 530 L143 530 L150 569 L187 786 Z " />
<glyph glyph-name="guillemotright" unicode="&#xbb;" horiz-adv-x="605" d="M59 428 L238 289 L7 138 L24 229 L113 288 L44 341 L59 428 Z M267 430 L446 292 L215 140 L232 232 L320 290 L252 344 L267 430 Z " />
<glyph glyph-name="questiondown" unicode="&#xbf;" horiz-adv-x="548" d="M247 77 Q278 77 302 86.5 Q326 96 340 110 Q354 124 372 140 L401 71 Q363 35 320 17.5 Q277 0 221 0 Q132 0 88.5 50 Q45 100 59 182 Q66 223 90.5 258.5 Q115 294 163 336 L213 380 Q257 420 267 440.5 Q277 461 286 513 L291 530 L389 535 L382 502 Q372 444 350.5 411 Q329 378 284 339 L233 293 Q223 284 212.5 276 Q202 268 192 257.5 Q182 247 174 237 Q166 227 160 215.5 Q154 204 153 192 Q135 77 247 77 Z M426 690 Q421 663 400 647.5 Q379 632 357 631.5 Q335 631 319.5 646 Q304 661 309 688 Q314 717 335 733.5 Q356 750 378 750 Q400 750 415 734 Q430 718 426 690 Z " />
<glyph glyph-name="Agrave" unicode="&#xc0;" horiz-adv-x="695" d="M354 961 L468 814 L410 767 L279 888 L354 961 Z M395 731 L420 639 L591 1 L496 1 L442 183 L167 183 L54 1 L-41 1 L352 656 L395 731 Z M418 266 L358 514 L217 266 L418 266 Z " />
<glyph glyph-name="Aacute" unicode="&#xc1;" horiz-adv-x="695" d="M454 961 L503 888 L330 767 L288 814 L454 961 Z M395 731 L420 639 L591 1 L496 1 L442 183 L167 183 L54 1 L-41 1 L352 656 L395 731 Z M418 266 L358 514 L217 266 L418 266 Z " />
<glyph glyph-name="Acircumflex" unicode="&#xc2;" horiz-adv-x="674" d="M553 792 L466 792 L427 870 L354 792 L262 791 L450 996 L553 792 Z M395 731 L420 639 L591 1 L496 1 L442 183 L167 183 L54 1 L-41 1 L352 656 L395 731 Z M418 266 L358 514 L217 266 L418 266 Z " />
<glyph glyph-name="Atilde" unicode="&#xc3;" horiz-adv-x="674" d="M452 851 Q456 837 470 835.5 Q484 834 494.5 844.5 Q505 855 501 869 Q501 869 501 870 Q501 870 500 871 L546 890 L545 889 Q551 865 542.5 844 Q534 823 514 811.5 Q494 800 472.5 796 Q451 792 433 801 Q415 810 408 831 L452 851 Z M408 831 Q404 845 390 846.5 Q376 848 365.5 837.5 Q355 827 359 813 Q359 813 359 812 Q359 812 360 811 L314 792 L315 793 Q309 817 317.5 838 Q326 859 346 870.5 Q366 882 387.5 886 Q409 890 427 881 Q445 872 452 851 L408 831 Z M395 731 L420 639 L591 1 L496 1 L442 183 L167 183 L54 1 L-41 1 L352 656 L395 731 Z M418 266 L358 514 L217 266 L418 266 Z " />
<glyph glyph-name="Adieresis" unicode="&#xc4;" horiz-adv-x="695" d="M395 731 L420 639 L591 1 L496 1 L442 183 L167 183 L54 1 L-41 1 L352 656 L395 731 Z M418 266 L358 514 L217 266 L418 266 Z M231 805 Q235 832 256 848 Q277 864 299 864 Q321 864 336.5 849 Q352 834 347 807 Q342 778 321 761.5 Q300 745 278 745 Q256 745 241 761 Q226 777 231 805 Z M478 800 Q482 827 503 843 Q524 859 546 859 Q568 859 583.5 844 Q599 829 594 802 Q589 773 568 756.5 Q547 740 525 740 Q503 740 488 756 Q473 772 478 800 Z " />
<glyph glyph-name="Aring" unicode="&#xc5;" horiz-adv-x="695" d="M376 802 Q373 786 384 779.5 Q395 773 408.5 779.5 Q422 786 425 803 Q428 818 416.5 824.5 Q405 831 391.5 824 Q378 817 376 802 Z M330 801 Q335 833 360 850.5 Q385 868 411 866 Q437 864 455.5 846 Q474 828 469 799 Q464 768 438.5 749.5 Q413 731 387 730 Q361 729 342.5 748 Q324 767 330 801 Z M395 731 L420 639 L591 1 L496 1 L442 183 L167 183 L54 1 L-41 1 L352 656 L395 731 Z M418 266 L358 514 L217 266 L418 266 Z " />
<glyph glyph-name="Egrave" unicode="&#xc8;" horiz-adv-x="518" d="M280 961 L394 814 L336 767 L205 888 L280 961 Z M117 693 L483 693 L468 608 L194 608 L160 412 L356 412 L341 329 L145 329 L101 82 L384 82 L370 0 L-5 0 L117 693 Z " />
<glyph glyph-name="Eacute" unicode="&#xc9;" horiz-adv-x="518" d="M378 961 L427 888 L254 767 L212 814 L378 961 Z M117 693 L483 693 L468 608 L194 608 L160 412 L356 412 L341 329 L145 329 L101 82 L384 82 L370 0 L-5 0 L117 693 Z " />
<glyph glyph-name="Ecircumflex" unicode="&#xca;" horiz-adv-x="483" d="M457 768 L370 768 L331 846 L258 768 L166 767 L354 972 L457 768 Z M117 693 L483 693 L468 608 L194 608 L160 412 L356 412 L341 329 L145 329 L101 82 L384 82 L370 0 L-5 0 L117 693 Z " />
<glyph glyph-name="Edieresis" unicode="&#xcb;" horiz-adv-x="483" d="M131 832 Q135 859 156 875 Q177 891 199 891 Q221 891 236.5 876 Q252 861 247 834 Q242 805 221 788.5 Q200 772 178 772 Q156 772 141 788 Q126 804 131 832 Z M378 827 Q382 854 403 870 Q424 886 446 886 Q468 886 483.5 871 Q499 856 494 829 Q489 800 468 783.5 Q447 767 425 767 Q403 767 388 783 Q373 799 378 827 Z M117 693 L483 693 L468 608 L194 608 L160 412 L356 412 L341 329 L145 329 L101 82 L384 82 L370 0 L-5 0 L117 693 Z " />
<glyph glyph-name="Igrave" unicode="&#xcc;" horiz-adv-x="207" d="M101 961 L215 814 L157 767 L26 888 L101 961 Z M121 696 L211 696 L90 1 L0 1 L121 696 Z " />
<glyph glyph-name="Iacute" unicode="&#xcd;" horiz-adv-x="207" d="M273 961 L322 888 L149 767 L107 814 L273 961 Z M121 696 L211 696 L90 1 L0 1 L121 696 Z " />
<glyph glyph-name="Icircumflex" unicode="&#xce;" horiz-adv-x="207" d="M322 768 L235 768 L196 846 L123 768 L31 767 L219 972 L322 768 Z M121 696 L211 696 L90 1 L0 1 L121 696 Z " />
<glyph glyph-name="Idieresis" unicode="&#xcf;" horiz-adv-x="207" d="M134 832 Q138 859 159 875 Q180 891 202 891 Q224 891 239.5 876 Q255 861 250 834 Q245 805 224 788.5 Q203 772 181 772 Q159 772 144 788 Q129 804 134 832 Z M381 827 Q385 854 406 870 Q427 886 449 886 Q471 886 486.5 871 Q502 856 497 829 Q492 800 471 783.5 Q450 767 428 767 Q406 767 391 783 Q376 799 381 827 Z M258 696 L348 696 L227 1 L137 1 L258 696 Z " />
<glyph glyph-name="Ograve" unicode="&#xd2;" horiz-adv-x="752" d="M354 961 L468 814 L410 767 L279 888 L354 961 Z M402 627 Q344 627 293.5 603.5 Q243 580 208.5 541.5 Q174 503 150 454 Q126 405 118 354 Q110 303 118.5 253.5 Q127 204 150.5 166 Q174 128 218 104.5 Q262 81 322 81 Q383 81 438.5 104.5 Q494 128 532 166.5 Q570 205 596 254.5 Q622 304 631.5 355.5 Q641 407 631.5 456 Q622 505 596.5 543.5 Q571 582 521 605 Q471 628 402 627 Z M424 707 Q513 707 579 676 Q645 645 680 595 Q715 545 727 481 Q739 417 727 350.5 Q715 284 680.5 220.5 Q646 157 593.5 107.5 Q541 58 465.5 27.5 Q390 -3 305 -3 Q222 -3 160.5 27.5 Q99 58 67 108 Q35 158 24 221.5 Q13 285 25 352 Q37 419 69.5 482.5 Q102 546 151.5 596 Q201 646 272 676.5 Q343 707 424 707 Z " />
<glyph glyph-name="Oacute" unicode="&#xd3;" horiz-adv-x="752" d="M534 961 L583 888 L410 767 L368 814 L534 961 Z M402 627 Q344 627 293.5 603.5 Q243 580 208.5 541.5 Q174 503 150 454 Q126 405 118 354 Q110 303 118.5 253.5 Q127 204 150.5 166 Q174 128 218 104.5 Q262 81 322 81 Q383 81 438.5 104.5 Q494 128 532 166.5 Q570 205 596 254.5 Q622 304 631.5 355.5 Q641 407 631.5 456 Q622 505 596.5 543.5 Q571 582 521 605 Q471 628 402 627 Z M424 707 Q513 707 579 676 Q645 645 680 595 Q715 545 727 481 Q739 417 727 350.5 Q715 284 680.5 220.5 Q646 157 593.5 107.5 Q541 58 465.5 27.5 Q390 -3 305 -3 Q222 -3 160.5 27.5 Q99 58 67 108 Q35 158 24 221.5 Q13 285 25 352 Q37 419 69.5 482.5 Q102 546 151.5 596 Q201 646 272 676.5 Q343 707 424 707 Z " />
<glyph glyph-name="Ocircumflex" unicode="&#xd4;" horiz-adv-x="752" d="M581 768 L494 768 L455 846 L382 768 L290 767 L478 972 L581 768 Z M402 627 Q344 627 293.5 603.5 Q243 580 208.5 541.5 Q174 503 150 454 Q126 405 118 354 Q110 303 118.5 253.5 Q127 204 150.5 166 Q174 128 218 104.5 Q262 81 322 81 Q383 81 438.5 104.5 Q494 128 532 166.5 Q570 205 596 254.5 Q622 304 631.5 355.5 Q641 407 631.5 456 Q622 505 596.5 543.5 Q571 582 521 605 Q471 628 402 627 Z M424 707 Q513 707 579 676 Q645 645 680 595 Q715 545 727 481 Q739 417 727 350.5 Q715 284 680.5 220.5 Q646 157 593.5 107.5 Q541 58 465.5 27.5 Q390 -3 305 -3 Q222 -3 160.5 27.5 Q99 58 67 108 Q35 158 24 221.5 Q13 285 25 352 Q37 419 69.5 482.5 Q102 546 151.5 596 Q201 646 272 676.5 Q343 707 424 707 Z " />
<glyph glyph-name="Otilde" unicode="&#xd5;" horiz-adv-x="752" d="M480 827 Q484 813 498 811.5 Q512 810 522.5 820.5 Q533 831 529 845 Q529 845 529 846 Q529 846 528 847 L574 866 L573 865 Q579 841 570.5 820 Q562 799 542 787.5 Q522 776 500.5 772 Q479 768 461 777 Q443 786 436 807 L480 827 Z M436 807 Q432 821 418 822.5 Q404 824 393.5 813.5 Q383 803 387 789 Q387 789 387 788 Q387 788 388 787 L342 768 L343 769 Q337 793 345.5 814 Q354 835 374 846.5 Q394 858 415.5 862 Q437 866 455 857 Q473 848 480 827 L436 807 Z M402 627 Q344 627 293.5 603.5 Q243 580 208.5 541.5 Q174 503 150 454 Q126 405 118 354 Q110 303 118.5 253.5 Q127 204 150.5 166 Q174 128 218 104.5 Q262 81 322 81 Q383 81 438.5 104.5 Q494 128 532 166.5 Q570 205 596 254.5 Q622 304 631.5 355.5 Q641 407 631.5 456 Q622 505 596.5 543.5 Q571 582 521 605 Q471 628 402 627 Z M424 707 Q513 707 579 676 Q645 645 680 595 Q715 545 727 481 Q739 417 727 350.5 Q715 284 680.5 220.5 Q646 157 593.5 107.5 Q541 58 465.5 27.5 Q390 -3 305 -3 Q222 -3 160.5 27.5 Q99 58 67 108 Q35 158 24 221.5 Q13 285 25 352 Q37 419 69.5 482.5 Q102 546 151.5 596 Q201 646 272 676.5 Q343 707 424 707 Z " />
<glyph glyph-name="Odieresis" unicode="&#xd6;" horiz-adv-x="812" d="M402 627 Q344 627 293.5 603.5 Q243 580 208.5 541.5 Q174 503 150 454 Q126 405 118 354 Q110 303 118.5 253.5 Q127 204 150.5 166 Q174 128 218 104.5 Q262 81 322 81 Q383 81 438.5 104.5 Q494 128 532 166.5 Q570 205 596 254.5 Q622 304 631.5 355.5 Q641 407 631.5 456 Q622 505 596.5 543.5 Q571 582 521 605 Q471 628 402 627 Z M424 707 Q513 707 579 676 Q645 645 680 595 Q715 545 727 481 Q739 417 727 350.5 Q715 284 680.5 220.5 Q646 157 593.5 107.5 Q541 58 465.5 27.5 Q390 -3 305 -3 Q222 -3 160.5 27.5 Q99 58 67 108 Q35 158 24 221.5 Q13 285 25 352 Q37 419 69.5 482.5 Q102 546 151.5 596 Q201 646 272 676.5 Q343 707 424 707 Z M257 805 Q261 832 282 848 Q303 864 325 864 Q347 864 362.5 849 Q378 834 373 807 Q368 778 347 761.5 Q326 745 304 745 Q282 745 267 761 Q252 777 257 805 Z M504 800 Q508 827 529 843 Q550 859 572 859 Q594 859 609.5 844 Q625 829 620 802 Q615 773 594 756.5 Q573 740 551 740 Q529 740 514 756 Q499 772 504 800 Z " />
<glyph glyph-name="multiply" unicode="&#xd7;" horiz-adv-x="495" d="M423 457 L310 360 L400 251 L325 187 L234 296 L119 196 L66 260 L185 361 L98 461 L173 525 L257 423 L370 521 L423 457 Z " />
<glyph glyph-name="Ugrave" unicode="&#xd9;" horiz-adv-x="592" d="M205 685 L133 266 Q126 224 132.5 189 Q139 154 155.5 132.5 Q172 111 196.5 99.5 Q221 88 248.5 88 Q276 88 304.5 100 Q333 112 358 133.5 Q383 155 402 190.5 Q421 226 430 270 L432 268 L504 682 L595 682 L525 265 Q515 200 485 148.5 Q455 97 414.5 65.5 Q374 34 327 17.5 Q280 1 233.5 2 Q187 3 146 20.5 Q105 38 76.5 69.5 Q48 101 37.5 152 Q27 203 40 264 L112 683 L205 685 Z M293 961 L407 814 L349 767 L218 888 L293 961 Z " />
<glyph glyph-name="Uacute" unicode="&#xda;" horiz-adv-x="592" d="M205 685 L133 266 Q126 224 132.5 189 Q139 154 155.5 132.5 Q172 111 196.5 99.5 Q221 88 248.5 88 Q276 88 304.5 100 Q333 112 358 133.5 Q383 155 402 190.5 Q421 226 430 270 L432 268 L504 682 L595 682 L525 265 Q515 200 485 148.5 Q455 97 414.5 65.5 Q374 34 327 17.5 Q280 1 233.5 2 Q187 3 146 20.5 Q105 38 76.5 69.5 Q48 101 37.5 152 Q27 203 40 264 L112 683 L205 685 Z M478 961 L527 888 L354 767 L312 814 L478 961 Z " />
<glyph glyph-name="Ucircumflex" unicode="&#xdb;" horiz-adv-x="592" d="M205 685 L133 266 Q126 224 132.5 189 Q139 154 155.5 132.5 Q172 111 196.5 99.5 Q221 88 248.5 88 Q276 88 304.5 100 Q333 112 358 133.5 Q383 155 402 190.5 Q421 226 430 270 L432 268 L504 682 L595 682 L525 265 Q515 200 485 148.5 Q455 97 414.5 65.5 Q374 34 327 17.5 Q280 1 233.5 2 Q187 3 146 20.5 Q105 38 76.5 69.5 Q48 101 37.5 152 Q27 203 40 264 L112 683 L205 685 Z M517 768 L430 768 L391 846 L318 768 L226 767 L414 972 L517 768 Z " />
<glyph glyph-name="Udieresis" unicode="&#xdc;" horiz-adv-x="592" d="M205 685 L133 266 Q126 224 132.5 189 Q139 154 155.5 132.5 Q172 111 196.5 99.5 Q221 88 248.5 88 Q276 88 304.5 100 Q333 112 358 133.5 Q383 155 402 190.5 Q421 226 430 270 L432 268 L504 682 L595 682 L525 265 Q515 200 485 148.5 Q455 97 414.5 65.5 Q374 34 327 17.5 Q280 1 233.5 2 Q187 3 146 20.5 Q105 38 76.5 69.5 Q48 101 37.5 152 Q27 203 40 264 L112 683 L205 685 Z M191 805 Q195 832 216 848 Q237 864 259 864 Q281 864 296.5 849 Q312 834 307 807 Q302 778 281 761.5 Q260 745 238 745 Q216 745 201 761 Q186 777 191 805 Z M438 800 Q442 827 463 843 Q484 859 506 859 Q528 859 543.5 844 Q559 829 554 802 Q549 773 528 756.5 Q507 740 485 740 Q463 740 448 756 Q433 772 438 800 Z " />
<glyph glyph-name="germandbls" unicode="&#xdf;" horiz-adv-x="517" d="M70 0 L33 0 L34 1 L-16 0 L106 688 L306 688 L308 686 Q353 687 386 669.5 Q419 652 434.5 624 Q450 596 452.5 560.5 Q455 525 443.5 492 Q432 459 405.5 430 Q379 401 341 386 Q340 386 340 384.5 Q340 383 341 383 Q387 381 415 351.5 Q443 322 450 279 Q457 236 445 186.5 Q433 137 404 95 Q375 53 324 26 Q273 -1 212 1 L201 0 L109 0 L126 95 L241 95 Q280 95 309.5 119 Q339 143 349 178 Q359 213 356.5 247.5 Q354 282 331.5 307 Q309 332 272 333 L272 334 L168 334 L181 404 Q195 404 223.5 405.5 Q252 407 255 407 Q292 412 319 434.5 Q346 457 355 486.5 Q364 516 361.5 545 Q359 574 336.5 594 Q314 614 277 615 L277 616 L180 616 L70 0 Z " />
<glyph glyph-name="agrave" unicode="&#xe0;" horiz-adv-x="509" d="M238 686 L352 539 L294 492 L163 613 L238 686 Z M32 207 Q42 263 69 308 Q96 353 132.5 380 Q169 407 211.5 421 Q254 435 296 432.5 Q338 430 372 413 Q394 403 401 387 L408 427 L501 427 L424 0 L333 0 L339 31 Q298 6 250.5 -3 Q203 -12 161 -2 Q119 8 86.5 32.5 Q54 57 38.5 102.5 Q23 148 32 207 Z M119 210 Q111 165 126.5 131.5 Q142 98 173 86 Q204 74 238.5 74.5 Q273 75 306 97.5 Q339 120 355 157 Q362 172 368 212.5 Q374 253 374 266 Q371 300 353 321.5 Q335 343 308.5 350 Q282 357 251.5 351.5 Q221 346 194 328.5 Q167 311 146 280 Q125 249 119 210 Z " />
<glyph glyph-name="aacute" unicode="&#xe1;" horiz-adv-x="509" d="M371 688 L420 615 L247 494 L205 541 L371 688 Z M32 207 Q42 263 69 308 Q96 353 132.5 380 Q169 407 211.5 421 Q254 435 296 432.5 Q338 430 372 413 Q394 403 401 387 L408 427 L501 427 L424 0 L333 0 L339 31 Q298 6 250.5 -3 Q203 -12 161 -2 Q119 8 86.5 32.5 Q54 57 38.5 102.5 Q23 148 32 207 Z M119 210 Q111 165 126.5 131.5 Q142 98 173 86 Q204 74 238.5 74.5 Q273 75 306 97.5 Q339 120 355 157 Q362 172 368 212.5 Q374 253 374 266 Q371 300 353 321.5 Q335 343 308.5 350 Q282 357 251.5 351.5 Q221 346 194 328.5 Q167 311 146 280 Q125 249 119 210 Z " />
<glyph glyph-name="acircumflex" unicode="&#xe2;" horiz-adv-x="509" d="M418 495 L331 495 L292 573 L219 495 L127 494 L315 699 L418 495 Z M32 207 Q42 263 69 308 Q96 353 132.5 380 Q169 407 211.5 421 Q254 435 296 432.5 Q338 430 372 413 Q394 403 401 387 L408 427 L501 427 L424 0 L333 0 L339 31 Q298 6 250.5 -3 Q203 -12 161 -2 Q119 8 86.5 32.5 Q54 57 38.5 102.5 Q23 148 32 207 Z M119 210 Q111 165 126.5 131.5 Q142 98 173 86 Q204 74 238.5 74.5 Q273 75 306 97.5 Q339 120 355 157 Q362 172 368 212.5 Q374 253 374 266 Q371 300 353 321.5 Q335 343 308.5 350 Q282 357 251.5 351.5 Q221 346 194 328.5 Q167 311 146 280 Q125 249 119 210 Z " />
<glyph glyph-name="atilde" unicode="&#xe3;" horiz-adv-x="509" d="M317 554 Q321 540 335 538.5 Q349 537 359.5 547.5 Q370 558 366 572 Q366 572 366 573 Q366 573 365 574 L411 593 L410 592 Q416 568 407.5 547 Q399 526 379 514.5 Q359 503 337.5 499 Q316 495 298 504 Q280 513 273 534 L317 554 Z M273 534 Q269 548 255 549.5 Q241 551 230.5 540.5 Q220 530 224 516 Q224 516 224 515 Q224 515 225 514 L179 495 L180 496 Q174 520 182.5 541 Q191 562 211 573.5 Q231 585 252.5 589 Q274 593 292 584 Q310 575 317 554 L273 534 Z M32 207 Q42 263 69 308 Q96 353 132.5 380 Q169 407 211.5 421 Q254 435 296 432.5 Q338 430 372 413 Q394 403 401 387 L408 427 L501 427 L424 0 L333 0 L339 31 Q298 6 250.5 -3 Q203 -12 161 -2 Q119 8 86.5 32.5 Q54 57 38.5 102.5 Q23 148 32 207 Z M119 210 Q111 165 126.5 131.5 Q142 98 173 86 Q204 74 238.5 74.5 Q273 75 306 97.5 Q339 120 355 157 Q362 172 368 212.5 Q374 253 374 266 Q371 300 353 321.5 Q335 343 308.5 350 Q282 357 251.5 351.5 Q221 346 194 328.5 Q167 311 146 280 Q125 249 119 210 Z " />
<glyph glyph-name="adieresis" unicode="&#xe4;" horiz-adv-x="496" d="M32 207 Q42 263 69 308 Q96 353 132.5 380 Q169 407 211.5 421 Q254 435 296 432.5 Q338 430 372 413 Q394 403 401 387 L408 427 L501 427 L424 0 L333 0 L339 31 Q298 6 250.5 -3 Q203 -12 161 -2 Q119 8 86.5 32.5 Q54 57 38.5 102.5 Q23 148 32 207 Z M119 210 Q111 165 126.5 131.5 Q142 98 173 86 Q204 74 238.5 74.5 Q273 75 306 97.5 Q339 120 355 157 Q362 172 368 212.5 Q374 253 374 266 Q371 300 353 321.5 Q335 343 308.5 350 Q282 357 251.5 351.5 Q221 346 194 328.5 Q167 311 146 280 Q125 249 119 210 Z M111 573 Q115 600 136 616 Q157 632 179 632 Q201 632 216.5 617 Q232 602 227 575 Q222 546 201 529.5 Q180 513 158 513 Q136 513 121 529 Q106 545 111 573 Z M358 568 Q362 595 383 611 Q404 627 426 627 Q448 627 463.5 612 Q479 597 474 570 Q469 541 448 524.5 Q427 508 405 508 Q383 508 368 524 Q353 540 358 568 Z " />
<glyph glyph-name="aring" unicode="&#xe5;" horiz-adv-x="496" d="M264 582 Q261 566 272 559.5 Q283 553 296.5 559.5 Q310 566 313 583 Q316 598 304.5 604.5 Q293 611 279.5 604 Q266 597 264 582 Z M218 581 Q223 613 248 630.5 Q273 648 299 646 Q325 644 343.5 626 Q362 608 357 579 Q352 548 326.5 529.5 Q301 511 275 510 Q249 509 230.5 528 Q212 547 218 581 Z M32 207 Q42 263 69 308 Q96 353 132.5 380 Q169 407 211.5 421 Q254 435 296 432.5 Q338 430 372 413 Q394 403 401 387 L408 427 L501 427 L424 0 L333 0 L339 31 Q298 6 250.5 -3 Q203 -12 161 -2 Q119 8 86.5 32.5 Q54 57 38.5 102.5 Q23 148 32 207 Z M119 210 Q111 165 126.5 131.5 Q142 98 173 86 Q204 74 238.5 74.5 Q273 75 306 97.5 Q339 120 355 157 Q362 172 368 212.5 Q374 253 374 266 Q371 300 353 321.5 Q335 343 308.5 350 Q282 357 251.5 351.5 Q221 346 194 328.5 Q167 311 146 280 Q125 249 119 210 Z " />
<glyph glyph-name="egrave" unicode="&#xe8;" horiz-adv-x="470" d="M195 688 L309 541 L251 494 L120 615 L195 688 Z M428 81 Q394 45 335 20 Q304 6 260 1 Q240 -1 220 -1 Q193 -1 169 3 Q115 14 81 46.5 Q47 79 36.5 122 Q26 165 35 214 Q44 263 70.5 306.5 Q97 350 143 383.5 Q189 417 245 428 Q273 433 302 433 Q329 433 352 429 Q409 417 438.5 377 Q468 337 469.5 286.5 Q471 236 451 180 L125 179 Q130 137 154.5 115 Q179 93 239 88 Q251 86 267 87.5 Q283 89 310.5 98.5 Q338 108 360 126 L361 127 L428 82 L428 81 Z M379 252 Q389 356 288 356 Q232 356 192 324 Q152 292 140 251 L379 252 Z " />
<glyph glyph-name="eacute" unicode="&#xe9;" horiz-adv-x="470" d="M374 688 L423 615 L250 494 L208 541 L374 688 Z M428 81 Q394 45 335 20 Q304 6 260 1 Q240 -1 220 -1 Q193 -1 169 3 Q115 14 81 46.5 Q47 79 36.5 122 Q26 165 35 214 Q44 263 70.5 306.5 Q97 350 143 383.5 Q189 417 245 428 Q273 433 302 433 Q329 433 352 429 Q409 417 438.5 377 Q468 337 469.5 286.5 Q471 236 451 180 L125 179 Q130 137 154.5 115 Q179 93 239 88 Q251 86 267 87.5 Q283 89 310.5 98.5 Q338 108 360 126 L361 127 L428 82 L428 81 Z M379 252 Q389 356 288 356 Q232 356 192 324 Q152 292 140 251 L379 252 Z " />
<glyph glyph-name="ecircumflex" unicode="&#xea;" horiz-adv-x="500" d="M436 495 L349 495 L310 573 L237 495 L145 494 L333 699 L436 495 Z M428 81 Q394 45 335 20 Q304 6 260 1 Q240 -1 220 -1 Q193 -1 169 3 Q115 14 81 46.5 Q47 79 36.5 122 Q26 165 35 214 Q44 263 70.5 306.5 Q97 350 143 383.5 Q189 417 245 428 Q273 433 302 433 Q329 433 352 429 Q409 417 438.5 377 Q468 337 469.5 286.5 Q471 236 451 180 L125 179 Q130 137 154.5 115 Q179 93 239 88 Q251 86 267 87.5 Q283 89 310.5 98.5 Q338 108 360 126 L361 127 L428 82 L428 81 Z M379 252 Q389 356 288 356 Q232 356 192 324 Q152 292 140 251 L379 252 Z " />
<glyph glyph-name="edieresis" unicode="&#xeb;" horiz-adv-x="500" d="M111 559 Q115 586 136 602 Q157 618 179 618 Q201 618 216.5 603 Q232 588 227 561 Q222 532 201 515.5 Q180 499 158 499 Q136 499 121 515 Q106 531 111 559 Z M358 554 Q362 581 383 597 Q404 613 426 613 Q448 613 463.5 598 Q479 583 474 556 Q469 527 448 510.5 Q427 494 405 494 Q383 494 368 510 Q353 526 358 554 Z M428 81 Q394 45 335 20 Q304 6 260 1 Q240 -1 220 -1 Q193 -1 169 3 Q115 14 81 46.5 Q47 79 36.5 122 Q26 165 35 214 Q44 263 70.5 306.5 Q97 350 143 383.5 Q189 417 245 428 Q273 433 302 433 Q329 433 352 429 Q409 417 438.5 377 Q468 337 469.5 286.5 Q471 236 451 180 L125 179 Q130 137 154.5 115 Q179 93 239 88 Q251 86 267 87.5 Q283 89 310.5 98.5 Q338 108 360 126 L361 127 L428 82 L428 81 Z M379 252 Q389 356 288 356 Q232 356 192 324 Q152 292 140 251 L379 252 Z " />
<glyph glyph-name="igrave" unicode="&#xec;" horiz-adv-x="207" d="M50 688 L164 541 L106 494 L-25 615 L50 688 Z M97 433 L189 433 L113 -2 L23 -2 L97 433 Z " />
<glyph glyph-name="iacute" unicode="&#xed;" horiz-adv-x="207" d="M230 688 L279 615 L106 494 L64 541 L230 688 Z M97 433 L189 433 L113 -2 L23 -2 L97 433 Z " />
<glyph glyph-name="icircumflex" unicode="&#xee;" horiz-adv-x="207" d="M276 495 L189 495 L150 573 L77 495 L-15 494 L173 699 L276 495 Z M97 433 L189 433 L113 -2 L23 -2 L97 433 Z " />
<glyph glyph-name="idieresis" unicode="&#xef;" horiz-adv-x="207" d="M87 559 Q91 586 112 602 Q133 618 155 618 Q177 618 192.5 603 Q208 588 203 561 Q198 532 177 515.5 Q156 499 134 499 Q112 499 97 515 Q82 531 87 559 Z M334 554 Q338 581 359 597 Q380 613 402 613 Q424 613 439.5 598 Q455 583 450 556 Q445 527 424 510.5 Q403 494 381 494 Q359 494 344 510 Q329 526 334 554 Z M233 433 L325 433 L249 -2 L159 -2 L233 433 Z " />
<glyph glyph-name="ograve" unicode="&#xf2;" horiz-adv-x="499" d="M195 688 L309 541 L251 494 L120 615 L195 688 Z M274 362 Q231 362 195 341 Q159 320 139 289.5 Q119 259 112.5 223 Q106 187 114.5 156 Q123 125 151 104.5 Q179 84 222 84 Q288 84 334 127 Q365 156 379.5 196.5 Q394 237 388.5 273.5 Q383 310 353.5 336 Q324 362 274 362 Z M287 434 Q359 434 405.5 402 Q452 370 466.5 322 Q481 274 470.5 217.5 Q460 161 427.5 112.5 Q395 64 336.5 32 Q278 0 207 0 Q135 0 87.5 32 Q40 64 25.5 112.5 Q11 161 22 217.5 Q33 274 66 322 Q99 370 157.5 402 Q216 434 287 434 Z " />
<glyph glyph-name="oacute" unicode="&#xf3;" horiz-adv-x="499" d="M374 688 L423 615 L250 494 L208 541 L374 688 Z M274 362 Q231 362 195 341 Q159 320 139 289.5 Q119 259 112.5 223 Q106 187 114.5 156 Q123 125 151 104.5 Q179 84 222 84 Q288 84 334 127 Q365 156 379.5 196.5 Q394 237 388.5 273.5 Q383 310 353.5 336 Q324 362 274 362 Z M287 434 Q359 434 405.5 402 Q452 370 466.5 322 Q481 274 470.5 217.5 Q460 161 427.5 112.5 Q395 64 336.5 32 Q278 0 207 0 Q135 0 87.5 32 Q40 64 25.5 112.5 Q11 161 22 217.5 Q33 274 66 322 Q99 370 157.5 402 Q216 434 287 434 Z " />
<glyph glyph-name="ocircumflex" unicode="&#xf4;" horiz-adv-x="499" d="M421 495 L334 495 L295 573 L222 495 L130 494 L318 699 L421 495 Z M274 362 Q231 362 195 341 Q159 320 139 289.5 Q119 259 112.5 223 Q106 187 114.5 156 Q123 125 151 104.5 Q179 84 222 84 Q288 84 334 127 Q365 156 379.5 196.5 Q394 237 388.5 273.5 Q383 310 353.5 336 Q324 362 274 362 Z M287 434 Q359 434 405.5 402 Q452 370 466.5 322 Q481 274 470.5 217.5 Q460 161 427.5 112.5 Q395 64 336.5 32 Q278 0 207 0 Q135 0 87.5 32 Q40 64 25.5 112.5 Q11 161 22 217.5 Q33 274 66 322 Q99 370 157.5 402 Q216 434 287 434 Z " />
<glyph glyph-name="otilde" unicode="&#xf5;" horiz-adv-x="499" d="M317 554 Q321 540 335 538.5 Q349 537 359.5 547.5 Q370 558 366 572 Q366 572 366 573 Q366 573 365 574 L411 593 L410 592 Q416 568 407.5 547 Q399 526 379 514.5 Q359 503 337.5 499 Q316 495 298 504 Q280 513 273 534 L317 554 Z M273 534 Q269 548 255 549.5 Q241 551 230.5 540.5 Q220 530 224 516 Q224 516 224 515 Q224 515 225 514 L179 495 L180 496 Q174 520 182.5 541 Q191 562 211 573.5 Q231 585 252.5 589 Q274 593 292 584 Q310 575 317 554 L273 534 Z M274 362 Q231 362 195 341 Q159 320 139 289.5 Q119 259 112.5 223 Q106 187 114.5 156 Q123 125 151 104.5 Q179 84 222 84 Q288 84 334 127 Q365 156 379.5 196.5 Q394 237 388.5 273.5 Q383 310 353.5 336 Q324 362 274 362 Z M287 434 Q359 434 405.5 402 Q452 370 466.5 322 Q481 274 470.5 217.5 Q460 161 427.5 112.5 Q395 64 336.5 32 Q278 0 207 0 Q135 0 87.5 32 Q40 64 25.5 112.5 Q11 161 22 217.5 Q33 274 66 322 Q99 370 157.5 402 Q216 434 287 434 Z " />
<glyph glyph-name="odieresis" unicode="&#xf6;" horiz-adv-x="567" d="M274 362 Q231 362 195 341 Q159 320 139 289.5 Q119 259 112.5 223 Q106 187 114.5 156 Q123 125 151 104.5 Q179 84 222 84 Q288 84 334 127 Q365 156 379.5 196.5 Q394 237 388.5 273.5 Q383 310 353.5 336 Q324 362 274 362 Z M287 434 Q359 434 405.5 402 Q452 370 466.5 322 Q481 274 470.5 217.5 Q460 161 427.5 112.5 Q395 64 336.5 32 Q278 0 207 0 Q135 0 87.5 32 Q40 64 25.5 112.5 Q11 161 22 217.5 Q33 274 66 322 Q99 370 157.5 402 Q216 434 287 434 Z M104 574 Q108 601 129 617 Q150 633 172 633 Q194 633 209.5 618 Q225 603 220 576 Q215 547 194 530.5 Q173 514 151 514 Q129 514 114 530 Q99 546 104 574 Z M351 569 Q355 596 376 612 Q397 628 419 628 Q441 628 456.5 613 Q472 598 467 571 Q462 542 441 525.5 Q420 509 398 509 Q376 509 361 525 Q346 541 351 569 Z " />
<glyph glyph-name="ugrave" unicode="&#xf9;" horiz-adv-x="472" d="M38 199 Q51 269 58 308 Q65 347 67 356.5 Q69 366 72 384 Q75 402 80 429 L174 429 Q132 191 132 190 Q125 151 134 126.5 Q143 102 162.5 94.5 Q182 87 206 92.5 Q230 98 253.5 114 Q277 130 296 157 Q315 184 320 216 L357 429 L448 429 L373 0 L280 0 L289 64 Q281 59 260.5 40 Q240 21 229 16 Q194 0 160 0 Q73 0 47 51.5 Q21 103 38 199 Z M172 688 L286 541 L228 494 L97 615 L172 688 Z " />
<glyph glyph-name="uacute" unicode="&#xfa;" horiz-adv-x="472" d="M38 199 Q51 269 58 308 Q65 347 67 356.5 Q69 366 72 384 Q75 402 80 429 L174 429 Q132 191 132 190 Q125 151 134 126.5 Q143 102 162.5 94.5 Q182 87 206 92.5 Q230 98 253.5 114 Q277 130 296 157 Q315 184 320 216 L357 429 L448 429 L373 0 L280 0 L289 64 Q281 59 260.5 40 Q240 21 229 16 Q194 0 160 0 Q73 0 47 51.5 Q21 103 38 199 Z M355 688 L404 615 L231 494 L189 541 L355 688 Z " />
<glyph glyph-name="ucircumflex" unicode="&#xfb;" horiz-adv-x="472" d="M38 199 Q51 269 58 308 Q65 347 67 356.5 Q69 366 72 384 Q75 402 80 429 L174 429 Q132 191 132 190 Q125 151 134 126.5 Q143 102 162.5 94.5 Q182 87 206 92.5 Q230 98 253.5 114 Q277 130 296 157 Q315 184 320 216 L357 429 L448 429 L373 0 L280 0 L289 64 Q281 59 260.5 40 Q240 21 229 16 Q194 0 160 0 Q73 0 47 51.5 Q21 103 38 199 Z M400 495 L313 495 L274 573 L201 495 L109 494 L297 699 L400 495 Z " />
<glyph glyph-name="udieresis" unicode="&#xfc;" horiz-adv-x="472" d="M71 562 Q75 589 96 605 Q117 621 139 621 Q161 621 176.5 606 Q192 591 187 564 Q182 535 161 518.5 Q140 502 118 502 Q96 502 81 518 Q66 534 71 562 Z M318 557 Q322 584 343 600 Q364 616 386 616 Q408 616 423.5 601 Q439 586 434 559 Q429 530 408 513.5 Q387 497 365 497 Q343 497 328 513 Q313 529 318 557 Z M38 199 Q51 269 58 308 Q65 347 67 356.5 Q69 366 72 384 Q75 402 80 429 L174 429 Q132 191 132 190 Q125 151 134 126.5 Q143 102 162.5 94.5 Q182 87 206 92.5 Q230 98 253.5 114 Q277 130 296 157 Q315 184 320 216 L357 429 L448 429 L373 0 L280 0 L289 64 Q281 59 260.5 40 Q240 21 229 16 Q194 0 160 0 Q73 0 47 51.5 Q21 103 38 199 Z " />
<glyph glyph-name="yacute" unicode="&#xfd;" horiz-adv-x="462" d="" />
<glyph glyph-name="Ccircumflex" unicode="&#x108;" horiz-adv-x="694" d="M636 768 L549 768 L510 846 L437 768 L345 767 L533 972 L636 768 Z M493 702 Q581 699 637 671 Q658 660 666 653.5 Q674 647 692 629 L610 566 Q599 584 555 599.5 Q511 615 477 616 Q397 619 312 571.5 Q227 524 177 447 Q111 344 131 245 Q151 146 247 98 Q293 74 349 73 Q405 72 457.5 90 Q510 108 562 142 L611 75 Q560 35 495 12.5 Q430 -10 371 -13.5 Q312 -17 262 -9.5 Q212 -2 182 15 Q56 87 32.5 215.5 Q9 344 100 485 Q167 590 274.5 648.5 Q382 707 493 702 Z " />
<glyph glyph-name="ccircumflex" unicode="&#x109;" horiz-adv-x="421" d="M429 495 L342 495 L303 573 L230 495 L138 494 L326 699 L429 495 Z M321 430 Q374 424 406 404 Q420 396 418 397 Q416 398 424 391 L360 313 Q355 323 334 332 Q313 341 297 343 Q257 347 216.5 330 Q176 313 151 277 Q114 227 117.5 181 Q121 135 164 107 Q189 91 221 90 Q267 87 307 107 Q321 113 328 118 L359 40 Q306 -1 211 0 Q137 0 102 24 Q29 73 20.5 153.5 Q12 234 73 317 Q118 378 185.5 407.5 Q253 437 321 430 Z " />
<glyph glyph-name="Cdotaccent" unicode="&#x10a;" horiz-adv-x="694" d="M493 827 Q498 854 518.5 869.5 Q539 885 561.5 885.5 Q584 886 599 871 Q614 856 609 829 Q604 800 583.5 783.5 Q563 767 541 767 Q519 767 503.5 783 Q488 799 493 827 Z M493 702 Q581 699 637 671 Q658 660 666 653.5 Q674 647 692 629 L610 566 Q599 584 555 599.5 Q511 615 477 616 Q397 619 312 571.5 Q227 524 177 447 Q111 344 131 245 Q151 146 247 98 Q293 74 349 73 Q405 72 457.5 90 Q510 108 562 142 L611 75 Q560 35 495 12.5 Q430 -10 371 -13.5 Q312 -17 262 -9.5 Q212 -2 182 15 Q56 87 32.5 215.5 Q9 344 100 485 Q167 590 274.5 648.5 Q382 707 493 702 Z " />
<glyph glyph-name="cdotaccent" unicode="&#x10b;" horiz-adv-x="421" d="M286 554 Q291 581 311.5 596.5 Q332 612 354.5 612.5 Q377 613 392 598 Q407 583 402 556 Q397 527 376.5 510.5 Q356 494 334 494 Q312 494 296.5 510 Q281 526 286 554 Z M321 430 Q374 424 406 404 Q420 396 418 397 Q416 398 424 391 L360 313 Q355 323 334 332 Q313 341 297 343 Q257 347 216.5 330 Q176 313 151 277 Q114 227 117.5 181 Q121 135 164 107 Q189 91 221 90 Q267 87 307 107 Q321 113 328 118 L359 40 Q306 -1 211 0 Q137 0 102 24 Q29 73 20.5 153.5 Q12 234 73 317 Q118 378 185.5 407.5 Q253 437 321 430 Z " />
<glyph glyph-name="Edotaccent" unicode="&#x116;" horiz-adv-x="483" d="M314 827 Q319 854 339.5 869.5 Q360 885 382.5 885.5 Q405 886 420 871 Q435 856 430 829 Q425 800 404.5 783.5 Q384 767 362 767 Q340 767 324.5 783 Q309 799 314 827 Z M117 693 L483 693 L468 608 L194 608 L160 412 L356 412 L341 329 L145 329 L101 82 L384 82 L370 0 L-5 0 L117 693 Z " />
<glyph glyph-name="edotaccent" unicode="&#x117;" horiz-adv-x="500" d="M294 554 Q299 581 319.5 596.5 Q340 612 362.5 612.5 Q385 613 400 598 Q415 583 410 556 Q405 527 384.5 510.5 Q364 494 342 494 Q320 494 304.5 510 Q289 526 294 554 Z M428 81 Q394 45 335 20 Q304 6 260 1 Q240 -1 220 -1 Q193 -1 169 3 Q115 14 81 46.5 Q47 79 36.5 122 Q26 165 35 214 Q44 263 70.5 306.5 Q97 350 143 383.5 Q189 417 245 428 Q273 433 302 433 Q329 433 352 429 Q409 417 438.5 377 Q468 337 469.5 286.5 Q471 236 451 180 L125 179 Q130 137 154.5 115 Q179 93 239 88 Q251 86 267 87.5 Q283 89 310.5 98.5 Q338 108 360 126 L361 127 L428 82 L428 81 Z M379 252 Q389 356 288 356 Q232 356 192 324 Q152 292 140 251 L379 252 Z " />
<glyph glyph-name="Gcircumflex" unicode="&#x11c;" horiz-adv-x="704" d="M631 781 L544 781 L505 859 L432 781 L340 780 L528 985 L631 781 Z M674 365 L629 116 Q626 100 607 91 Q556 50 490.5 27 Q425 4 365.5 -0.5 Q306 -5 255.5 2 Q205 9 175 26 Q93 74 54 147 Q15 220 21.5 297 Q28 374 66.5 452 Q105 530 167 590.5 Q229 651 314 687 Q399 723 488 720 Q575 717 631 688 Q652 677 660.5 670.5 Q669 664 687 646 L604 582 Q595 601 550 616 Q505 631 471 633 Q391 636 306 588 Q221 540 171 463 Q105 358 125 258.5 Q145 159 240 109 Q285 86 338.5 85 Q392 84 443 101 Q494 118 544 149 L573 290 L435 290 L449 364 L674 365 Z " />
<glyph glyph-name="gcircumflex" unicode="&#x11d;" horiz-adv-x="476" d="M406 495 L319 495 L280 573 L207 495 L115 494 L303 699 L406 495 Z M137 224 Q130 185 145 154.5 Q160 124 188 111 Q216 98 247.5 98 Q279 98 308.5 119.5 Q338 141 354 179 Q356 189 361.5 214.5 Q367 240 368 252 Q374 285 361.5 308 Q349 331 325.5 340 Q302 349 272 346.5 Q242 344 214.5 330.5 Q187 317 165.5 289 Q144 261 137 224 Z M422 6 Q403 -102 307 -164 Q253 -197 186.5 -198.5 Q120 -200 73 -172 Q46 -156 40 -152.5 Q34 -149 26 -140 L74 -69 Q76 -70 127 -99 Q149 -111 177.5 -113 Q206 -115 234 -107 Q262 -99 287.5 -79 Q313 -59 326 -30 L331 0 L342 59 Q316 36 281.5 25 Q247 14 212 15 Q177 16 144.5 30 Q112 44 88.5 67.5 Q65 91 54 129.5 Q43 168 50 214 Q59 264 83.5 306.5 Q108 349 142 375.5 Q176 402 215.5 417 Q255 432 295 431 Q335 430 369 413 Q391 403 398 387 L404 427 L498 427 L422 6 Z " />
<glyph glyph-name="Gdotaccent" unicode="&#x120;" horiz-adv-x="704" d="M490 840 Q495 867 515.5 882.5 Q536 898 558.5 898.5 Q581 899 596 884 Q611 869 606 842 Q601 813 580.5 796.5 Q560 780 538 780 Q516 780 500.5 796 Q485 812 490 840 Z M674 365 L629 116 Q626 100 607 91 Q556 50 490.5 27 Q425 4 365.5 -0.5 Q306 -5 255.5 2 Q205 9 175 26 Q93 74 54 147 Q15 220 21.5 297 Q28 374 66.5 452 Q105 530 167 590.5 Q229 651 314 687 Q399 723 488 720 Q575 717 631 688 Q652 677 660.5 670.5 Q669 664 687 646 L604 582 Q595 601 550 616 Q505 631 471 633 Q391 636 306 588 Q221 540 171 463 Q105 358 125 258.5 Q145 159 240 109 Q285 86 338.5 85 Q392 84 443 101 Q494 118 544 149 L573 290 L435 290 L449 364 L674 365 Z " />
<glyph glyph-name="gdotaccent" unicode="&#x121;" horiz-adv-x="476" d="M264 554 Q269 581 289.5 596.5 Q310 612 332.5 612.5 Q355 613 370 598 Q385 583 380 556 Q375 527 354.5 510.5 Q334 494 312 494 Q290 494 274.5 510 Q259 526 264 554 Z M137 224 Q130 185 145 154.5 Q160 124 188 111 Q216 98 247.5 98 Q279 98 308.5 119.5 Q338 141 354 179 Q356 189 361.5 214.5 Q367 240 368 252 Q374 285 361.5 308 Q349 331 325.5 340 Q302 349 272 346.5 Q242 344 214.5 330.5 Q187 317 165.5 289 Q144 261 137 224 Z M422 6 Q403 -102 307 -164 Q253 -197 186.5 -198.5 Q120 -200 73 -172 Q46 -156 40 -152.5 Q34 -149 26 -140 L74 -69 Q76 -70 127 -99 Q149 -111 177.5 -113 Q206 -115 234 -107 Q262 -99 287.5 -79 Q313 -59 326 -30 L331 0 L342 59 Q316 36 281.5 25 Q247 14 212 15 Q177 16 144.5 30 Q112 44 88.5 67.5 Q65 91 54 129.5 Q43 168 50 214 Q59 264 83.5 306.5 Q108 349 142 375.5 Q176 402 215.5 417 Q255 432 295 431 Q335 430 369 413 Q391 403 398 387 L404 427 L498 427 L422 6 Z " />
<glyph glyph-name="Hcircumflex" unicode="&#x124;" horiz-adv-x="630" d="" />
<glyph glyph-name="Idot" unicode="&#x130;" horiz-adv-x="207" d="M180 827 Q185 854 205.5 869.5 Q226 885 248.5 885.5 Q271 886 286 871 Q301 856 296 829 Q291 800 270.5 783.5 Q250 767 228 767 Q206 767 190.5 783 Q175 799 180 827 Z M121 696 L211 696 L90 1 L0 1 L121 696 Z " />
<glyph glyph-name="dotlessi" unicode="&#x131;" horiz-adv-x="207" d="M97 433 L189 433 L113 -2 L23 -2 L97 433 Z " />
<glyph glyph-name="Jcircumflex" unicode="&#x134;" horiz-adv-x="396" d="M538 768 L451 768 L412 846 L339 768 L247 767 L435 972 L538 768 Z M20 72 Q51 46 90 44 Q129 42 164 61.5 Q199 81 227 125 Q255 169 264 228 L340 700 L431 700 L356 222 Q346 152 313 96.5 Q280 41 236 10.5 Q192 -20 144 -33.5 Q96 -47 48.5 -39.5 Q1 -32 -35 -7 L20 72 Z " />
<glyph glyph-name="jcircumflex" unicode="&#x135;" horiz-adv-x="207" d="M83 430 L175 430 L80 -102 L-11 -102 L83 430 Z M280 495 L193 495 L154 573 L81 495 L-11 494 L177 699 L280 495 Z " />
<glyph glyph-name="Nacute" unicode="&#x143;" horiz-adv-x="646" d="" />
<glyph glyph-name="sacute" unicode="&#x15b;" horiz-adv-x="394" d="" />
<glyph glyph-name="ycircumflex" unicode="&#x177;" horiz-adv-x="462" d="" />
<glyph glyph-name="Zdotaccent" unicode="&#x17b;" horiz-adv-x="795" d="" />
<glyph glyph-name="uni01F4" unicode="&#x1f4;" horiz-adv-x="704" d="M514 974 L563 901 L390 780 L348 827 L514 974 Z M674 365 L629 116 Q626 100 607 91 Q556 50 490.5 27 Q425 4 365.5 -0.5 Q306 -5 255.5 2 Q205 9 175 26 Q93 74 54 147 Q15 220 21.5 297 Q28 374 66.5 452 Q105 530 167 590.5 Q229 651 314 687 Q399 723 488 720 Q575 717 631 688 Q652 677 660.5 670.5 Q669 664 687 646 L604 582 Q595 601 550 616 Q505 631 471 633 Q391 636 306 588 Q221 540 171 463 Q105 358 125 258.5 Q145 159 240 109 Q285 86 338.5 85 Q392 84 443 101 Q494 118 544 149 L573 290 L435 290 L449 364 L674 365 Z " />
<glyph glyph-name="uni01F5" unicode="&#x1f5;" horiz-adv-x="476" d="M289 688 L338 615 L165 494 L123 541 L289 688 Z M137 224 Q130 185 145 154.5 Q160 124 188 111 Q216 98 247.5 98 Q279 98 308.5 119.5 Q338 141 354 179 Q356 189 361.5 214.5 Q367 240 368 252 Q374 285 361.5 308 Q349 331 325.5 340 Q302 349 272 346.5 Q242 344 214.5 330.5 Q187 317 165.5 289 Q144 261 137 224 Z M422 6 Q403 -102 307 -164 Q253 -197 186.5 -198.5 Q120 -200 73 -172 Q46 -156 40 -152.5 Q34 -149 26 -140 L74 -69 Q76 -70 127 -99 Q149 -111 177.5 -113 Q206 -115 234 -107 Q262 -99 287.5 -79 Q313 -59 326 -30 L331 0 L342 59 Q316 36 281.5 25 Q247 14 212 15 Q177 16 144.5 30 Q112 44 88.5 67.5 Q65 91 54 129.5 Q43 168 50 214 Q59 264 83.5 306.5 Q108 349 142 375.5 Q176 402 215.5 417 Q255 432 295 431 Q335 430 369 413 Q391 403 398 387 L404 427 L498 427 L422 6 Z " />
<glyph glyph-name="uni030A" unicode="&#x30a;" horiz-adv-x="154" d="M53 791 Q50 775 61 768.5 Q72 762 85.5 769 Q99 776 102 792 Q104 807 93 813.5 Q82 820 68.5 813.5 Q55 807 53 791 Z M6 790 Q12 823 37 840 Q62 857 88 855 Q114 853 132.5 835 Q151 817 146 788 Q141 757 115.5 738.5 Q90 720 64 719.5 Q38 719 19 737.5 Q0 756 6 790 Z " />
<glyph glyph-name="increment" unicode="&#x394;" horiz-adv-x="674" d="M394 731 L419 639 L590 1 L495 1 L409 0 L134 0 L53 1 L-42 1 L351 656 L394 731 Z M476 82 L357 514 L107 82 L476 82 Z " />
<glyph glyph-name="beta" unicode="&#x3b2;" horiz-adv-x="517" d="M60 -120 L23 -120 L23 -119 L-26 -120 L116 688 L316 688 L319 686 Q364 687 397 669.5 Q430 652 445.5 624 Q461 596 463 560.5 Q465 525 454 492 Q443 459 416.5 430 Q390 401 352 386 Q351 386 350.5 384.5 Q350 383 351 383 Q397 381 425.5 351.5 Q454 322 461 279 Q468 236 455.5 186.5 Q443 137 414 95 Q385 53 334.5 26 Q284 -1 222 1 L212 0 L120 0 L137 95 L252 95 Q291 95 320 119 Q349 143 359 178 Q369 213 367 247.5 Q365 282 342 307 Q319 332 283 333 L283 334 L179 334 L191 404 Q205 404 234 405.5 Q263 407 266 407 Q303 412 330 434.5 Q357 457 366 486.5 Q375 516 372 545 Q369 574 346.5 594 Q324 614 287 615 L288 616 L191 616 L60 -120 Z " />
<glyph glyph-name="quoteleft" unicode="&#x2018;" horiz-adv-x="187" d="M121 620 Q120 601 105 586.5 Q90 572 73.5 567.5 Q57 563 44 575 Q31 587 33 616 Q38 661 69 699 Q100 737 129 746 Q115 730 107.5 694 Q100 658 110 645 Q123 634 121 620 Z " />
<glyph glyph-name="quoteright" unicode="&#x2019;" horiz-adv-x="187" d="M62 682 Q61 701 75 716.5 Q89 732 105.5 737.5 Q122 743 136 732 Q150 721 150 693 Q148 649 119.5 609 Q91 569 64 558 Q76 574 80.5 611 Q85 648 74 658 Q60 668 62 682 Z " />
<glyph glyph-name="quotedblleft" unicode="&#x201c;" horiz-adv-x="292" d="M244 622 Q243 604 228 589 Q213 574 196 570 Q179 566 166 578 Q153 590 155 618 Q161 663 191.5 701 Q222 739 251 748 Q237 733 230.5 696.5 Q224 660 232 648 Q245 637 244 622 Z M120 620 Q120 601 105 586.5 Q90 572 73 567.5 Q56 563 43.5 575 Q31 587 33 616 Q38 661 69 699 Q100 737 129 746 Q115 730 107.5 694 Q100 658 110 645 Q123 634 120 620 Z " />
<glyph glyph-name="quotedblright" unicode="&#x201d;" horiz-adv-x="358" d="M197 685 Q196 703 210 719 Q224 735 240.5 740 Q257 745 271 734.5 Q285 724 285 696 Q283 651 254.5 611.5 Q226 572 199 560 Q211 576 215.5 613 Q220 650 209 661 Q196 671 197 685 Z M62 682 Q61 701 74.5 716.5 Q88 732 104.5 737.5 Q121 743 135.5 732 Q150 721 150 693 Q148 649 119.5 609 Q91 569 64 558 Q76 574 80.5 611 Q85 648 73 658 Q60 668 62 682 Z " />
<glyph glyph-name="Euro" unicode="&#x20ac;" horiz-adv-x="715" d="M560 293 L516 211 L2 211 L46 293 L560 293 Z M641 455 L595 375 L37 375 L77 455 L641 455 Z M732 641 L689 557 Q682 578 638 597 Q604 612 542 614 Q462 617 377 569.5 Q292 522 242 445 Q176 342 196 243 Q216 144 312 96 Q358 72 414 71 Q470 70 522.5 88 Q575 106 627 140 L610 41 Q559 1 527 -5.5 Q495 -12 436 -15.5 Q377 -19 327 -11.5 Q277 -4 247 13 Q121 85 97.5 213.5 Q74 342 165 483 Q232 588 339.5 646.5 Q447 705 558 700 Q616 698 680 670 Q715 654 732 641 Z " />
<glyph glyph-name="uniFB00" unicode="&#xfb00;" horiz-adv-x="631" d="" />
</font>
</svg>
