<?xml version="1.0" encoding="UTF-8"?>
<svg xmlns="http://www.w3.org/2000/svg" xmlns:xlink="http://www.w3.org/1999/xlink" version="1.2" >
<font id="BetecknaLowerCase">
<font-face  font-family="BetecknaLowerCase" units-per-em="1000" ascent="800" descent="-200" font-style="normal" font-weight="500" font-stretch="normal" cap-height="709" x-height="449" underline-position="-225" underline-thickness="50" />
<missing-glyph  horiz-adv-x="500" d="M30 -20 L30 553 L470 553 L470 -20 L30 -20 Z M120 70 L380 70 L380 463 L120 463 L120 70 Z " />
<glyph glyph-name="space" unicode="&#x20;" horiz-adv-x="351" d="" />
<glyph glyph-name="exclam" unicode="&#x21;" horiz-adv-x="238" d="M54 713 L184 713 L179 232 L48 232 L54 713 Z M34 60 Q34 96 58 117 Q82 138 97 138.5 Q112 139 113 139 Q142 139 166 118.5 Q190 98 190 62 Q190 24 166 2 Q142 -20 112 -20 Q82 -20 58 1.5 Q34 23 34 60 Z " />
<glyph glyph-name="quotedbl" unicode="&#x22;" horiz-adv-x="340" d="M229 554 Q226 565 203 621 Q180 677 180 698 Q180 698 180 698.5 Q180 699 180 700 Q180 734 203.5 754.5 Q227 775 242 775.5 Q257 776 258 776 Q286 776 310 755 Q334 734 334 696 L334 694 L334 693 Q329 667 319.5 642 Q310 617 303 604.5 Q296 592 282 572 Q268 552 265 548 L240 505 L229 554 Z M55 554 Q52 565 29 621 Q6 677 6 698 Q6 698 6 698.5 Q6 699 6 700 Q6 734 29.5 754.5 Q53 775 68 775.5 Q83 776 84 776 Q112 776 136 755 Q160 734 160 696 L160 694 L160 693 Q155 667 145.5 642 Q136 617 129 604.5 Q122 592 108 572 Q94 552 91 548 L66 505 L55 554 Z " />
<glyph glyph-name="numbersign" unicode="&#x23;" horiz-adv-x="455" d="M85 640 L202 640 L202 500 L252 500 L252 640 L370 640 L370 500 L428 500 L428 369 L370 369 L370 326 L428 326 L428 199 L370 199 L370 50 L252 50 L252 199 L202 199 L202 50 L85 50 L85 199 L27 200 L27 326 L85 326 L85 370 L27 370 L27 501 L85 500 L85 640 Z M202 370 L202 326 L252 326 L252 369 L202 370 Z " />
<glyph glyph-name="dollar" unicode="&#x24;" horiz-adv-x="733" d="M322 10 Q290 14 257 29 Q216 49 194 65 Q174 81 157 96 L144 107 L205 212 L224 194 Q247 172 263 160 Q277 149 303 138 Q328 128 356 128 Q397 128 411 136 Q429 146 452 183 Q465 204 465 224 Q465 238 458 252 Q444 285 401 303 Q335 330 331 331 Q269 353 235 382 Q196 416 181 456 Q168 489 168 523 Q168 531 169 539 Q172 581 194 616.5 Q216 652 255 675 Q285 693 321 699 L308 770 L431 770 L418 700 Q478 691 522 656 L536 644 L472 548 L455 563 Q423 592 376 592 Q366 592 354 590 Q329 587 313 570 Q296 553 293 532 Q293 529 293 527 Q293 509 308 489 Q328 461 367 448 L440 423 Q472 412 506 385 Q537 361 561 324 Q587 286 589 238 Q590 232 590 227 Q590 182 569 135 Q527 38 426 15 L435 -50 L314 -50 L322 10 Z " />
<glyph glyph-name="percent" unicode="&#x25;" horiz-adv-x="560" d="M127 473 Q127 469 128 465 Q129 457 138 452 Q143 449 149 449 Q150 449 150 449 Q152 449 152 449 Q153 449 154 449 Q156 450 160 452 Q167 456 169 464 Q170 467 170 474 Q170 476 170 479 Q169 485 164 489 Q157 495 148 495 Q144 495 140 493 Q138 492 133 489 Q128 485 127 477 Q127 476 127 473 Z M20 472 Q20 512 39.5 541 Q59 570 87 581 Q115 592 144 592 Q147 592 165 591.5 Q183 591 212 577 Q241 563 260 534 Q279 505 279 469 Q279 431 260 401 Q241 371 212 357.5 Q183 344 165.5 343.5 Q148 343 147 343 Q116 343 87 356 Q58 369 39 399.5 Q20 430 20 472 Z M391 161 Q391 157 392 153 Q393 145 401 141 Q407 138 412 138 Q413 138 414 138 Q418 138 424 141 Q431 145 433 152 Q434 156 434 162 Q434 164 434 167 Q432 176 424 181 Q419 184 413 184 Q408 184 401 180 Q393 176 391 166 Q391 165 391 161 Z M284 160 Q284 201 304 230 Q324 259 351 270 Q378 281 406 281 Q410 281 428.5 280 Q447 279 475.5 265 Q504 251 524 222.5 Q544 194 544 157 Q544 119 524.5 89.5 Q505 60 476 46 Q447 32 429.5 31.5 Q412 31 411 31 Q380 31 351.5 44 Q323 57 303.5 87.5 Q284 118 284 160 Z M462 588 L547 500 L86 23 L1 111 L462 588 Z " />
<glyph glyph-name="ampersand" unicode="&#x26;" horiz-adv-x="754" d="M509 224 Q529 276 529 328 Q529 336 528 345 L527 366 L651 366 L651 346 Q648 218 600 128 L739 -20 L567 -20 L519 30 Q443 -31 329 -42 Q320 -43 308 -43 Q262 -43 210 -26 Q158 -9 110 38 Q62 85 48 146 Q41 172 41 208 Q41 244 52 274.5 Q63 305 76.5 328.5 Q90 352 109 373.5 Q128 395 141 407 Q154 419 164 427 Q148 464 146 485.5 Q144 507 144 516 Q144 549 156.5 578 Q169 607 186 629.5 Q203 652 221 666 Q259 696 297.5 700 Q336 704 351 704 Q394 704 441.5 687.5 Q489 671 508 633 L514 620 L432 541 L419 561 Q402 585 377 586.5 Q352 588 347 588 Q306 588 286 565 Q267 543 267 517 Q267 476 317 424 L509 224 Z M235 327 Q201 296 185 264 Q169 232 169 208 Q169 192 174 176 Q185 143 217.5 117.5 Q250 92 279.5 83 Q309 74 328 74 Q333 74 338 75 Q393 80 437 117 L235 327 Z " />
<glyph glyph-name="quotesingle" unicode="&#x27;" horiz-adv-x="154" d="M0 699 Q0 734 23.5 755 Q47 776 62 776.5 Q77 777 79 777 Q105 777 128.5 757 Q152 737 152 699 Q152 660 131.5 617.5 Q111 575 90 546 L73 523 L57 547 Q0 633 0 699 Z " />
<glyph glyph-name="parenleft" unicode="&#x28;" horiz-adv-x="268" d="M20 146 Q19 158 19 324 Q19 490 20 504 Q28 609 82 682.5 Q136 756 221 793 L249 806 L249 662 L241 656 Q165 602 154 503 Q153 495 153 326 Q153 157 154 150 Q167 49 240 -8 L248 -14 L248 -168 L219 -154 Q137 -114 83.5 -37.5 Q30 39 20 146 Z " />
<glyph glyph-name="parenright" unicode="&#x29;" horiz-adv-x="295" d="M262 149 Q251 42 197.5 -35 Q144 -112 62 -152 L33 -166 L33 -12 L41 -6 Q114 52 127 152 Q128 159 128 327.5 Q128 496 127 505 Q117 604 41 659 L33 665 L33 809 L61 796 Q146 758 199.5 684.5 Q253 611 262 506 L262 149 Z " />
<glyph glyph-name="asterisk" unicode="&#x2a;" horiz-adv-x="212" d="M146 737 L175 736 L189 736 L201 698 L189 658 L182 658 L203 637 L183 603 L150 579 L107 621 L65 579 L29 603 L10 638 L31 658 L21 658 L11 698 L22 736 L66 735 L66 755 L66 771 L106 779 L146 771 L146 737 Z " />
<glyph glyph-name="plus" unicode="&#x2b;" horiz-adv-x="495" d="M315 295 L315 140 L185 140 L184 295 L44 294 L44 425 L187 423 L184 569 L314 569 L314 425 L451 426 L451 296 L315 295 Z " />
<glyph glyph-name="comma" unicode="&#x2c;" horiz-adv-x="154" d="M25 125 Q48 145 77 145 Q78 146 79 146 Q107 146 130 126 Q155 104 155 66 Q155 41 144 19 Q134 -1 125 -14 Q115 -27 95 -43 Q75 -58 69 -61 Q66 -62 51 -72 Q36 -81 25 -68 Q14 -55 25 -42 Q29 -38 34 -29 Q39 -19 44 -7 Q48 0 50 7 Q33 9 20 21 Q5 37 2 56 Q1 61 1 66 Q1 67 1 68 Q1 69 1 69 Q1 104 25 125 Z " />
<glyph glyph-name="hyphen" unicode="&#x2d;" horiz-adv-x="470" d="M458 197 L29 197 L29 327 L458 328 L458 197 Z " />
<glyph glyph-name="period" unicode="&#x2e;" horiz-adv-x="190" d="M-5 60 Q-5 96 19 117 Q43 138 58 138.5 Q73 139 74 139 Q103 139 127 118.5 Q151 98 151 62 Q151 24 127 2 Q103 -20 73 -20 Q43 -20 19 1.5 Q-5 23 -5 60 Z " />
<glyph glyph-name="slash" unicode="&#x2f;" horiz-adv-x="500" d="M184 -20 L34 -20 L323 722 L466 725 L184 -20 Z " />
<glyph glyph-name="zero" unicode="0" horiz-adv-x="569" d="M143 367 Q143 240 183 182 Q223 126 255.5 123.5 Q288 121 293 121 Q345 121 380 167 Q425 226 425 360 Q425 494 373 552 Q346 582 320.5 587.5 Q295 593 282 593 Q258 593 228 579 Q198 565 174 525 Q143 472 143 367 Z M68 599 Q114 670 174.5 695.5 Q235 721 285 721 Q310 721 360.5 710.5 Q411 700 466 643 Q558 548 558 358 Q558 356 558 351 Q558 346 558 343 Q558 170 489 76 Q439 7 384 -8 Q329 -23 296 -23 Q253 -23 193.5 -1.5 Q134 20 83 89 Q11 185 11 361 Q11 510 68 599 Z " />
<glyph glyph-name="one" unicode="1" horiz-adv-x="392" d="M151 580 L37 580 L36 740 L288 740 L289 605 L290 98 L291 98 L291 -20 L154 -20 L153 58 L152 58 L151 580 Z " />
<glyph glyph-name="two" unicode="2" horiz-adv-x="540" d="M325 408 Q365 469 365 518 Q365 526 363 535 Q355 583 303 596 Q294 597 285 597 Q263 597 236 587 Q201 572 190 540 L182 515 L67 589 L75 605 Q132 722 278 722 Q281 722 285 722 Q395 720 451 660 Q497 611 497 536 Q497 520 495 503 Q483 409 409 307 L261 110 L515 111 L515 -20 L117 -21 L117 -20 L-4 -20 L325 408 Z " />
<glyph glyph-name="three" unicode="3" horiz-adv-x="510" d="M283 434 Q315 440 329 471 Q343 502 343 522 Q343 541 334 559 Q318 591 274 600 Q262 603 247 603 Q226 603 197.5 596.5 Q169 590 153 562 L143 544 L31 615 L44 632 Q110 722 254 722 Q258 722 264 722 Q335 721 387.5 686.5 Q440 652 458 610 Q476 568 476 530 Q476 510 469 473.5 Q462 437 426 391 Q461 351 481.5 303.5 Q502 256 502 210 Q502 211 502 209 Q502 207 501.5 182.5 Q501 158 481 114.5 Q461 71 426.5 40 Q392 9 344.5 -9.5 Q297 -28 244 -28 Q242 -28 237 -28 Q232 -28 229 -28 Q123 -28 21 26 L-1 38 L83 137 L97 130 Q131 114 159 106.5 Q187 99 199 99 Q211 99 226 99.5 Q241 100 248 100 Q286 101 313 118.5 Q340 136 350 163 Q360 190 360 219 Q360 222 359.5 237.5 Q359 253 340.5 278 Q322 303 291 314 L184 314 L179 432 L283 434 Z " />
<glyph glyph-name="four" unicode="4" horiz-adv-x="477" d="M299 263 L299 445 L177 263 L299 263 Z M434 264 L480 264 L479 139 L437 139 L437 -20 L297 -20 L297 142 L-3 142 L-3 211 L361 742 L434 742 L434 264 Z " />
<glyph glyph-name="five" unicode="5" horiz-adv-x="509" d="M91 720 L423 720 L426 600 L224 600 L221 442 Q225 442 229 442 Q284 442 323.5 434.5 Q363 427 410 396 Q450 369 472 328 Q494 287 496.5 259 Q499 231 499 220 Q499 185 486.5 145 Q474 105 444.5 67.5 Q415 30 364 7 Q313 -16 250 -16 Q247 -16 242 -16 Q237 -16 235 -16 Q181 -16 123 4.5 Q65 25 19 56 L1 68 L73 161 L88 152 Q137 123 168 112.5 Q199 102 245 102 Q285 102 315 125.5 Q345 149 353.5 174.5 Q362 200 362 220 Q362 232 358 254.5 Q354 277 332 294 Q289 328 227 332 L90 327 L91 720 Z " />
<glyph glyph-name="six" unicode="6" horiz-adv-x="590" d="M23 308 Q21 343 21 380 Q20 382 20 383 Q20 421 33 471 Q45 522 70 569 Q107 638 174 680 Q241 722 316 722 Q317 722 319 722 Q321 722 322 722 Q409 722 455 694 L471 685 L414 568 L394 588 Q389 593 367 599 Q354 602 336 602 Q324 602 306 600 Q265 595 235 574 Q205 552 188 519 Q170 484 162 447 Q157 423 155 398 Q180 419 208 433 Q255 455 292 457 Q301 458 310 458 Q338 458 367 452 Q405 443 424 435 Q439 428 457 417 Q497 394 524 341 Q551 288 551 224 Q551 136 505 78 Q430 -17 305 -18 Q167 -19 92 93 Q72 121 52 174 Q33 223 28 253 Q24 283 23 308 Z M174 226 Q174 188 192.5 161 Q211 134 238 122 Q265 110 297 110 Q297 110 298 110 Q299 110 315.5 110.5 Q332 111 360 124.5 Q388 138 406.5 166 Q425 194 425 233 Q425 274 399 301.5 Q373 329 336 338 Q328 340 313 340 Q307 340 297 338.5 Q287 337 266 331 Q233 321 203.5 286.5 Q174 252 174 226 Z " />
<glyph glyph-name="seven" unicode="7" horiz-adv-x="481" d="M52 711 L458 710 L458 609 L460 602 L178 -20 L10 -20 L293 578 L52 578 L52 711 Z " />
<glyph glyph-name="eight" unicode="8" horiz-adv-x="555" d="M46 505 Q45 553 66.5 601.5 Q88 650 123 677 Q184 724 227 724 Q227 724 272 725 Q357 725 416 682 Q454 655 478 605.5 Q502 556 501 504 Q500 461 449 388 Q540 318 540 207 Q540 114 497 59 Q460 12 401.5 -12.5 Q343 -37 279 -37 Q210 -37 149 -9 Q88 19 52 72 Q15 125 15 206 Q15 311 101 382 Q48 446 46 505 Z M156 212 Q156 174 174.5 146.5 Q193 119 220 106.5 Q247 94 263.5 94 Q280 94 281.5 93.5 Q283 93 283 93 Q315 93 342 105.5 Q369 118 387 145.5 Q405 173 405 212 Q405 254 381 282 Q357 310 322 319 Q307 322 282 322 Q256 322 236 317 Q201 307 178.5 280 Q156 253 156 212 Z M299 439 Q329 445 348.5 467 Q368 489 368 525 Q368 552 354.5 571 Q341 590 320 599 Q299 608 275 608 Q275 608 274 608 Q273 608 260 607.5 Q247 607 226 598 Q205 589 191 569.5 Q177 550 177 524 Q177 488 196.5 465.5 Q216 443 246 438 Q252 437 268 437 Q290 437 299 439 Z " />
<glyph glyph-name="nine" unicode="9" horiz-adv-x="515" d="M152 501 Q152 457 175 432.5 Q198 408 216 406 Q234 404 241 404 Q267 404 295 414.5 Q323 425 340 448 Q359 474 361 509 Q362 537 346 561 Q330 585 308 594 Q286 603 262 603 Q259 603 243.5 602 Q228 601 205 590 Q182 579 167 555.5 Q152 532 152 501 Z M19 495 Q19 570 54.5 625.5 Q90 681 145 706 Q199 730 260 730 Q321 730 374 706 Q428 681 462 625 Q496 572 496 500 Q496 496 496 495 Q490 400 435 255 Q381 111 299 -11 L293 -20 L114 -19 L208 104 Q228 131 260 186 Q291 238 310 286 Q278 276 238 276 Q182 276 134 299 Q85 322 52 373.5 Q19 425 19 495 Z " />
<glyph glyph-name="colon" unicode="&#x3a;" horiz-adv-x="161" d="M2 409 Q2 444 27 464 Q52 484 66.5 484.5 Q81 485 82 485 Q110 485 134.5 465.5 Q159 446 159 410 Q159 374 134 353 Q109 332 80.5 332 Q52 332 27 352 Q2 372 2 409 Z M1 75 Q1 111 25 132 Q49 153 64 153.5 Q79 154 80 154 Q109 154 133 133.5 Q157 113 157 77 Q157 39 133 17 Q109 -5 79 -5 Q49 -5 25 16.5 Q1 38 1 75 Z " />
<glyph glyph-name="semicolon" unicode="&#x3b;" horiz-adv-x="154" d="M-3 414 Q-3 449 21.5 469.5 Q46 490 75 490 Q104 490 128.5 471 Q153 452 153 416 Q153 380 128.5 359 Q104 338 75 338 Q46 338 21.5 358.5 Q-3 379 -3 414 Z M27 148 Q50 168 79 168 Q80 169 81 169 Q109 169 132 148 Q156 126 156 88 Q156 65 146 42 Q136 21 127 8 Q117 -4 96 -20 L73 -37 Q69 -40 50 -50 Q35 -58 25 -44 Q15 -30 27 -18 Q30 -15 34 -6 Q40 4 45 15 Q49 23 51 29 Q36 32 22 43 Q6 58 3 79 Q2 84 2 89 Q2 90 2 91 Q2 92 2 92 Q2 126 27 148 Z " />
<glyph glyph-name="less" unicode="&#x3c;" horiz-adv-x="618" d="M555 628 L555 484 L328 370 L550 251 L549 103 L149 313 L40 376 L133 420 L555 628 Z " />
<glyph glyph-name="equal" unicode="&#x3d;" horiz-adv-x="665" d="M94 309 L576 308 L574 180 L92 181 L94 309 Z M90 547 L572 546 L574 418 L92 419 L90 547 Z " />
<glyph glyph-name="greater" unicode="&#x3e;" horiz-adv-x="618" d="M485 420 L578 376 L469 313 L69 103 L68 251 L290 370 L63 484 L63 628 L485 420 Z " />
<glyph glyph-name="question" unicode="&#x3f;" horiz-adv-x="548" d="M248 652 Q221 652 203 644 Q185 636 175 624.5 Q165 613 150 596 L132 577 L68 681 L78 692 Q113 732 157 750.5 Q201 769 261 769 Q358 769 416.5 714 Q475 659 475 568 Q475 521 455 482.5 Q435 444 392 400 L351 356 Q317 320 311.5 303 Q306 286 306 237 L306 236 L302 201 L166 194 L168 248 Q168 311 185.5 347.5 Q203 384 244 425 L287 471 L299 483 Q312 495 319.5 505 Q327 515 332.5 523 Q338 531 340.5 539 Q343 547 343 553 Q343 554 343 555 Q343 556 343 557 Q342 611 316.5 631.5 Q291 652 248 652 Z M158 60 Q158 96 182 117 Q206 138 221 138.5 Q236 139 237 139 Q266 139 290 118.5 Q314 98 314 62 Q314 24 290 2 Q266 -20 236 -20 Q206 -20 182 1.5 Q158 23 158 60 Z " />
<glyph glyph-name="at" unicode="&#x40;" horiz-adv-x="905" d="M657 44 Q638 34 606 21 Q572 8 531 3 Q491 -2 438 -2 Q370 -2 309.5 19.5 Q249 41 207 77 Q166 113 136 158 Q106 204 92 253 Q78 301 78 350 Q78 496 167 603 Q215 661 298 695 Q381 730 464 730 Q540 730 611 708 Q684 685 728 647 Q786 597 814 523 Q841 452 841 371 Q841 310 827 273 Q811 234 767 195 Q730 162 677 154 Q669 153 662 152 L727 86 L706 73 Q675 54 657 44 Z M516 545 L516 555 L631 555 L624 466 Q620 417 619 403 Q619 390 619 373 Q619 362 619 348 Q620 316 625 282 Q630 268 654 264 Q660 263 665 263 Q685 263 698 276 Q720 298 725 310.5 Q730 323 730 367 Q730 368 730 369 Q730 370 730 370 Q730 487 656 557 Q625 586 574 601 Q519 618 465 618 Q402 618 340 593 Q280 569 250 530 Q195 458 195 350 Q195 314 212 273 Q228 231 259 194 Q289 157 337 132 Q384 107 438 106 Q453 106 459 106 Q483 106 503 107 Q531 110 549 115 Q567 120 583 126 Q598 133 609 140 L628 152 Q605 155 583 163 Q550 175 531 199 Q497 181 457 178 Q448 177 439 177 Q399 177 363 191 Q317 210 286 255.5 Q255 301 254 363 Q254 366 254 368 Q254 413 270 450 Q286 490 315 514 Q343 537 377 549 Q408 560 440 560 Q445 560 449 559 Q486 558 516 545 Z M367 366 Q367 339 380 318.5 Q393 298 412 291 Q431 284 451 284 Q451 284 452.5 284 Q454 284 464.5 284.5 Q475 285 492 297.5 Q509 310 515 331 Q516 336 516 357 Q516 362 515.5 378.5 Q515 395 514 405 Q507 428 491 441.5 Q475 455 465 455.5 Q455 456 454 456 Q433 456 413.5 447.5 Q394 439 380.5 417.5 Q367 396 367 366 Z " />
<glyph glyph-name="A" unicode="A" horiz-adv-x="674" d="M389 647 L685 -19 L546 -19 L460 163 L211 163 L130 -19 L-8 -19 L282 664 L329 782 L389 647 Z M405 286 L332 461 L263 286 L405 286 Z " />
<glyph glyph-name="B" unicode="B" horiz-adv-x="517" d="M24 708 L250 708 L253 706 Q299 706 337 687 Q377 668 401 636 Q424 605 433 565 Q439 541 439 518 Q439 503 436 489 Q430 451 406 418 Q395 404 382 393 Q406 384 426 367 Q463 333 479 285 Q492 248 492 206 Q492 195 491 185 Q488 132 464 86 Q440 39 389 9 Q342 -19 279 -19 Q276 -19 272 -19 L262 -20 L73 -20 L73 -19 L24 -20 L24 708 Z M151 596 L151 427 L242 427 Q270 431 288 449 Q306 466 309 489 Q310 498 310 506 Q310 523 306 540 Q300 562 279 578 Q258 594 227 595 L208 596 L151 596 Z M208 596 L208 616 L228 596 L208 596 Z M151 314 L151 115 L284 115 Q315 116 334 134 Q354 153 357 181 Q358 191 358 201 Q358 223 353 244 Q346 272 324 293 Q302 312 272 313 L253 314 L151 314 Z M253 314 L253 334 L273 314 L253 314 Z " />
<glyph glyph-name="C" unicode="C" horiz-adv-x="694" d="M587 689 Q611 678 622 670.5 Q633 663 655 644 L672 629 L568 537 L555 554 Q545 567 502.5 581 Q460 595 428 596 Q423 596 419 596 Q349 596 280 553 Q211 510 177 439 Q152 385 152 333 Q152 292 177 226.5 Q202 161 298 116 Q346 94 371.5 93.5 Q397 93 399.5 93 Q402 93 403 93 Q452 93 497 109.5 Q542 126 586 158 L601 169 L686 74 L671 60 Q625 18 560.5 -6 Q496 -30 456 -32.5 Q416 -35 398 -35 Q358 -35 312.5 -28 Q267 -21 231 -3 Q85 73 50.5 169 Q16 265 16 323 Q16 406 57 493 Q109 604 207 663 Q305 722 412 722 Q419 722 431 722 Q524 719 587 689 Z " />
<glyph glyph-name="D" unicode="D" horiz-adv-x="611" d="M179 712 Q189 712 205.5 711.5 Q222 711 255 711 Q316 710 369 692.5 Q422 675 457 646 Q492 617 514 590 Q536 563 549 535 Q584 461 587.5 410 Q591 359 591 341 Q591 279 572 213 Q553 147 498 85.5 Q443 24 363 -3 Q342 -10 288 -20 L287 -20 L285 -20 Q269 -20 240 -20.5 Q211 -21 194 -21 Q177 -21 138 -20 L19 -20 L19 711 L144 711 Q157 712 179 712 Z M435 469 Q412 527 363.5 561 Q315 595 246 595 Q241 595 215.5 595.5 Q190 596 178 596 Q164 596 151 595 L154 103 Q179 103 193.5 102.5 Q208 102 213 102 Q240 102 274.5 106.5 Q309 111 341 124 Q386 143 413.5 188 Q441 233 446.5 277 Q452 321 452 354 Q452 372 449.5 405.5 Q447 439 435 469 Z " />
<glyph glyph-name="E" unicode="E" horiz-adv-x="483" d="M34 713 L440 713 L440 588 L166 588 L166 432 L362 432 L362 309 L166 309 L166 102 L449 102 L449 -20 L34 -20 L34 713 Z " />
<glyph glyph-name="F" unicode="F" horiz-adv-x="469" d="M38 711 L431 711 L431 589 L171 589 L171 432 L366 432 L366 309 L171 309 L171 -20 L38 -20 L38 711 Z " />
<glyph glyph-name="G" unicode="G" horiz-adv-x="704" d="M692 116 Q692 89 666 75 Q619 32 555.5 8 Q492 -16 449.5 -19 Q407 -22 384 -22 Q348 -22 304 -16 Q260 -10 225 8 Q130 58 75.5 135.5 Q21 213 16 263.5 Q11 314 11 333 Q11 395 34 467.5 Q57 540 111.5 603.5 Q166 667 245.5 703.5 Q325 740 410 740 Q418 740 425 740 Q517 737 582 706 Q606 695 616.5 687.5 Q627 680 649 661 L666 646 L561 552 L548 571 Q539 584 496 597.5 Q453 611 422 613 Q419 613 413 613 Q343 613 273.5 569.5 Q204 526 171 455 Q146 400 146 347 Q146 306 171 239.5 Q196 173 293 127 Q337 106 361.5 105.5 Q386 105 388.5 105 Q391 105 392 105 Q439 105 480.5 119.5 Q522 134 561 160 L564 270 L427 270 L428 384 L693 385 L692 116 Z " />
<glyph glyph-name="H" unicode="H" horiz-adv-x="630" d="M461 714 L592 714 L592 -20 L461 -20 L461 291 L171 292 L171 -20 L38 -20 L38 710 L170 710 L171 617 L171 414 L461 414 L461 714 Z " />
<glyph glyph-name="I" unicode="I" horiz-adv-x="207" d="M38 716 L168 716 L169 -19 L39 -19 L38 716 Z " />
<glyph glyph-name="J" unicode="J" horiz-adv-x="396" d="M76 88 Q107 66 123.5 65 Q140 64 143 64 Q146 64 147 64 Q176 64 201 79.5 Q226 95 243.5 133 Q261 171 261 222 Q261 225 261 228 L254 720 L385 720 L394 222 Q394 217 394 211 Q394 144 370 86.5 Q346 29 304 -4.5 Q262 -38 221 -50 Q180 -62 147 -62 Q128 -62 92.5 -56.5 Q57 -51 13 -24 L-3 -14 L57 102 L76 88 Z " />
<glyph glyph-name="K" unicode="K" horiz-adv-x="636" d="M405 706 L571 706 L276 363 L633 -22 L463 -22 L162 307 L162 -22 L29 -22 L29 706 L162 706 L162 416 L405 706 Z " />
<glyph glyph-name="L" unicode="L" horiz-adv-x="474" d="M162 105 L445 105 L445 -18 L29 -18 L29 711 L162 710 L162 105 Z " />
<glyph glyph-name="M" unicode="M" horiz-adv-x="734" d="M369 364 L671 776 L710 -24 L584 -24 L556 402 L369 157 L178 406 L150 -21 L24 -21 L63 780 L369 364 Z " />
<glyph glyph-name="N" unicode="N" horiz-adv-x="646" d="M165 415 L165 -17 L38 -17 L38 752 L483 257 L480 716 L608 716 L608 -80 L165 415 Z " />
<glyph glyph-name="O" unicode="O" horiz-adv-x="752" d="M354 607 Q301 607 258.5 585.5 Q216 564 190.5 529 Q165 494 151.5 449.5 Q138 405 138 360 Q138 357 138.5 332 Q139 307 155 260.5 Q171 214 198.5 179 Q226 144 270.5 122.5 Q315 101 370 101 Q427 101 473.5 122.5 Q520 144 549 179.5 Q578 215 594 261 Q610 307 610.5 332 Q611 357 611 358 Q611 405 594 450 Q577 495 547.5 530 Q518 565 469 586 Q420 607 360 607 L355 607 L354 607 Z M361 727 Q454 727 529.5 694.5 Q605 662 651.5 608.5 Q698 555 723 488.5 Q748 422 748 353 L747 317 Q747 280 722 213.5 Q697 147 651 94 Q605 41 531 9 Q457 -23 368 -23 Q281 -23 209.5 9.5 Q138 42 94.5 95 Q51 148 28 215 Q5 282 5 352 Q5 422 27.5 489 Q50 556 93 609 Q136 662 206 694.5 Q276 727 361 727 Z " />
<glyph glyph-name="P" unicode="P" horiz-adv-x="506" d="M259 712 Q261 712 263 712 Q328 712 378.5 681 Q429 650 451.5 603 Q474 556 474 501 Q474 500 473.5 471.5 Q473 443 449 395 Q425 347 373.5 315.5 Q322 284 253 284 Q251 284 249 284 L164 283 L164 -17 L32 -19 L32 713 L259 712 Z M164 590 L164 405 L252 405 Q278 405 297 418 Q316 431 325.5 451.5 Q335 472 336 486 Q337 500 337 503 Q337 524 329.5 543 Q322 562 303.5 575.5 Q285 589 258 589 L164 590 Z " />
<glyph glyph-name="Q" unicode="Q" horiz-adv-x="763" d="M360 607 Q307 607 264.5 585.5 Q222 564 196 529 Q170 494 157 449.5 Q144 405 144 361 Q144 357 144.5 332 Q145 307 161 260.5 Q177 214 204.5 179 Q232 144 276.5 122.5 Q321 101 375 101 Q433 101 479 122.5 Q525 144 554 179.5 Q583 215 599.5 261 Q616 307 616 355.5 Q616 404 599.5 449.5 Q583 495 553.5 530 Q524 565 474.5 586 Q425 607 366 607 L361 607 L360 607 Z M367 727 Q460 727 535.5 694.5 Q611 662 657.5 608.5 Q704 555 728.5 488 Q753 421 753 350.5 Q753 280 727.5 213.5 Q702 147 656.5 94 Q611 41 537 9 Q463 -23 373 -23 Q286 -23 214.5 9.5 Q143 42 100 95 Q57 148 33.5 215 Q10 282 10 352 Q10 422 33 489 Q56 556 99 609 Q142 662 212 694.5 Q282 727 367 727 Z M587 212 L737 46 L631 -42 L497 112 L416 203 L520 288 L587 212 Z " />
<glyph glyph-name="R" unicode="R" horiz-adv-x="489" d="M256 721 Q258 721 261 721 Q315 721 359 699.5 Q403 678 429 641.5 Q455 605 463 569.5 Q471 534 471 508 Q471 490 466 459.5 Q461 429 438 392.5 Q415 356 386 334 L556 -19 L410 -19 L260 293 Q253 293 246 293 L161 292 L165 -19 L32 -19 L29 720 L256 721 Z M161 598 L161 414 L250 414 Q275 414 294 427.5 Q313 441 323 461 Q333 481 333.5 494.5 Q334 508 334 510 Q334 532 326.5 551.5 Q319 571 300.5 584.5 Q282 598 255 598 L161 598 Z " />
<glyph glyph-name="S" unicode="S" horiz-adv-x="528" d="M255 725 Q317 725 357 715 Q397 705 436 675 L451 663 L382 563 L365 577 Q329 607 273 607 Q261 607 250 606 Q221 603 202 584 Q183 565 181 551.5 Q179 538 179 536 Q179 516 198 491 Q217 466 265 449 L346 421 Q376 410 404.5 391.5 Q433 373 458 344.5 Q483 316 497.5 282.5 Q512 249 512 208 Q512 205 511.5 181 Q511 157 490 112 Q427 -25 251 -25 Q212 -25 181 -20 Q148 -14 116.5 -4.5 Q85 5 73 10.5 Q61 16 27 34 L14 41 L39 178 L62 167 Q141 131 196 116 Q228 108 257 108 Q286 108 315.5 122.5 Q345 137 362 163 Q376 184 376 207 Q376 223 364 249 Q352 275 305 293 Q290 299 263 310.5 Q236 322 226 325 Q158 346 115 383 Q72 420 58 458.5 Q44 497 44 530 Q44 543 48 572.5 Q52 602 77.5 640 Q103 678 150 701.5 Q197 725 255 725 Z " />
<glyph glyph-name="T" unicode="T" horiz-adv-x="490" d="M-4 706 L494 706 L494 586 L312 585 L308 -20 L176 -20 L176 1 L179 585 L-4 586 L-4 706 Z " />
<glyph glyph-name="U" unicode="U" horiz-adv-x="592" d="M167 266 Q167 227 178 196 Q189 165 207 146.5 Q225 128 247.5 118 Q270 108 293.5 108 Q317 108 339 118 Q362 129 381 147 Q399 166 410 197 Q422 230 423 270 L424 317 L425 316 L424 702 L555 702 L559 265 Q559 260 559 259 Q559 194 538 141 Q515 85 477 51 Q440 17 391 -1 Q346 -18 299 -18 Q296 -18 293 -18 Q243 -17 195.5 2 Q148 21 111 55 Q74 89 53 145 Q34 195 34 253 Q34 258 34 264 L32 703 L165 705 L167 266 Z " />
<glyph glyph-name="V" unicode="V" horiz-adv-x="675" d="M428 437 L547 713 L685 713 L330 -88 L282 31 L-7 713 L130 713 L248 437 L333 231 L428 437 Z " />
<glyph glyph-name="W" unicode="W" horiz-adv-x="865" d="M438 318 L269 -77 L0 712 L130 712 L277 282 L401 568 L435 650 L469 567 L592 284 L738 713 L867 712 L599 -76 L438 318 Z " />
<glyph glyph-name="X" unicode="X" horiz-adv-x="695" d="M80 104 L269 390 L151 558 L37 718 L207 718 L303 581 L350 512 L403 593 L486 716 L640 717 L560 596 L561 596 L429 395 L629 96 L629 95 L704 -21 L552 -20 L490 73 L348 274 L222 82 L160 -20 L-9 -20 L80 104 Z " />
<glyph glyph-name="Y" unicode="Y" horiz-adv-x="604" d="M-20 712 L134 712 L305 454 L472 712 L626 712 L375 328 L375 -16 L229 -21 L236 326 L-20 712 Z " />
<glyph glyph-name="Z" unicode="Z" horiz-adv-x="795" d="M149 702 L718 702 L642 581 L333 113 L695 113 L695 -18 L81 -20 L104 12 L127 44 Q151 75 169 104 L479 577 L149 577 L149 702 Z " />
<glyph glyph-name="bracketleft" unicode="&#x5b;" horiz-adv-x="348" d="M42 -20 L42 724 L156 722 L304 722 L303 589 L176 589 L176 112 L306 112 L305 -20 L42 -20 Z " />
<glyph glyph-name="backslash" unicode="&#x5c;" horiz-adv-x="492" d="M312 -20 L30 725 L173 722 L462 -20 L312 -20 Z " />
<glyph glyph-name="bracketright" unicode="&#x5d;" horiz-adv-x="344" d="M304 -20 L41 -20 L40 112 L170 112 L170 589 L43 589 L42 722 L190 722 L304 724 L304 -20 Z " />
<glyph glyph-name="asciicircum" unicode="&#x5e;" horiz-adv-x="605" d="M486 510 L350 510 L307 574 L259 510 L117 509 L310 769 L486 510 Z " />
<glyph glyph-name="underscore" unicode="&#x5f;" horiz-adv-x="559" d="M531 20 L531 -102 L28 -102 L28 20 L531 20 Z " />
<glyph glyph-name="grave" unicode="&#x60;" horiz-adv-x="1000" d="M460 1015 L629 837 L552 765 L370 909 L460 1015 Z " />
<glyph glyph-name="a" unicode="a" horiz-adv-x="509" d="M34 316 Q54 365 90 395 Q125 425 168 440 Q206 453 245 453 Q252 453 259 452 Q304 450 345 431 L350 429 L350 447 L483 447 L482 -20 L351 -20 L351 -3 Q323 -16 292 -23 Q269 -27 246 -27 Q220 -27 195 -22 Q147 -11 107 16 Q66 43 40 93 Q14 144 13 207 Q12 266 34 316 Z M139 210 Q139 171 157 142.5 Q175 114 202.5 104 Q230 94 260 94 Q259 94 260.5 94 Q262 94 276 94.5 Q290 95 313.5 113.5 Q337 132 346 162 Q348 172 348 197 Q348 204 347.5 229.5 Q347 255 345 262 Q340 288 321 306.5 Q302 325 284.5 329.5 Q267 334 253 334 Q242 334 224 330.5 Q206 327 186 312.5 Q166 298 152.5 271 Q139 244 139 210 Z " />
<glyph glyph-name="b" unicode="b" horiz-adv-x="511" d="M467 93 Q441 43 400 16 Q360 -11 312 -22 Q287 -27 261 -27 Q238 -27 215 -23 Q184 -16 156 -3 L156 -20 L25 -20 L24 768 L157 768 L157 425 Q173 434 188 439 Q221 450 257 450 Q259 451 261 451 Q294 451 326 442 Q361 434 392 413.5 Q423 393 445 364 Q468 336 481 295 Q494 253 494 207 Q493 144 467 93 Z M359 211 Q359 250 341 279 Q323 308 297 319 Q271 330 243 330 Q242 330 228 329.5 Q214 329 191 310.5 Q168 292 161 261 Q159 255 158.5 230 Q158 205 158 198 Q158 174 160 165 Q169 135 191.5 117.5 Q214 100 227.5 100 Q241 100 242 99.5 Q243 99 243 99 Q272 99 298 109 Q324 119 341.5 146 Q359 173 359 211 Z " />
<glyph glyph-name="c" unicode="c" horiz-adv-x="421" d="M383 422 L402 411 L403 409 L405 407 L420 396 L344 277 L327 302 Q326 303 325 303 Q319 308 306 313 Q285 322 273 323 Q267 324 260 324 Q231 324 205 312 Q174 298 158 267 Q140 235 140 208 Q140 197 143 186 Q152 148 193 124 Q216 111 244 110 Q254 110 255 110 Q288 110 317 125 Q331 132 332 133 L350 149 L415 36 L403 25 Q353 -20 253 -20 Q253 -20 251.5 -20 Q250 -20 249 -20 Q170 -20 126 7 Q37 60 12 148 Q4 177 4 207 Q4 267 38 327 Q75 393 143 426 Q198 451 257 451 Q272 451 285 450 Q343 444 383 422 Z " />
<glyph glyph-name="d" unicode="d" horiz-adv-x="515" d="M23 213 Q23 264 39 308 Q57 354 87 383 Q116 412 155 430 Q194 450 236 451 Q243 452 250 452 Q283 452 315 446 Q336 442 359 433 L359 768 L492 768 L491 -20 L362 -20 L361 -3 Q358 -5 355 -6 Q315 -24 269 -26 Q262 -27 255 -27 Q216 -27 181 -15 Q138 -1 103 26 Q67 54 45 102 Q24 148 23 207 Q23 210 23 213 Z M157 211 Q157 173 175 146 Q193 119 219 109 Q245 99 274 99 Q274 99 275 99 Q276 99 289.5 99.5 Q303 100 326 117.5 Q349 135 357 165 Q359 172 359 202 Q359 207 358.5 227.5 Q358 248 356 261 Q347 293 324.5 311 Q302 329 288.5 329.5 Q275 330 274 330 Q246 330 219.5 319 Q193 308 175 279 Q157 250 157 211 Z " />
<glyph glyph-name="e" unicode="e" horiz-adv-x="500" d="M379 2 Q345 -14 300 -19 Q281 -21 258 -21 Q226 -21 203 -17 Q143 -5 98.5 31 Q54 67 34.5 113.5 Q15 160 15 211 Q15 213 15.5 240 Q16 267 36.5 314.5 Q57 362 101.5 399 Q146 436 204 448 Q231 453 264 453 Q295 453 318 449 Q384 436 425 391 Q466 346 474 304.5 Q482 263 482 234.5 Q482 206 477 176 L474 160 L161 159 Q170 142 188.5 128 Q207 114 264 108 Q274 107 277 107 Q282 107 291.5 108 Q301 109 323.5 117 Q346 125 362 140 L363 141 L374 152 L472 93 L472 74 L468 69 Q437 29 379 2 Z M350 272 Q336 336 263 336 Q215 336 191.5 314 Q168 292 160 271 L350 272 Z " />
<glyph glyph-name="f" unicode="f" horiz-adv-x="359" d="M61 326 L11 326 L11 442 L65 442 Q68 494 83 539.5 Q98 585 125.5 611.5 Q153 638 182 650 Q211 662 241 662 Q261 662 276 658 Q291 654 303.5 648.5 Q316 643 323 641 L350 635 L277 521 L248 536 Q224 535 212.5 515.5 Q201 496 199 442 L302 442 L302 324 L196 324 L197 -20 L61 -20 L61 326 Z " />
<glyph glyph-name="g" unicode="g" horiz-adv-x="476" d="M138 224 Q138 191 155 165.5 Q172 140 197.5 129 Q223 118 249 118 Q275 118 295 135 Q315 152 323 181 Q323 192 323.5 210 Q324 228 324 237 Q324 243 324 249 Q324 251 324 251 Q324 279 311 296.5 Q298 314 280.5 320.5 Q263 327 244 327 Q239 327 223.5 325.5 Q208 324 187 313 Q166 302 152 278.5 Q138 255 138 224 Z M368 -180 Q316 -217 242 -218 Q239 -219 235 -219 Q169 -219 115 -190 L78 -170 Q69 -165 58 -155 L46 -145 L98 -42 L174 -81 Q194 -91 219 -93 Q224 -93 230 -93 Q249 -93 268 -88 Q290 -81 309 -64 Q325 -49 332 -27 L331 0 L331 18 Q319 11 304 6 Q271 -5 236 -5 Q233 -5 229 -5 Q191 -4 153 11 Q115 27 84 52 Q53 79 33 121 Q14 165 13 214 Q12 266 31 314 Q50 361 83 390 Q115 419 155 435 Q193 451 234 451 Q237 451 240 451 Q284 450 325 431 L329 429 L328 447 L463 447 L461 6 Q460 -114 368 -180 Z " />
<glyph glyph-name="h" unicode="h" horiz-adv-x="487" d="M457 229 L457 72 Q457 62 456 43 Q456 26 456 -1 L456 -21 L322 -21 L322 -1 Q322 31 323 63 Q323 95 323 132 L323 235 Q323 269 311 291 Q299 312 282 319 Q267 326 250 326 Q246 326 243 326 Q221 324 203 313 Q185 302 172 282 Q160 261 160 235 L160 -21 L30 -21 L29 761 L162 769 L162 426 Q177 435 192 440 Q228 452 264 452 Q362 452 410 389 Q457 329 457 229 Z " />
<glyph glyph-name="i" unicode="i" horiz-adv-x="207" d="M31 545 Q31 577 54 596 Q77 615 90.5 615.5 Q104 616 105 616 Q131 616 153.5 598 Q176 580 176 546 Q176 512 153.5 492 Q131 472 104 472 Q77 472 54 491.5 Q31 511 31 545 Z M39 453 L171 453 L171 -22 L41 -22 L39 453 Z " />
<glyph glyph-name="j" unicode="j" horiz-adv-x="207" d="M31 545 Q31 577 54 596 Q77 615 90.5 615.5 Q104 616 105 616 Q131 616 153.5 598 Q176 580 176 546 Q176 512 153.5 492 Q131 472 104 472 Q77 472 54 491.5 Q31 511 31 545 Z M39 450 L171 450 L170 -122 L39 -122 L39 450 Z " />
<glyph glyph-name="k" unicode="k" horiz-adv-x="490" d="M162 286 L321 445 L495 444 L279 227 L525 -20 L351 -21 L162 168 L162 -20 L29 -20 L30 768 L163 768 L162 286 Z " />
<glyph glyph-name="l" unicode="l" horiz-adv-x="210" d="M171 238 L171 -20 L38 -20 L38 802 L172 802 L171 238 Z " />
<glyph glyph-name="m" unicode="m" horiz-adv-x="746" d="M320 442 Q346 432 372 408 Q374 407 377 405 Q378 404 380 404 Q380 404 381.5 403.5 Q383 403 383 403 Q383 403 390 408 Q394 412 401 416 Q404 417 404 418 Q427 433 458 443 Q480 450 488 450 Q492 451 496 451 Q499 451 504.5 450.5 Q510 450 513 450 Q609 449 658 385 Q706 323 706 223 L706 70 Q706 61 705 44 Q705 29 705 1 L705 -19 L570 -20 L570 60 Q570 89 571 123 Q571 157 571 225 Q571 258 560 282 Q549 304 533.5 313.5 Q518 323 500 323 Q482 323 467 314 Q452 305 441 285 Q430 265 430 236 Q430 230 429 0 L429 -20 L302 -20 L302 64 Q302 95 303 131 Q303 166 303 233 Q303 267 291 290 Q280 313 265 321.5 Q250 330 232 330 Q231 330 230 330 Q211 329 195 320 Q180 311 168.5 291.5 Q157 272 157 245 L157 -20 L27 -20 L26 449 L159 449 L159 431 Q171 437 195 445 Q223 453 254 453 Q293 453 320 442 Z " />
<glyph glyph-name="n" unicode="n" horiz-adv-x="426" d="M424 230 L423 -20 L289 -20 L289 66 Q289 98 290 135 Q290 172 290 239 Q290 273 278 296 Q267 317 252 325 Q238 333 223 333 Q220 333 218 333 Q199 331 182 321 Q166 312 155 291 Q144 271 144 244 L146 -20 L16 -20 L15 449 L148 449 L148 429 L165 438 Q188 449 248 449 Q345 449 386 389 Q424 332 424 230 Z " />
<glyph glyph-name="o" unicode="o" horiz-adv-x="499" d="M248 342 Q211 342 184 324 Q157 306 144.5 280 Q132 254 131.5 238 Q131 222 131 221 Q131 190 143 164.5 Q155 139 181.5 121.5 Q208 104 245 104 Q302 104 335 140 Q357 165 361.5 189.5 Q366 214 366 227 Q366 248 358 273 Q350 298 320.5 320 Q291 342 248 342 Z M249 454 Q327 454 383.5 419 Q440 384 465.5 332 Q491 280 491 220 Q491 219 490.5 187.5 Q490 156 463.5 103 Q437 50 379.5 15 Q322 -20 245 -20 Q167 -20 109.5 15 Q52 50 27 102 Q2 154 2 213 Q2 215 2.5 247 Q3 279 30 331.5 Q57 384 114.5 419 Q172 454 249 454 Z " />
<glyph glyph-name="p" unicode="p" horiz-adv-x="507" d="M462 93 Q436 43 394 16 Q354 -11 306 -22 Q281 -27 255 -27 Q232 -27 209 -23 Q178 -17 151 -4 L150 -221 L20 -221 L19 447 L152 447 L152 430 Q179 443 210 449 Q233 453 255 453 Q282 453 309 446 Q357 435 398 406 Q440 377 465 324 Q488 274 488 212 Q488 208 488 207 Q487 143 462 93 Z M354 211 Q354 250 336 279 Q318 308 291.5 319 Q265 330 237 330 Q236 330 222.5 329.5 Q209 329 186.5 311 Q164 293 155 261 Q153 248 152.5 227.5 Q152 207 152 202 Q152 172 154 165 Q162 135 185 117.5 Q208 100 221.5 100 Q235 100 236 99.5 Q237 99 237 99 Q266 99 292 109 Q318 119 336 146 Q354 173 354 211 Z " />
<glyph glyph-name="q" unicode="q" horiz-adv-x="497" d="M14 214 Q14 258 27 296 Q40 338 64 367 Q88 396 119.5 416.5 Q151 437 187 445 Q218 452 250 452 Q254 452 258 452 Q292 451 329 438 Q340 434 350 429 L350 447 L483 447 L482 -221 L352 -221 L351 -4 Q324 -17 293 -23 Q270 -27 247 -27 Q221 -27 196 -22 Q148 -11 108 16 Q66 43 40 93 Q15 143 14 207 Q14 211 14 214 Z M148 211 Q148 173 166 146 Q184 119 210 109 Q236 99 265 99 Q265 99 266 99 Q267 99 280.5 99.5 Q294 100 317 117.5 Q340 135 348 165 Q350 172 350 202 Q350 207 349.5 227.5 Q349 248 347 261 Q338 293 315.5 311 Q293 329 279.5 329.5 Q266 330 265 330 Q237 330 210.5 319 Q184 308 166 279 Q148 250 148 211 Z " />
<glyph glyph-name="r" unicode="r" horiz-adv-x="343" d="M326 445 L344 437 L294 322 L278 325 Q268 328 257 328 Q243 328 227 324 Q200 318 184 300 Q168 284 155 254 Q143 227 143 204 L142 -20 L12 -20 L11 449 L144 449 L144 418 Q170 441 200 451 Q230 460 261 460 Q294 460 326 445 Z " />
<glyph glyph-name="s" unicode="s" horiz-adv-x="416" d="M20 79 L116 163 L129 146 Q158 110 208 104 Q216 103 222 103 Q238 103 248 108 Q259 114 263 120 Q265 122 265 124 Q266 126 266 128 L266 129 Q266 132 265 135 Q264 137 263 139 Q256 149 236 155 Q149 180 142 183 Q97 201 77 240 Q58 275 58 314 Q58 335 66 358 Q74 381 93 403 Q112 427 150 441 Q186 455 234 455 Q326 455 372 408 L384 396 L310 298 L294 317 Q275 339 245 343 Q240 344 236 344 Q230 344 223 343 Q212 341 202 333 Q195 328 195 318 Q195 297 227 286 L274 277 L275 277 Q331 259 362 225 Q394 190 395 150 Q396 146 396 142 Q396 110 385 81 Q372 48 348 25 Q319 -3 282 -13 Q248 -22 203 -23 Q200 -23 199 -23 Q162 -23 108 -1 Q49 23 27 65 L20 79 Z " />
<glyph glyph-name="t" unicode="t" horiz-adv-x="243" d="M187 442 L235 442 L235 318 L186 318 L186 -22 L51 -22 L51 320 L8 320 L8 442 L54 442 L54 534 L187 534 L187 442 Z " />
<glyph glyph-name="u" unicode="u" horiz-adv-x="472" d="M22 308 Q22 347 22 356 L22 449 L156 449 L156 190 Q156 156 167 136 Q177 118 190 113 Q199 110 208 110 Q215 110 223 112 Q242 116 259 129.5 Q276 143 288 166 Q300 189 300 216 L299 449 L430 449 L431 -20 L299 -20 L297 18 Q284 3 273 -2 Q237 -20 198 -20 Q100 -20 59 40 Q21 97 21 199 Q21 269 22 308 Z " />
<glyph glyph-name="v" unicode="v" horiz-adv-x="467" d="M470 449 L231 -87 L1 447 L140 448 L233 230 L335 450 L470 449 Z " />
<glyph glyph-name="w" unicode="w" horiz-adv-x="585" d="M393 227 L474 450 L608 449 L415 -81 L310 123 L198 -79 L3 447 L142 448 L225 223 L312 385 L393 227 Z " />
<glyph glyph-name="x" unicode="x" horiz-adv-x="492" d="M84 104 L172 234 L112 324 L23 447 L193 448 L251 352 L315 448 L469 448 L369 297 L328 235 L497 -21 L343 -20 L250 118 L227 82 L165 -20 L-5 -20 L84 104 Z " />
<glyph glyph-name="y" unicode="y" horiz-adv-x="462" d="M162 76 L-11 447 L129 448 L235 226 L350 450 L485 449 L160 -220 L7 -220 L162 76 Z " />
<glyph glyph-name="z" unicode="z" horiz-adv-x="446" d="M39 326 L39 444 L449 444 L375 332 L227 106 L438 106 L438 -20 L-8 -20 L228 327 L39 326 Z " />
<glyph glyph-name="braceleft" unicode="&#x7b;" horiz-adv-x="268" d="M240 -8 L248 -14 L248 -168 L219 -154 Q137 -114 83 -37 Q29 39 20 146 Q20 147 21 158 Q21 166 22 177 Q22 181 22 185 Q22 193 21 203 Q20 218 18 232 Q16 245 11 259 Q7 272 1 281 Q-4 288 -13 294 Q-20 298 -30 298 L-30 338 Q-11 338 -1 356 Q13 380 16 409 Q19 441 19 472 Q19 500 20 505 Q28 609 82 682 Q136 756 221 793 L249 806 L249 662 L241 656 Q165 602 154 504 Q154 502 154 498 Q154 494 154 486.5 Q154 479 153 474 Q153 443 150 409 Q147 371 128 338 Q122 328 115 321 Q123 314 129 304 Q137 291 143.5 273 Q150 255 152 237 Q154 221 155 204 Q156 187 156 174 L156 153 L156 152 Q155 147 155 145 Q155 145 155 145 Q162 52 240 -8 Z " />
<glyph glyph-name="bar" unicode="&#x7c;" horiz-adv-x="207" d="M171 238 L169 -20 L36 -20 L36 717 L170 717 L171 238 Z " />
<glyph glyph-name="braceright" unicode="&#x7d;" horiz-adv-x="268" d="M44 153 Q43 163 43 175 Q43 187 44 204 Q45 221 47 237 Q49 254 55 272 Q61 291 70 304 Q76 314 84 321 Q77 328 71 338 Q51 371 49 409 Q46 443 46 474 Q45 479 45 486.5 Q45 494 45 498 Q45 502 45 504 Q34 602 -42 656 L-50 662 L-50 806 L-22 793 Q63 756 117 682 Q172 608 179 503 Q180 493 180 472 Q181 434 183 409 Q186 380 200 356 Q210 338 229 338 L229 298 Q219 298 212 294 Q203 288 198 281 Q192 272 187 259 Q183 245 181 232 Q179 218 178 203 Q177 193 177 185 Q177 181 177 177 Q178 166 178 158 Q179 147 179 146 Q170 39 116 -37 Q62 -114 -20 -154 L-49 -168 L-49 -14 L-41 -8 Q37 52 44 145 L44 153 Z " />
<glyph glyph-name="asciitilde" unicode="&#x7e;" horiz-adv-x="496" d="M389 601 Q396 583 396 566 Q396 557 393 547 Q387 518 362 503 Q341 489 316 484 Q308 483 300 483 Q282 483 264 491 Q237 503 224 530 L216 548 L291 586 L300 568 Q302 564 305 563 Q305 563 305 563 Q305 563 305 563 L305 563 Q306 563 306 563 Q309 563 311 566 L311 565 Q311 566 311 567 Q311 566 311 565.5 Q311 565 311 567 L292 585 L389 629 L389 601 Z M135 497 Q128 515 128 532 Q128 541 131 551 Q137 580 162 595 Q183 609 208 614 Q216 615 224 615 Q242 615 260 607 Q287 595 300 568 L308 550 L233 512 L224 530 Q222 534 219 535 Q218 535 218 535 Q215 535 213 532 Q213 532 213 531.5 Q213 531 213 531 Q213 531 213 531 L214 531 L232 513 L135 469 L135 497 Z " />
<glyph glyph-name="exclamdown" unicode="&#xa1;" horiz-adv-x="238" d="M54 -19 L48 462 L179 462 L184 -19 L54 -19 Z M34 634 Q34 671 58 692.5 Q82 714 112 714 Q142 714 166 692 Q190 670 190 632 Q190 596 166 575.5 Q142 555 113 555 Q112 555 97 555.5 Q82 556 58 577 Q34 598 34 634 Z " />
<glyph glyph-name="yen" unicode="&#xa5;" horiz-adv-x="604" d="M29 220 L570 220 L568 92 L27 92 L29 220 Z M26 400 L567 400 L569 272 L28 272 L26 400 Z M-20 712 L134 712 L305 454 L472 712 L626 712 L375 328 L375 -16 L229 -21 L236 326 L-20 712 Z " />
<glyph glyph-name="brokenbar" unicode="&#xa6;" horiz-adv-x="207" d="M43 335 L167 335 L170 -20 L43 -20 L43 335 Z M44 716 L168 716 L167 367 L43 367 L44 716 Z " />
<glyph glyph-name="dieresis" unicode="&#xa8;" horiz-adv-x="713" d="M140 805 Q140 841 164 862.5 Q188 884 217.5 884 Q247 884 271.5 863.5 Q296 843 296 807 Q296 769 272 747 Q248 725 218 725 Q188 725 164 746.5 Q140 768 140 805 Z M388 800 Q388 836 412 857.5 Q436 879 465.5 879 Q495 879 519.5 858.5 Q544 838 544 802 Q544 764 520 742 Q496 720 466 720 Q436 720 412 741.5 Q388 763 388 800 Z " />
<glyph glyph-name="guillemotleft" unicode="&#xab;" horiz-adv-x="605" d="M465 466 L465 330 L401 287 L465 239 L466 98 L208 290 L465 466 Z M258 468 L258 334 L194 289 L258 242 L259 100 L-1 293 L258 468 Z " />
<glyph glyph-name="degree" unicode="&#xb0;" horiz-adv-x="560" d="M281 808 Q280 808 280 808 Q280 808 278 807 Q276 806 276 802 Q276 798 277 797 Q278 797 278 797 Q278 797 279 797 Q279 796 280 796 Q280 796 281 796 Q282 796 283.5 797 Q285 798 285 803 Q285 806 283 807 Q283 807 282 807 Q282 808 281 808 Z M277 797 Q278 797 278 797 L277 797 Z M190 801 Q190 843 217.5 864.5 Q245 886 275 886 Q278 886 296 884.5 Q314 883 342 860 Q370 837 370 799 Q370 759 342 735 Q314 711 296.5 710.5 Q279 710 277 710 Q245 710 217.5 734 Q190 758 190 801 Z " />
<glyph glyph-name="plusminus" unicode="&#xb1;" horiz-adv-x="495" d="M462 107 L34 107 L34 237 L462 238 L462 107 Z M313 453 L314 298 L183 298 L183 453 L42 452 L42 582 L185 581 L182 727 L312 727 L312 583 L449 584 L449 454 L313 453 Z " />
<glyph glyph-name="uni00B2" unicode="&#xb2;" horiz-adv-x="402" d="M287 735 Q305 762 305 784 Q305 787 303 798 Q301 809 280 814 Q277 814 274 814 Q265 814 253 809 Q241 804 237 792 L229 767 L153 816 L161 832 Q191 896 270 896 Q272 896 275 896 Q334 895 362 865 Q390 835 390 793 Q390 785 386.5 755.5 Q383 726 345 673 L283 590 L400 591 L400 505 L110 505 L287 735 Z " />
<glyph glyph-name="uni00B3" unicode="&#xb3;" horiz-adv-x="382" d="M275 753 Q280 758 284 767 Q288 776 288 784 Q288 791 285 798 Q279 810 262 813 Q256 815 249 815 Q240 815 229 812.5 Q218 810 212 799 L202 781 L128 827 L141 845 Q176 894 253 894 Q254 894 256 894 Q258 894 259 894 Q297 894 326 875 Q355 856 365 833 Q375 810 375 789 Q375 778 371.5 759.5 Q368 741 352 719 Q378 688 383 663.5 Q388 639 388 625 Q388 599 374 571 Q360 543 326 521 Q292 499 249 499 Q248 499 245.5 499 Q243 499 242 499 Q187 499 133 527 L111 539 L165 603 L179 597 Q196 590 209 586.5 Q222 583 225 583 L251 583 Q276 583 287 599 Q298 615 298 629 Q298 636 294.5 649 Q291 662 270 670 L209 671 L206 749 L267 750 Q269 751 271 751 Q273 752 275 753 Z " />
<glyph glyph-name="acute" unicode="&#xb4;" horiz-adv-x="1000" d="M425 1015 L515 909 L333 765 L256 837 L425 1015 Z " />
<glyph glyph-name="uni00B9" unicode="&#xb9;" horiz-adv-x="284" d="M243 589 L244 589 L244 510 L155 510 L155 569 L154 751 L100 800 L183 877 L241 940 L243 832 L243 589 Z " />
<glyph glyph-name="guillemotright" unicode="&#xbb;" horiz-adv-x="605" d="M14 466 L271 290 L13 98 L14 239 L78 287 L14 330 L14 466 Z M221 468 L480 293 L220 100 L221 242 L285 289 L221 334 L221 468 Z " />
<glyph glyph-name="questiondown" unicode="&#xbf;" horiz-adv-x="548" d="M300 97 Q327 97 345 104.5 Q363 112 373 124.5 Q383 137 398 154 L416 173 L480 69 L470 58 Q435 18 391 -1 Q347 -20 287 -20 Q190 -20 131.5 35.5 Q73 91 73 182 Q73 228 93 267 Q113 306 156 350 L197 394 Q231 430 236.5 447 Q242 464 242 513 L242 514 L246 549 L382 556 L380 502 Q380 439 362.5 402.5 Q345 366 304 325 L262 280 Q253 270 244.5 262 Q236 254 228.5 244.5 Q221 235 215.5 226.5 Q210 218 207.5 210.5 Q205 203 205 197 L205 193 Q206 145 228.5 121 Q251 97 300 97 Z M390 690 Q390 654 366 633 Q342 612 327 611.5 Q312 611 311 611 Q282 611 258 631.5 Q234 652 234 688 Q234 726 258 748 Q282 770 312 770 Q342 770 366 748.5 Q390 727 390 690 Z " />
<glyph glyph-name="Agrave" unicode="&#xc0;" horiz-adv-x="695" d="M270 991 L439 813 L362 741 L180 885 L270 991 Z M390 647 L686 -19 L547 -19 L461 163 L212 163 L131 -19 L-7 -19 L283 664 L330 782 L390 647 Z M406 286 L333 461 L264 286 L406 286 Z " />
<glyph glyph-name="Aacute" unicode="&#xc1;" horiz-adv-x="695" d="M372 991 L462 885 L280 741 L203 813 L372 991 Z M390 647 L686 -19 L547 -19 L461 163 L212 163 L131 -19 L-7 -19 L283 664 L330 782 L390 647 Z M406 286 L333 461 L264 286 L406 286 Z " />
<glyph glyph-name="Acircumflex" unicode="&#xc2;" horiz-adv-x="674" d="M513 772 L377 772 L334 836 L286 772 L144 771 L337 1031 L513 772 Z M390 647 L686 -19 L547 -19 L461 163 L212 163 L131 -19 L-7 -19 L283 664 L330 782 L390 647 Z M406 286 L333 461 L264 286 L406 286 Z " />
<glyph glyph-name="Atilde" unicode="&#xc3;" horiz-adv-x="674" d="M456 893 Q463 875 463 858 Q463 849 460 839 Q454 810 429 795 Q408 781 383 776 Q375 775 367 775 Q349 775 331 783 Q304 795 291 822 L283 840 L358 878 L367 860 Q369 856 372 855 Q372 855 372 855 Q372 855 372 855 L372 855 Q373 855 373 855 Q376 855 378 858 L378 857 Q378 858 378 859 Q378 858 378 857.5 Q378 857 378 859 L359 877 L456 921 L456 893 Z M202 789 Q195 807 195 824 Q195 833 198 843 Q204 872 229 887 Q250 901 275 906 Q283 907 291 907 Q309 907 327 899 Q354 887 367 860 L375 842 L300 804 L291 822 Q289 826 286 827 Q285 827 285 827 Q282 827 280 824 Q280 824 280 823.5 Q280 823 280 823 Q280 823 280 823 L281 823 L299 805 L202 761 L202 789 Z M390 647 L686 -19 L547 -19 L461 163 L212 163 L131 -19 L-7 -19 L283 664 L330 782 L390 647 Z M406 286 L333 461 L264 286 L406 286 Z " />
<glyph glyph-name="Adieresis" unicode="&#xc4;" horiz-adv-x="695" d="M390 647 L686 -19 L547 -19 L461 163 L212 163 L131 -19 L-7 -19 L283 664 L330 782 L390 647 Z M406 286 L333 461 L264 286 L406 286 Z M140 805 Q140 841 164 862.5 Q188 884 217.5 884 Q247 884 271.5 863.5 Q296 843 296 807 Q296 769 272 747 Q248 725 218 725 Q188 725 164 746.5 Q140 768 140 805 Z M388 800 Q388 836 412 857.5 Q436 879 465.5 879 Q495 879 519.5 858.5 Q544 838 544 802 Q544 764 520 742 Q496 720 466 720 Q436 720 412 741.5 Q388 763 388 800 Z " />
<glyph glyph-name="Aring" unicode="&#xc5;" horiz-adv-x="695" d="M330 808 Q329 808 329 808 Q329 808 327 807 Q325 806 325 802 Q325 798 326 797 Q327 797 327 797 Q327 797 328 797 Q328 796 329 796 Q329 796 330 796 Q331 796 332.5 797 Q334 798 334 803 Q334 806 332 807 Q332 807 331 807 Q331 808 330 808 Z M326 797 Q327 797 327 797 L326 797 Z M239 801 Q239 843 266.5 864.5 Q294 886 324 886 Q327 886 345 884.5 Q363 883 391 860 Q419 837 419 799 Q419 759 391 735 Q363 711 345.5 710.5 Q328 710 326 710 Q294 710 266.5 734 Q239 758 239 801 Z M390 647 L686 -19 L547 -19 L461 163 L212 163 L131 -19 L-7 -19 L283 664 L330 782 L390 647 Z M406 286 L333 461 L264 286 L406 286 Z " />
<glyph glyph-name="Egrave" unicode="&#xc8;" horiz-adv-x="518" d="M196 991 L365 813 L288 741 L106 885 L196 991 Z M34 713 L440 713 L440 588 L166 588 L166 432 L362 432 L362 309 L166 309 L166 102 L449 102 L449 -20 L34 -20 L34 713 Z " />
<glyph glyph-name="Eacute" unicode="&#xc9;" horiz-adv-x="518" d="M296 991 L386 885 L204 741 L127 813 L296 991 Z M34 713 L440 713 L440 588 L166 588 L166 432 L362 432 L362 309 L166 309 L166 102 L449 102 L449 -20 L34 -20 L34 713 Z " />
<glyph glyph-name="Ecircumflex" unicode="&#xca;" horiz-adv-x="483" d="M421 748 L285 748 L242 812 L194 748 L52 747 L245 1007 L421 748 Z M34 713 L440 713 L440 588 L166 588 L166 432 L362 432 L362 309 L166 309 L166 102 L449 102 L449 -20 L34 -20 L34 713 Z " />
<glyph glyph-name="Edieresis" unicode="&#xcb;" horiz-adv-x="483" d="M35 832 Q35 868 59 889.5 Q83 911 112.5 911 Q142 911 166.5 890.5 Q191 870 191 834 Q191 796 167 774 Q143 752 113 752 Q83 752 59 773.5 Q35 795 35 832 Z M283 827 Q283 863 307 884.5 Q331 906 360.5 906 Q390 906 414.5 885.5 Q439 865 439 829 Q439 791 415 769 Q391 747 361 747 Q331 747 307 768.5 Q283 790 283 827 Z M34 713 L440 713 L440 588 L166 588 L166 432 L362 432 L362 309 L166 309 L166 102 L449 102 L449 -20 L34 -20 L34 713 Z " />
<glyph glyph-name="Igrave" unicode="&#xcc;" horiz-adv-x="207" d="M17 991 L186 813 L109 741 L-73 885 L17 991 Z M38 716 L168 716 L169 -19 L39 -19 L38 716 Z " />
<glyph glyph-name="Iacute" unicode="&#xcd;" horiz-adv-x="207" d="M191 991 L281 885 L99 741 L22 813 L191 991 Z M38 716 L168 716 L169 -19 L39 -19 L38 716 Z " />
<glyph glyph-name="Icircumflex" unicode="&#xce;" horiz-adv-x="207" d="M286 748 L150 748 L107 812 L59 748 L-83 747 L110 1007 L286 748 Z M38 716 L168 716 L169 -19 L39 -19 L38 716 Z " />
<glyph glyph-name="Idieresis" unicode="&#xcf;" horiz-adv-x="207" d="M38 832 Q38 868 62 889.5 Q86 911 115.5 911 Q145 911 169.5 890.5 Q194 870 194 834 Q194 796 170 774 Q146 752 116 752 Q86 752 62 773.5 Q38 795 38 832 Z M286 827 Q286 863 310 884.5 Q334 906 363.5 906 Q393 906 417.5 885.5 Q442 865 442 829 Q442 791 418 769 Q394 747 364 747 Q334 747 310 768.5 Q286 790 286 827 Z M175 716 L305 716 L306 -19 L176 -19 L175 716 Z " />
<glyph glyph-name="Ograve" unicode="&#xd2;" horiz-adv-x="752" d="M270 991 L439 813 L362 741 L180 885 L270 991 Z M354 607 Q301 607 258.5 585.5 Q216 564 190.5 529 Q165 494 151.5 449.5 Q138 405 138 360 Q138 357 138.5 332 Q139 307 155 260.5 Q171 214 198.5 179 Q226 144 270.5 122.5 Q315 101 370 101 Q427 101 473.5 122.5 Q520 144 549 179.5 Q578 215 594 261 Q610 307 610.5 332 Q611 357 611 358 Q611 405 594 450 Q577 495 547.5 530 Q518 565 469 586 Q420 607 360 607 L355 607 L354 607 Z M361 727 Q454 727 529.5 694.5 Q605 662 651.5 608.5 Q698 555 723 488.5 Q748 422 748 353 L747 317 Q747 280 722 213.5 Q697 147 651 94 Q605 41 531 9 Q457 -23 368 -23 Q281 -23 209.5 9.5 Q138 42 94.5 95 Q51 148 28 215 Q5 282 5 352 Q5 422 27.5 489 Q50 556 93 609 Q136 662 206 694.5 Q276 727 361 727 Z " />
<glyph glyph-name="Oacute" unicode="&#xd3;" horiz-adv-x="752" d="M452 991 L542 885 L360 741 L283 813 L452 991 Z M354 607 Q301 607 258.5 585.5 Q216 564 190.5 529 Q165 494 151.5 449.5 Q138 405 138 360 Q138 357 138.5 332 Q139 307 155 260.5 Q171 214 198.5 179 Q226 144 270.5 122.5 Q315 101 370 101 Q427 101 473.5 122.5 Q520 144 549 179.5 Q578 215 594 261 Q610 307 610.5 332 Q611 357 611 358 Q611 405 594 450 Q577 495 547.5 530 Q518 565 469 586 Q420 607 360 607 L355 607 L354 607 Z M361 727 Q454 727 529.5 694.5 Q605 662 651.5 608.5 Q698 555 723 488.5 Q748 422 748 353 L747 317 Q747 280 722 213.5 Q697 147 651 94 Q605 41 531 9 Q457 -23 368 -23 Q281 -23 209.5 9.5 Q138 42 94.5 95 Q51 148 28 215 Q5 282 5 352 Q5 422 27.5 489 Q50 556 93 609 Q136 662 206 694.5 Q276 727 361 727 Z " />
<glyph glyph-name="Ocircumflex" unicode="&#xd4;" horiz-adv-x="752" d="M545 748 L409 748 L366 812 L318 748 L176 747 L369 1007 L545 748 Z M354 607 Q301 607 258.5 585.5 Q216 564 190.5 529 Q165 494 151.5 449.5 Q138 405 138 360 Q138 357 138.5 332 Q139 307 155 260.5 Q171 214 198.5 179 Q226 144 270.5 122.5 Q315 101 370 101 Q427 101 473.5 122.5 Q520 144 549 179.5 Q578 215 594 261 Q610 307 610.5 332 Q611 357 611 358 Q611 405 594 450 Q577 495 547.5 530 Q518 565 469 586 Q420 607 360 607 L355 607 L354 607 Z M361 727 Q454 727 529.5 694.5 Q605 662 651.5 608.5 Q698 555 723 488.5 Q748 422 748 353 L747 317 Q747 280 722 213.5 Q697 147 651 94 Q605 41 531 9 Q457 -23 368 -23 Q281 -23 209.5 9.5 Q138 42 94.5 95 Q51 148 28 215 Q5 282 5 352 Q5 422 27.5 489 Q50 556 93 609 Q136 662 206 694.5 Q276 727 361 727 Z " />
<glyph glyph-name="Otilde" unicode="&#xd5;" horiz-adv-x="752" d="M488 869 Q495 851 495 834 Q495 825 492 815 Q486 786 461 771 Q440 757 415 752 Q407 751 399 751 Q381 751 363 759 Q336 771 323 798 L315 816 L390 854 L399 836 Q401 832 404 831 Q404 831 404 831 Q404 831 404 831 L404 831 Q405 831 405 831 Q408 831 410 834 L410 833 Q410 834 410 835 Q410 834 410 833.5 Q410 833 410 835 L391 853 L488 897 L488 869 Z M234 765 Q227 783 227 800 Q227 809 230 819 Q236 848 261 863 Q282 877 307 882 Q315 883 323 883 Q341 883 359 875 Q386 863 399 836 L407 818 L332 780 L323 798 Q321 802 318 803 Q317 803 317 803 Q314 803 312 800 Q312 800 312 799.5 Q312 799 312 799 Q312 799 312 799 L313 799 L331 781 L234 737 L234 765 Z M354 607 Q301 607 258.5 585.5 Q216 564 190.5 529 Q165 494 151.5 449.5 Q138 405 138 360 Q138 357 138.5 332 Q139 307 155 260.5 Q171 214 198.5 179 Q226 144 270.5 122.5 Q315 101 370 101 Q427 101 473.5 122.5 Q520 144 549 179.5 Q578 215 594 261 Q610 307 610.5 332 Q611 357 611 358 Q611 405 594 450 Q577 495 547.5 530 Q518 565 469 586 Q420 607 360 607 L355 607 L354 607 Z M361 727 Q454 727 529.5 694.5 Q605 662 651.5 608.5 Q698 555 723 488.5 Q748 422 748 353 L747 317 Q747 280 722 213.5 Q697 147 651 94 Q605 41 531 9 Q457 -23 368 -23 Q281 -23 209.5 9.5 Q138 42 94.5 95 Q51 148 28 215 Q5 282 5 352 Q5 422 27.5 489 Q50 556 93 609 Q136 662 206 694.5 Q276 727 361 727 Z " />
<glyph glyph-name="Odieresis" unicode="&#xd6;" horiz-adv-x="812" d="M354 607 Q301 607 258.5 585.5 Q216 564 190.5 529 Q165 494 151.5 449.5 Q138 405 138 360 Q138 357 138.5 332 Q139 307 155 260.5 Q171 214 198.5 179 Q226 144 270.5 122.5 Q315 101 370 101 Q427 101 473.5 122.5 Q520 144 549 179.5 Q578 215 594 261 Q610 307 610.5 332 Q611 357 611 358 Q611 405 594 450 Q577 495 547.5 530 Q518 565 469 586 Q420 607 360 607 L355 607 L354 607 Z M361 727 Q454 727 529.5 694.5 Q605 662 651.5 608.5 Q698 555 723 488.5 Q748 422 748 353 L747 317 Q747 280 722 213.5 Q697 147 651 94 Q605 41 531 9 Q457 -23 368 -23 Q281 -23 209.5 9.5 Q138 42 94.5 95 Q51 148 28 215 Q5 282 5 352 Q5 422 27.5 489 Q50 556 93 609 Q136 662 206 694.5 Q276 727 361 727 Z M166 805 Q166 841 190 862.5 Q214 884 243.5 884 Q273 884 297.5 863.5 Q322 843 322 807 Q322 769 298 747 Q274 725 244 725 Q214 725 190 746.5 Q166 768 166 805 Z M414 800 Q414 836 438 857.5 Q462 879 491.5 879 Q521 879 545.5 858.5 Q570 838 570 802 Q570 764 546 742 Q522 720 492 720 Q462 720 438 741.5 Q414 763 414 800 Z " />
<glyph glyph-name="multiply" unicode="&#xd7;" horiz-adv-x="495" d="M337 360 L447 251 L355 159 L245 268 L147 168 L55 260 L155 361 L50 461 L143 553 L245 451 L341 549 L433 457 L337 360 Z " />
<glyph glyph-name="Ugrave" unicode="&#xd9;" horiz-adv-x="592" d="M167 266 Q167 227 178 196 Q189 165 207 146.5 Q225 128 247.5 118 Q270 108 293.5 108 Q317 108 339 118 Q362 129 381 147 Q399 166 410 197 Q422 230 423 270 L424 317 L425 316 L424 702 L555 702 L559 265 Q559 260 559 259 Q559 194 538 141 Q515 85 477 51 Q440 17 391 -1 Q346 -18 299 -18 Q296 -18 293 -18 Q243 -17 195.5 2 Q148 21 111 55 Q74 89 53 145 Q34 195 34 253 Q34 258 34 264 L32 703 L165 705 L167 266 Z M209 991 L378 813 L301 741 L119 885 L209 991 Z " />
<glyph glyph-name="Uacute" unicode="&#xda;" horiz-adv-x="592" d="M167 266 Q167 227 178 196 Q189 165 207 146.5 Q225 128 247.5 118 Q270 108 293.5 108 Q317 108 339 118 Q362 129 381 147 Q399 166 410 197 Q422 230 423 270 L424 317 L425 316 L424 702 L555 702 L559 265 Q559 260 559 259 Q559 194 538 141 Q515 85 477 51 Q440 17 391 -1 Q346 -18 299 -18 Q296 -18 293 -18 Q243 -17 195.5 2 Q148 21 111 55 Q74 89 53 145 Q34 195 34 253 Q34 258 34 264 L32 703 L165 705 L167 266 Z M396 991 L486 885 L304 741 L227 813 L396 991 Z " />
<glyph glyph-name="Ucircumflex" unicode="&#xdb;" horiz-adv-x="592" d="M167 266 Q167 227 178 196 Q189 165 207 146.5 Q225 128 247.5 118 Q270 108 293.5 108 Q317 108 339 118 Q362 129 381 147 Q399 166 410 197 Q422 230 423 270 L424 317 L425 316 L424 702 L555 702 L559 265 Q559 260 559 259 Q559 194 538 141 Q515 85 477 51 Q440 17 391 -1 Q346 -18 299 -18 Q296 -18 293 -18 Q243 -17 195.5 2 Q148 21 111 55 Q74 89 53 145 Q34 195 34 253 Q34 258 34 264 L32 703 L165 705 L167 266 Z M481 748 L345 748 L302 812 L254 748 L112 747 L305 1007 L481 748 Z " />
<glyph glyph-name="Udieresis" unicode="&#xdc;" horiz-adv-x="592" d="M167 266 Q167 227 178 196 Q189 165 207 146.5 Q225 128 247.5 118 Q270 108 293.5 108 Q317 108 339 118 Q362 129 381 147 Q399 166 410 197 Q422 230 423 270 L424 317 L425 316 L424 702 L555 702 L559 265 Q559 260 559 259 Q559 194 538 141 Q515 85 477 51 Q440 17 391 -1 Q346 -18 299 -18 Q296 -18 293 -18 Q243 -17 195.5 2 Q148 21 111 55 Q74 89 53 145 Q34 195 34 253 Q34 258 34 264 L32 703 L165 705 L167 266 Z M100 805 Q100 841 124 862.5 Q148 884 177.5 884 Q207 884 231.5 863.5 Q256 843 256 807 Q256 769 232 747 Q208 725 178 725 Q148 725 124 746.5 Q100 768 100 805 Z M348 800 Q348 836 372 857.5 Q396 879 425.5 879 Q455 879 479.5 858.5 Q504 838 504 802 Q504 764 480 742 Q456 720 426 720 Q396 720 372 741.5 Q348 763 348 800 Z " />
<glyph glyph-name="germandbls" unicode="&#xdf;" horiz-adv-x="517" d="M262 -20 L73 -20 L73 -19 L24 -20 L24 708 L250 708 L253 706 Q299 706 337 687 Q377 668 401 636 Q424 605 433 565 Q439 541 439 518 Q439 503 436 489 Q430 451 406 418 Q395 404 382 393 Q406 384 426 367 Q463 333 479 285 Q492 248 492 206 Q492 195 491 185 Q488 132 464 86 Q440 39 389 9 Q342 -19 279 -19 Q276 -19 272 -19 L262 -20 Z M208 596 L151 596 L151 424 L169 424 Q182 424 210 425 Q214 426 226 426.5 Q238 427 241 427 Q269 431 288 449 Q306 466 309 489 Q310 498 310 506 Q310 523 306 540 Q300 562 279 578 Q258 594 227 595 L208 596 Z M151 314 L150 115 L284 115 Q315 115 334 133 Q354 152 357 180 Q358 190 358 200 Q358 222 353 243 Q346 271 323 292 Q302 312 272 313 L253 314 L169 314 L151 314 Z " />
<glyph glyph-name="agrave" unicode="&#xe0;" horiz-adv-x="509" d="M203 716 L372 538 L295 466 L113 610 L203 716 Z M34 316 Q54 365 90 395 Q125 425 168 440 Q206 453 245 453 Q252 453 259 452 Q304 450 345 431 L350 429 L350 447 L483 447 L482 -20 L351 -20 L351 -3 Q323 -16 292 -23 Q269 -27 246 -27 Q220 -27 195 -22 Q147 -11 107 16 Q66 43 40 93 Q14 144 13 207 Q12 266 34 316 Z M139 210 Q139 171 157 142.5 Q175 114 202.5 104 Q230 94 260 94 Q259 94 260.5 94 Q262 94 276 94.5 Q290 95 313.5 113.5 Q337 132 346 162 Q348 172 348 197 Q348 204 347.5 229.5 Q347 255 345 262 Q340 288 321 306.5 Q302 325 284.5 329.5 Q267 334 253 334 Q242 334 224 330.5 Q206 327 186 312.5 Q166 298 152.5 271 Q139 244 139 210 Z " />
<glyph glyph-name="aacute" unicode="&#xe1;" horiz-adv-x="509" d="M337 718 L427 612 L245 468 L168 540 L337 718 Z M34 316 Q54 365 90 395 Q125 425 168 440 Q206 453 245 453 Q252 453 259 452 Q304 450 345 431 L350 429 L350 447 L483 447 L482 -20 L351 -20 L351 -3 Q323 -16 292 -23 Q269 -27 246 -27 Q220 -27 195 -22 Q147 -11 107 16 Q66 43 40 93 Q14 144 13 207 Q12 266 34 316 Z M139 210 Q139 171 157 142.5 Q175 114 202.5 104 Q230 94 260 94 Q259 94 260.5 94 Q262 94 276 94.5 Q290 95 313.5 113.5 Q337 132 346 162 Q348 172 348 197 Q348 204 347.5 229.5 Q347 255 345 262 Q340 288 321 306.5 Q302 325 284.5 329.5 Q267 334 253 334 Q242 334 224 330.5 Q206 327 186 312.5 Q166 298 152.5 271 Q139 244 139 210 Z " />
<glyph glyph-name="acircumflex" unicode="&#xe2;" horiz-adv-x="509" d="M430 475 L294 475 L251 539 L203 475 L61 474 L254 734 L430 475 Z M34 316 Q54 365 90 395 Q125 425 168 440 Q206 453 245 453 Q252 453 259 452 Q304 450 345 431 L350 429 L350 447 L483 447 L482 -20 L351 -20 L351 -3 Q323 -16 292 -23 Q269 -27 246 -27 Q220 -27 195 -22 Q147 -11 107 16 Q66 43 40 93 Q14 144 13 207 Q12 266 34 316 Z M139 210 Q139 171 157 142.5 Q175 114 202.5 104 Q230 94 260 94 Q259 94 260.5 94 Q262 94 276 94.5 Q290 95 313.5 113.5 Q337 132 346 162 Q348 172 348 197 Q348 204 347.5 229.5 Q347 255 345 262 Q340 288 321 306.5 Q302 325 284.5 329.5 Q267 334 253 334 Q242 334 224 330.5 Q206 327 186 312.5 Q166 298 152.5 271 Q139 244 139 210 Z " />
<glyph glyph-name="atilde" unicode="&#xe3;" horiz-adv-x="509" d="M373 596 Q380 578 380 561 Q380 552 377 542 Q371 513 346 498 Q325 484 300 479 Q292 478 284 478 Q266 478 248 486 Q221 498 208 525 L200 543 L275 581 L284 563 Q286 559 289 558 Q289 558 289 558 Q289 558 289 558 L289 558 Q290 558 290 558 Q293 558 295 561 L295 560 Q295 561 295 562 Q295 561 295 560.5 Q295 560 295 562 L276 580 L373 624 L373 596 Z M119 492 Q112 510 112 527 Q112 536 115 546 Q121 575 146 590 Q167 604 192 609 Q200 610 208 610 Q226 610 244 602 Q271 590 284 563 L292 545 L217 507 L208 525 Q206 529 203 530 Q202 530 202 530 Q199 530 197 527 Q197 527 197 526.5 Q197 526 197 526 Q197 526 197 526 L198 526 L216 508 L119 464 L119 492 Z M34 316 Q54 365 90 395 Q125 425 168 440 Q206 453 245 453 Q252 453 259 452 Q304 450 345 431 L350 429 L350 447 L483 447 L482 -20 L351 -20 L351 -3 Q323 -16 292 -23 Q269 -27 246 -27 Q220 -27 195 -22 Q147 -11 107 16 Q66 43 40 93 Q14 144 13 207 Q12 266 34 316 Z M139 210 Q139 171 157 142.5 Q175 114 202.5 104 Q230 94 260 94 Q259 94 260.5 94 Q262 94 276 94.5 Q290 95 313.5 113.5 Q337 132 346 162 Q348 172 348 197 Q348 204 347.5 229.5 Q347 255 345 262 Q340 288 321 306.5 Q302 325 284.5 329.5 Q267 334 253 334 Q242 334 224 330.5 Q206 327 186 312.5 Q166 298 152.5 271 Q139 244 139 210 Z " />
<glyph glyph-name="adieresis" unicode="&#xe4;" horiz-adv-x="496" d="M34 316 Q54 365 90 395 Q125 425 168 440 Q206 453 245 453 Q252 453 259 452 Q304 450 345 431 L350 429 L350 447 L483 447 L482 -20 L351 -20 L351 -3 Q323 -16 292 -23 Q269 -27 246 -27 Q220 -27 195 -22 Q147 -11 107 16 Q66 43 40 93 Q14 144 13 207 Q12 266 34 316 Z M139 210 Q139 171 157 142.5 Q175 114 202.5 104 Q230 94 260 94 Q259 94 260.5 94 Q262 94 276 94.5 Q290 95 313.5 113.5 Q337 132 346 162 Q348 172 348 197 Q348 204 347.5 229.5 Q347 255 345 262 Q340 288 321 306.5 Q302 325 284.5 329.5 Q267 334 253 334 Q242 334 224 330.5 Q206 327 186 312.5 Q166 298 152.5 271 Q139 244 139 210 Z M61 573 Q61 609 85 630.5 Q109 652 138.5 652 Q168 652 192.5 631.5 Q217 611 217 575 Q217 537 193 515 Q169 493 139 493 Q109 493 85 514.5 Q61 536 61 573 Z M309 568 Q309 604 333 625.5 Q357 647 386.5 647 Q416 647 440.5 626.5 Q465 606 465 570 Q465 532 441 510 Q417 488 387 488 Q357 488 333 509.5 Q309 531 309 568 Z " />
<glyph glyph-name="aring" unicode="&#xe5;" horiz-adv-x="496" d="M257 588 Q256 588 256 588 Q256 588 254 587 Q252 586 252 582 Q252 578 253 577 Q254 577 254 577 Q254 577 255 577 Q255 576 256 576 Q256 576 257 576 Q258 576 259.5 577 Q261 578 261 583 Q261 586 259 587 Q259 587 258 587 Q258 588 257 588 Z M253 577 Q254 577 254 577 L253 577 Z M166 581 Q166 623 193.5 644.5 Q221 666 251 666 Q254 666 272 664.5 Q290 663 318 640 Q346 617 346 579 Q346 539 318 515 Q290 491 272.5 490.5 Q255 490 253 490 Q221 490 193.5 514 Q166 538 166 581 Z M34 316 Q54 365 90 395 Q125 425 168 440 Q206 453 245 453 Q252 453 259 452 Q304 450 345 431 L350 429 L350 447 L483 447 L482 -20 L351 -20 L351 -3 Q323 -16 292 -23 Q269 -27 246 -27 Q220 -27 195 -22 Q147 -11 107 16 Q66 43 40 93 Q14 144 13 207 Q12 266 34 316 Z M139 210 Q139 171 157 142.5 Q175 114 202.5 104 Q230 94 260 94 Q259 94 260.5 94 Q262 94 276 94.5 Q290 95 313.5 113.5 Q337 132 346 162 Q348 172 348 197 Q348 204 347.5 229.5 Q347 255 345 262 Q340 288 321 306.5 Q302 325 284.5 329.5 Q267 334 253 334 Q242 334 224 330.5 Q206 327 186 312.5 Q166 298 152.5 271 Q139 244 139 210 Z " />
<glyph glyph-name="egrave" unicode="&#xe8;" horiz-adv-x="470" d="M159 718 L328 540 L251 468 L69 612 L159 718 Z M379 2 Q345 -14 300 -19 Q281 -21 258 -21 Q226 -21 203 -17 Q143 -5 98.5 31 Q54 67 34.5 113.5 Q15 160 15 211 Q15 213 15.5 240 Q16 267 36.5 314.5 Q57 362 101.5 399 Q146 436 204 448 Q231 453 264 453 Q295 453 318 449 Q384 436 425 391 Q466 346 474 304.5 Q482 263 482 234.5 Q482 206 477 176 L474 160 L161 159 Q170 142 188.5 128 Q207 114 264 108 Q274 107 277 107 Q282 107 291.5 108 Q301 109 323.5 117 Q346 125 362 140 L363 141 L374 152 L472 93 L472 74 L468 69 Q437 29 379 2 Z M350 272 Q336 336 263 336 Q215 336 191.5 314 Q168 292 160 271 L350 272 Z " />
<glyph glyph-name="eacute" unicode="&#xe9;" horiz-adv-x="470" d="M340 718 L430 612 L248 468 L171 540 L340 718 Z M379 2 Q345 -14 300 -19 Q281 -21 258 -21 Q226 -21 203 -17 Q143 -5 98.5 31 Q54 67 34.5 113.5 Q15 160 15 211 Q15 213 15.5 240 Q16 267 36.5 314.5 Q57 362 101.5 399 Q146 436 204 448 Q231 453 264 453 Q295 453 318 449 Q384 436 425 391 Q466 346 474 304.5 Q482 263 482 234.5 Q482 206 477 176 L474 160 L161 159 Q170 142 188.5 128 Q207 114 264 108 Q274 107 277 107 Q282 107 291.5 108 Q301 109 323.5 117 Q346 125 362 140 L363 141 L374 152 L472 93 L472 74 L468 69 Q437 29 379 2 Z M350 272 Q336 336 263 336 Q215 336 191.5 314 Q168 292 160 271 L350 272 Z " />
<glyph glyph-name="ecircumflex" unicode="&#xea;" horiz-adv-x="500" d="M448 475 L312 475 L269 539 L221 475 L79 474 L272 734 L448 475 Z M379 2 Q345 -14 300 -19 Q281 -21 258 -21 Q226 -21 203 -17 Q143 -5 98.5 31 Q54 67 34.5 113.5 Q15 160 15 211 Q15 213 15.5 240 Q16 267 36.5 314.5 Q57 362 101.5 399 Q146 436 204 448 Q231 453 264 453 Q295 453 318 449 Q384 436 425 391 Q466 346 474 304.5 Q482 263 482 234.5 Q482 206 477 176 L474 160 L161 159 Q170 142 188.5 128 Q207 114 264 108 Q274 107 277 107 Q282 107 291.5 108 Q301 109 323.5 117 Q346 125 362 140 L363 141 L374 152 L472 93 L472 74 L468 69 Q437 29 379 2 Z M350 272 Q336 336 263 336 Q215 336 191.5 314 Q168 292 160 271 L350 272 Z " />
<glyph glyph-name="edieresis" unicode="&#xeb;" horiz-adv-x="500" d="M63 559 Q63 595 87 616.5 Q111 638 140.5 638 Q170 638 194.5 617.5 Q219 597 219 561 Q219 523 195 501 Q171 479 141 479 Q111 479 87 500.5 Q63 522 63 559 Z M311 554 Q311 590 335 611.5 Q359 633 388.5 633 Q418 633 442.5 612.5 Q467 592 467 556 Q467 518 443 496 Q419 474 389 474 Q359 474 335 495.5 Q311 517 311 554 Z M379 2 Q345 -14 300 -19 Q281 -21 258 -21 Q226 -21 203 -17 Q143 -5 98.5 31 Q54 67 34.5 113.5 Q15 160 15 211 Q15 213 15.5 240 Q16 267 36.5 314.5 Q57 362 101.5 399 Q146 436 204 448 Q231 453 264 453 Q295 453 318 449 Q384 436 425 391 Q466 346 474 304.5 Q482 263 482 234.5 Q482 206 477 176 L474 160 L161 159 Q170 142 188.5 128 Q207 114 264 108 Q274 107 277 107 Q282 107 291.5 108 Q301 109 323.5 117 Q346 125 362 140 L363 141 L374 152 L472 93 L472 74 L468 69 Q437 29 379 2 Z M350 272 Q336 336 263 336 Q215 336 191.5 314 Q168 292 160 271 L350 272 Z " />
<glyph glyph-name="igrave" unicode="&#xec;" horiz-adv-x="207" d="M14 718 L183 540 L106 468 L-76 612 L14 718 Z M39 453 L171 453 L171 -22 L41 -22 L39 453 Z " />
<glyph glyph-name="iacute" unicode="&#xed;" horiz-adv-x="207" d="M196 718 L286 612 L104 468 L27 540 L196 718 Z M39 453 L171 453 L171 -22 L41 -22 L39 453 Z " />
<glyph glyph-name="icircumflex" unicode="&#xee;" horiz-adv-x="207" d="M288 475 L152 475 L109 539 L61 475 L-81 474 L112 734 L288 475 Z M39 453 L171 453 L171 -22 L41 -22 L39 453 Z " />
<glyph glyph-name="idieresis" unicode="&#xef;" horiz-adv-x="207" d="M39 559 Q39 595 63 616.5 Q87 638 116.5 638 Q146 638 170.5 617.5 Q195 597 195 561 Q195 523 171 501 Q147 479 117 479 Q87 479 63 500.5 Q39 522 39 559 Z M287 554 Q287 590 311 611.5 Q335 633 364.5 633 Q394 633 418.5 612.5 Q443 592 443 556 Q443 518 419 496 Q395 474 365 474 Q335 474 311 495.5 Q287 517 287 554 Z M175 453 L307 453 L307 -22 L177 -22 L175 453 Z " />
<glyph glyph-name="ograve" unicode="&#xf2;" horiz-adv-x="499" d="M159 718 L328 540 L251 468 L69 612 L159 718 Z M248 342 Q211 342 184 324 Q157 306 144.5 280 Q132 254 131.5 238 Q131 222 131 221 Q131 190 143 164.5 Q155 139 181.5 121.5 Q208 104 245 104 Q302 104 335 140 Q357 165 361.5 189.5 Q366 214 366 227 Q366 248 358 273 Q350 298 320.5 320 Q291 342 248 342 Z M249 454 Q327 454 383.5 419 Q440 384 465.5 332 Q491 280 491 220 Q491 219 490.5 187.5 Q490 156 463.5 103 Q437 50 379.5 15 Q322 -20 245 -20 Q167 -20 109.5 15 Q52 50 27 102 Q2 154 2 213 Q2 215 2.5 247 Q3 279 30 331.5 Q57 384 114.5 419 Q172 454 249 454 Z " />
<glyph glyph-name="oacute" unicode="&#xf3;" horiz-adv-x="499" d="M340 718 L430 612 L248 468 L171 540 L340 718 Z M248 342 Q211 342 184 324 Q157 306 144.5 280 Q132 254 131.5 238 Q131 222 131 221 Q131 190 143 164.5 Q155 139 181.5 121.5 Q208 104 245 104 Q302 104 335 140 Q357 165 361.5 189.5 Q366 214 366 227 Q366 248 358 273 Q350 298 320.5 320 Q291 342 248 342 Z M249 454 Q327 454 383.5 419 Q440 384 465.5 332 Q491 280 491 220 Q491 219 490.5 187.5 Q490 156 463.5 103 Q437 50 379.5 15 Q322 -20 245 -20 Q167 -20 109.5 15 Q52 50 27 102 Q2 154 2 213 Q2 215 2.5 247 Q3 279 30 331.5 Q57 384 114.5 419 Q172 454 249 454 Z " />
<glyph glyph-name="ocircumflex" unicode="&#xf4;" horiz-adv-x="499" d="M433 475 L297 475 L254 539 L206 475 L64 474 L257 734 L433 475 Z M248 342 Q211 342 184 324 Q157 306 144.5 280 Q132 254 131.5 238 Q131 222 131 221 Q131 190 143 164.5 Q155 139 181.5 121.5 Q208 104 245 104 Q302 104 335 140 Q357 165 361.5 189.5 Q366 214 366 227 Q366 248 358 273 Q350 298 320.5 320 Q291 342 248 342 Z M249 454 Q327 454 383.5 419 Q440 384 465.5 332 Q491 280 491 220 Q491 219 490.5 187.5 Q490 156 463.5 103 Q437 50 379.5 15 Q322 -20 245 -20 Q167 -20 109.5 15 Q52 50 27 102 Q2 154 2 213 Q2 215 2.5 247 Q3 279 30 331.5 Q57 384 114.5 419 Q172 454 249 454 Z " />
<glyph glyph-name="otilde" unicode="&#xf5;" horiz-adv-x="499" d="M373 596 Q380 578 380 561 Q380 552 377 542 Q371 513 346 498 Q325 484 300 479 Q292 478 284 478 Q266 478 248 486 Q221 498 208 525 L200 543 L275 581 L284 563 Q286 559 289 558 Q289 558 289 558 Q289 558 289 558 L289 558 Q290 558 290 558 Q293 558 295 561 L295 560 Q295 561 295 562 Q295 561 295 560.5 Q295 560 295 562 L276 580 L373 624 L373 596 Z M119 492 Q112 510 112 527 Q112 536 115 546 Q121 575 146 590 Q167 604 192 609 Q200 610 208 610 Q226 610 244 602 Q271 590 284 563 L292 545 L217 507 L208 525 Q206 529 203 530 Q202 530 202 530 Q199 530 197 527 Q197 527 197 526.5 Q197 526 197 526 Q197 526 197 526 L198 526 L216 508 L119 464 L119 492 Z M248 342 Q211 342 184 324 Q157 306 144.5 280 Q132 254 131.5 238 Q131 222 131 221 Q131 190 143 164.5 Q155 139 181.5 121.5 Q208 104 245 104 Q302 104 335 140 Q357 165 361.5 189.5 Q366 214 366 227 Q366 248 358 273 Q350 298 320.5 320 Q291 342 248 342 Z M249 454 Q327 454 383.5 419 Q440 384 465.5 332 Q491 280 491 220 Q491 219 490.5 187.5 Q490 156 463.5 103 Q437 50 379.5 15 Q322 -20 245 -20 Q167 -20 109.5 15 Q52 50 27 102 Q2 154 2 213 Q2 215 2.5 247 Q3 279 30 331.5 Q57 384 114.5 419 Q172 454 249 454 Z " />
<glyph glyph-name="odieresis" unicode="&#xf6;" horiz-adv-x="567" d="M248 342 Q211 342 184 324 Q157 306 144.5 280 Q132 254 131.5 238 Q131 222 131 221 Q131 190 143 164.5 Q155 139 181.5 121.5 Q208 104 245 104 Q302 104 335 140 Q357 165 361.5 189.5 Q366 214 366 227 Q366 248 358 273 Q350 298 320.5 320 Q291 342 248 342 Z M249 454 Q327 454 383.5 419 Q440 384 465.5 332 Q491 280 491 220 Q491 219 490.5 187.5 Q490 156 463.5 103 Q437 50 379.5 15 Q322 -20 245 -20 Q167 -20 109.5 15 Q52 50 27 102 Q2 154 2 213 Q2 215 2.5 247 Q3 279 30 331.5 Q57 384 114.5 419 Q172 454 249 454 Z M54 574 Q54 610 78 631.5 Q102 653 131.5 653 Q161 653 185.5 632.5 Q210 612 210 576 Q210 538 186 516 Q162 494 132 494 Q102 494 78 515.5 Q54 537 54 574 Z M302 569 Q302 605 326 626.5 Q350 648 379.5 648 Q409 648 433.5 627.5 Q458 607 458 571 Q458 533 434 511 Q410 489 380 489 Q350 489 326 510.5 Q302 532 302 569 Z " />
<glyph glyph-name="ugrave" unicode="&#xf9;" horiz-adv-x="472" d="M22 308 Q22 347 22 356 L22 449 L156 449 L156 190 Q156 156 167 136 Q177 118 190 113 Q199 110 208 110 Q215 110 223 112 Q242 116 259 129.5 Q276 143 288 166 Q300 189 300 216 L299 449 L430 449 L431 -20 L299 -20 L297 18 Q284 3 273 -2 Q237 -20 198 -20 Q100 -20 59 40 Q21 97 21 199 Q21 269 22 308 Z M136 718 L305 540 L228 468 L46 612 L136 718 Z " />
<glyph glyph-name="uacute" unicode="&#xfa;" horiz-adv-x="472" d="M22 308 Q22 347 22 356 L22 449 L156 449 L156 190 Q156 156 167 136 Q177 118 190 113 Q199 110 208 110 Q215 110 223 112 Q242 116 259 129.5 Q276 143 288 166 Q300 189 300 216 L299 449 L430 449 L431 -20 L299 -20 L297 18 Q284 3 273 -2 Q237 -20 198 -20 Q100 -20 59 40 Q21 97 21 199 Q21 269 22 308 Z M321 718 L411 612 L229 468 L152 540 L321 718 Z " />
<glyph glyph-name="ucircumflex" unicode="&#xfb;" horiz-adv-x="472" d="M22 308 Q22 347 22 356 L22 449 L156 449 L156 190 Q156 156 167 136 Q177 118 190 113 Q199 110 208 110 Q215 110 223 112 Q242 116 259 129.5 Q276 143 288 166 Q300 189 300 216 L299 449 L430 449 L431 -20 L299 -20 L297 18 Q284 3 273 -2 Q237 -20 198 -20 Q100 -20 59 40 Q21 97 21 199 Q21 269 22 308 Z M412 475 L276 475 L233 539 L185 475 L43 474 L236 734 L412 475 Z " />
<glyph glyph-name="udieresis" unicode="&#xfc;" horiz-adv-x="472" d="M23 562 Q23 598 47 619.5 Q71 641 100.5 641 Q130 641 154.5 620.5 Q179 600 179 564 Q179 526 155 504 Q131 482 101 482 Q71 482 47 503.5 Q23 525 23 562 Z M271 557 Q271 593 295 614.5 Q319 636 348.5 636 Q378 636 402.5 615.5 Q427 595 427 559 Q427 521 403 499 Q379 477 349 477 Q319 477 295 498.5 Q271 520 271 557 Z M22 308 Q22 347 22 356 L22 449 L156 449 L156 190 Q156 156 167 136 Q177 118 190 113 Q199 110 208 110 Q215 110 223 112 Q242 116 259 129.5 Q276 143 288 166 Q300 189 300 216 L299 449 L430 449 L431 -20 L299 -20 L297 18 Q284 3 273 -2 Q237 -20 198 -20 Q100 -20 59 40 Q21 97 21 199 Q21 269 22 308 Z " />
<glyph glyph-name="yacute" unicode="&#xfd;" horiz-adv-x="462" d="" />
<glyph glyph-name="Ccircumflex" unicode="&#x108;" horiz-adv-x="694" d="M600 748 L464 748 L421 812 L373 748 L231 747 L424 1007 L600 748 Z M587 689 Q611 678 622 670.5 Q633 663 655 644 L672 629 L568 537 L555 554 Q545 567 502.5 581 Q460 595 428 596 Q423 596 419 596 Q349 596 280 553 Q211 510 177 439 Q152 385 152 333 Q152 292 177 226.5 Q202 161 298 116 Q346 94 371.5 93.5 Q397 93 399.5 93 Q402 93 403 93 Q452 93 497 109.5 Q542 126 586 158 L601 169 L686 74 L671 60 Q625 18 560.5 -6 Q496 -30 456 -32.5 Q416 -35 398 -35 Q358 -35 312.5 -28 Q267 -21 231 -3 Q85 73 50.5 169 Q16 265 16 323 Q16 406 57 493 Q109 604 207 663 Q305 722 412 722 Q419 722 431 722 Q524 719 587 689 Z " />
<glyph glyph-name="ccircumflex" unicode="&#x109;" horiz-adv-x="421" d="M441 475 L305 475 L262 539 L214 475 L72 474 L265 734 L441 475 Z M383 422 L402 411 L403 409 L405 407 L420 396 L344 277 L327 302 Q326 303 325 303 Q319 308 306 313 Q285 322 273 323 Q267 324 260 324 Q231 324 205 312 Q174 298 158 267 Q140 235 140 208 Q140 197 143 186 Q152 148 193 124 Q216 111 244 110 Q254 110 255 110 Q288 110 317 125 Q331 132 332 133 L350 149 L415 36 L403 25 Q353 -20 253 -20 Q253 -20 251.5 -20 Q250 -20 249 -20 Q170 -20 126 7 Q37 60 12 148 Q4 177 4 207 Q4 267 38 327 Q75 393 143 426 Q198 451 257 451 Q272 451 285 450 Q343 444 383 422 Z " />
<glyph glyph-name="Cdotaccent" unicode="&#x10a;" horiz-adv-x="694" d="M338 827 Q338 863 362 884 Q386 905 401 905.5 Q416 906 417 906 Q446 906 470 885.5 Q494 865 494 829 Q494 791 470 769 Q446 747 416 747 Q386 747 362 768.5 Q338 790 338 827 Z M587 689 Q611 678 622 670.5 Q633 663 655 644 L672 629 L568 537 L555 554 Q545 567 502.5 581 Q460 595 428 596 Q423 596 419 596 Q349 596 280 553 Q211 510 177 439 Q152 385 152 333 Q152 292 177 226.5 Q202 161 298 116 Q346 94 371.5 93.5 Q397 93 399.5 93 Q402 93 403 93 Q452 93 497 109.5 Q542 126 586 158 L601 169 L686 74 L671 60 Q625 18 560.5 -6 Q496 -30 456 -32.5 Q416 -35 398 -35 Q358 -35 312.5 -28 Q267 -21 231 -3 Q85 73 50.5 169 Q16 265 16 323 Q16 406 57 493 Q109 604 207 663 Q305 722 412 722 Q419 722 431 722 Q524 719 587 689 Z " />
<glyph glyph-name="cdotaccent" unicode="&#x10b;" horiz-adv-x="421" d="M179 554 Q179 590 203 611 Q227 632 242 632.5 Q257 633 258 633 Q287 633 311 612.5 Q335 592 335 556 Q335 518 311 496 Q287 474 257 474 Q227 474 203 495.5 Q179 517 179 554 Z M383 422 L402 411 L403 409 L405 407 L420 396 L344 277 L327 302 Q326 303 325 303 Q319 308 306 313 Q285 322 273 323 Q267 324 260 324 Q231 324 205 312 Q174 298 158 267 Q140 235 140 208 Q140 197 143 186 Q152 148 193 124 Q216 111 244 110 Q254 110 255 110 Q288 110 317 125 Q331 132 332 133 L350 149 L415 36 L403 25 Q353 -20 253 -20 Q253 -20 251.5 -20 Q250 -20 249 -20 Q170 -20 126 7 Q37 60 12 148 Q4 177 4 207 Q4 267 38 327 Q75 393 143 426 Q198 451 257 451 Q272 451 285 450 Q343 444 383 422 Z " />
<glyph glyph-name="Edotaccent" unicode="&#x116;" horiz-adv-x="483" d="M159 827 Q159 863 183 884 Q207 905 222 905.5 Q237 906 238 906 Q267 906 291 885.5 Q315 865 315 829 Q315 791 291 769 Q267 747 237 747 Q207 747 183 768.5 Q159 790 159 827 Z M34 713 L440 713 L440 588 L166 588 L166 432 L362 432 L362 309 L166 309 L166 102 L449 102 L449 -20 L34 -20 L34 713 Z " />
<glyph glyph-name="edotaccent" unicode="&#x117;" horiz-adv-x="500" d="M187 554 Q187 590 211 611 Q235 632 250 632.5 Q265 633 266 633 Q295 633 319 612.5 Q343 592 343 556 Q343 518 319 496 Q295 474 265 474 Q235 474 211 495.5 Q187 517 187 554 Z M379 2 Q345 -14 300 -19 Q281 -21 258 -21 Q226 -21 203 -17 Q143 -5 98.5 31 Q54 67 34.5 113.5 Q15 160 15 211 Q15 213 15.5 240 Q16 267 36.5 314.5 Q57 362 101.5 399 Q146 436 204 448 Q231 453 264 453 Q295 453 318 449 Q384 436 425 391 Q466 346 474 304.5 Q482 263 482 234.5 Q482 206 477 176 L474 160 L161 159 Q170 142 188.5 128 Q207 114 264 108 Q274 107 277 107 Q282 107 291.5 108 Q301 109 323.5 117 Q346 125 362 140 L363 141 L374 152 L472 93 L472 74 L468 69 Q437 29 379 2 Z M350 272 Q336 336 263 336 Q215 336 191.5 314 Q168 292 160 271 L350 272 Z " />
<glyph glyph-name="Gcircumflex" unicode="&#x11c;" horiz-adv-x="704" d="M593 761 L457 761 L414 825 L366 761 L224 760 L417 1020 L593 761 Z M692 116 Q692 89 666 75 Q619 32 555.5 8 Q492 -16 449.5 -19 Q407 -22 384 -22 Q348 -22 304 -16 Q260 -10 225 8 Q130 58 75.5 135.5 Q21 213 16 263.5 Q11 314 11 333 Q11 395 34 467.5 Q57 540 111.5 603.5 Q166 667 245.5 703.5 Q325 740 410 740 Q418 740 425 740 Q517 737 582 706 Q606 695 616.5 687.5 Q627 680 649 661 L666 646 L561 552 L548 571 Q539 584 496 597.5 Q453 611 422 613 Q419 613 413 613 Q343 613 273.5 569.5 Q204 526 171 455 Q146 400 146 347 Q146 306 171 239.5 Q196 173 293 127 Q337 106 361.5 105.5 Q386 105 388.5 105 Q391 105 392 105 Q439 105 480.5 119.5 Q522 134 561 160 L564 270 L427 270 L428 384 L693 385 L692 116 Z " />
<glyph glyph-name="gcircumflex" unicode="&#x11d;" horiz-adv-x="476" d="M418 475 L282 475 L239 539 L191 475 L49 474 L242 734 L418 475 Z M138 224 Q138 191 155 165.5 Q172 140 197.5 129 Q223 118 249 118 Q275 118 295 135 Q315 152 323 181 Q323 192 323.5 210 Q324 228 324 237 Q324 243 324 249 Q324 251 324 251 Q324 279 311 296.5 Q298 314 280.5 320.5 Q263 327 244 327 Q239 327 223.5 325.5 Q208 324 187 313 Q166 302 152 278.5 Q138 255 138 224 Z M368 -180 Q316 -217 242 -218 Q239 -219 235 -219 Q169 -219 115 -190 L78 -170 Q69 -165 58 -155 L46 -145 L98 -42 L174 -81 Q194 -91 219 -93 Q224 -93 230 -93 Q249 -93 268 -88 Q290 -81 309 -64 Q325 -49 332 -27 L331 0 L331 18 Q319 11 304 6 Q271 -5 236 -5 Q233 -5 229 -5 Q191 -4 153 11 Q115 27 84 52 Q53 79 33 121 Q14 165 13 214 Q12 266 31 314 Q50 361 83 390 Q115 419 155 435 Q193 451 234 451 Q237 451 240 451 Q284 450 325 431 L329 429 L328 447 L463 447 L461 6 Q460 -114 368 -180 Z " />
<glyph glyph-name="Gdotaccent" unicode="&#x120;" horiz-adv-x="704" d="M332 840 Q332 876 356 897 Q380 918 395 918.5 Q410 919 411 919 Q440 919 464 898.5 Q488 878 488 842 Q488 804 464 782 Q440 760 410 760 Q380 760 356 781.5 Q332 803 332 840 Z M692 116 Q692 89 666 75 Q619 32 555.5 8 Q492 -16 449.5 -19 Q407 -22 384 -22 Q348 -22 304 -16 Q260 -10 225 8 Q130 58 75.5 135.5 Q21 213 16 263.5 Q11 314 11 333 Q11 395 34 467.5 Q57 540 111.5 603.5 Q166 667 245.5 703.5 Q325 740 410 740 Q418 740 425 740 Q517 737 582 706 Q606 695 616.5 687.5 Q627 680 649 661 L666 646 L561 552 L548 571 Q539 584 496 597.5 Q453 611 422 613 Q419 613 413 613 Q343 613 273.5 569.5 Q204 526 171 455 Q146 400 146 347 Q146 306 171 239.5 Q196 173 293 127 Q337 106 361.5 105.5 Q386 105 388.5 105 Q391 105 392 105 Q439 105 480.5 119.5 Q522 134 561 160 L564 270 L427 270 L428 384 L693 385 L692 116 Z " />
<glyph glyph-name="gdotaccent" unicode="&#x121;" horiz-adv-x="476" d="M157 554 Q157 590 181 611 Q205 632 220 632.5 Q235 633 236 633 Q265 633 289 612.5 Q313 592 313 556 Q313 518 289 496 Q265 474 235 474 Q205 474 181 495.5 Q157 517 157 554 Z M138 224 Q138 191 155 165.5 Q172 140 197.5 129 Q223 118 249 118 Q275 118 295 135 Q315 152 323 181 Q323 192 323.5 210 Q324 228 324 237 Q324 243 324 249 Q324 251 324 251 Q324 279 311 296.5 Q298 314 280.5 320.5 Q263 327 244 327 Q239 327 223.5 325.5 Q208 324 187 313 Q166 302 152 278.5 Q138 255 138 224 Z M368 -180 Q316 -217 242 -218 Q239 -219 235 -219 Q169 -219 115 -190 L78 -170 Q69 -165 58 -155 L46 -145 L98 -42 L174 -81 Q194 -91 219 -93 Q224 -93 230 -93 Q249 -93 268 -88 Q290 -81 309 -64 Q325 -49 332 -27 L331 0 L331 18 Q319 11 304 6 Q271 -5 236 -5 Q233 -5 229 -5 Q191 -4 153 11 Q115 27 84 52 Q53 79 33 121 Q14 165 13 214 Q12 266 31 314 Q50 361 83 390 Q115 419 155 435 Q193 451 234 451 Q237 451 240 451 Q284 450 325 431 L329 429 L328 447 L463 447 L461 6 Q460 -114 368 -180 Z " />
<glyph glyph-name="Hcircumflex" unicode="&#x124;" horiz-adv-x="630" d="" />
<glyph glyph-name="Idot" unicode="&#x130;" horiz-adv-x="207" d="M25 827 Q25 863 49 884 Q73 905 88 905.5 Q103 906 104 906 Q133 906 157 885.5 Q181 865 181 829 Q181 791 157 769 Q133 747 103 747 Q73 747 49 768.5 Q25 790 25 827 Z M38 716 L168 716 L169 -19 L39 -19 L38 716 Z " />
<glyph glyph-name="dotlessi" unicode="&#x131;" horiz-adv-x="207" d="M39 453 L171 453 L171 -22 L41 -22 L39 453 Z " />
<glyph glyph-name="Jcircumflex" unicode="&#x134;" horiz-adv-x="396" d="M502 748 L366 748 L323 812 L275 748 L133 747 L326 1007 L502 748 Z M77 88 Q108 66 124.5 65 Q141 64 144 64 Q147 64 148 64 Q177 64 202 79.5 Q227 95 244.5 133 Q262 171 262 222 Q262 225 262 228 L255 720 L386 720 L395 222 Q395 217 395 211 Q395 144 371 86.5 Q347 29 305 -4.5 Q263 -38 222 -50 Q181 -62 148 -62 Q129 -62 93.5 -56.5 Q58 -51 14 -24 L-2 -14 L58 102 L77 88 Z " />
<glyph glyph-name="jcircumflex" unicode="&#x135;" horiz-adv-x="207" d="M40 450 L172 450 L171 -122 L40 -122 L40 450 Z M292 475 L156 475 L113 539 L65 475 L-77 474 L116 734 L292 475 Z " />
<glyph glyph-name="Nacute" unicode="&#x143;" horiz-adv-x="646" d="" />
<glyph glyph-name="sacute" unicode="&#x15b;" horiz-adv-x="394" d="" />
<glyph glyph-name="ycircumflex" unicode="&#x177;" horiz-adv-x="462" d="" />
<glyph glyph-name="Zdotaccent" unicode="&#x17b;" horiz-adv-x="795" d="" />
<glyph glyph-name="uni01F4" unicode="&#x1f4;" horiz-adv-x="704" d="M500 1004 L590 898 L408 754 L331 826 L500 1004 Z M692 116 Q692 89 666 75 Q619 32 555.5 8 Q492 -16 449.5 -19 Q407 -22 384 -22 Q348 -22 304 -16 Q260 -10 225 8 Q130 58 75.5 135.5 Q21 213 16 263.5 Q11 314 11 333 Q11 395 34 467.5 Q57 540 111.5 603.5 Q166 667 245.5 703.5 Q325 740 410 740 Q418 740 425 740 Q517 737 582 706 Q606 695 616.5 687.5 Q627 680 649 661 L666 646 L561 552 L548 571 Q539 584 496 597.5 Q453 611 422 613 Q419 613 413 613 Q343 613 273.5 569.5 Q204 526 171 455 Q146 400 146 347 Q146 306 171 239.5 Q196 173 293 127 Q337 106 361.5 105.5 Q386 105 388.5 105 Q391 105 392 105 Q439 105 480.5 119.5 Q522 134 561 160 L564 270 L427 270 L428 384 L693 385 L692 116 Z " />
<glyph glyph-name="uni01F5" unicode="&#x1f5;" horiz-adv-x="476" d="M325 718 L415 612 L233 468 L156 540 L325 718 Z M138 224 Q138 191 155 165.5 Q172 140 197.5 129 Q223 118 249 118 Q275 118 295 135 Q315 152 323 181 Q323 192 323.5 210 Q324 228 324 237 Q324 243 324 249 Q324 251 324 251 Q324 279 311 296.5 Q298 314 280.5 320.5 Q263 327 244 327 Q239 327 223.5 325.5 Q208 324 187 313 Q166 302 152 278.5 Q138 255 138 224 Z M368 -180 Q316 -217 242 -218 Q239 -219 235 -219 Q169 -219 115 -190 L78 -170 Q69 -165 58 -155 L46 -145 L98 -42 L174 -81 Q194 -91 219 -93 Q224 -93 230 -93 Q249 -93 268 -88 Q290 -81 309 -64 Q325 -49 332 -27 L331 0 L331 18 Q319 11 304 6 Q271 -5 236 -5 Q233 -5 229 -5 Q191 -4 153 11 Q115 27 84 52 Q53 79 33 121 Q14 165 13 214 Q12 266 31 314 Q50 361 83 390 Q115 419 155 435 Q193 451 234 451 Q237 451 240 451 Q284 450 325 431 L329 429 L328 447 L463 447 L461 6 Q460 -114 368 -180 Z " />
<glyph glyph-name="uni030A" unicode="&#x30a;" horiz-adv-x="154" d="M76 797 Q76 797 76 797 Q75 797 73.5 796 Q72 795 72 791 Q72 787 73 786 Q74 786 74 786 Q74 786 73 786 Q74 786 74 786 Q75 785 76 785 Q77 786 79 786 Q81 788 81 792 Q81 795 79 796 Q79 796 78 796.5 Q77 797 76 797 Z M-14 790 Q-14 833 13.5 854 Q41 875 71 875 Q74 875 92 873.5 Q110 872 138 849 Q166 826 166 788 Q166 748 137.5 724 Q109 700 92.5 699.5 Q76 699 75 699 Q42 699 14 723 Q-14 747 -14 790 Z " />
<glyph glyph-name="increment" unicode="&#x394;" horiz-adv-x="674" d="M389 647 L685 -19 L559 -19 L473 -20 L198 -20 L117 -19 L-8 -19 L282 664 L329 782 L389 647 Z M495 102 L332 463 L187 102 L495 102 Z " />
<glyph glyph-name="beta" unicode="&#x3b2;" horiz-adv-x="517" d="M150 -140 L73 -140 L73 -139 L24 -140 L24 708 L250 708 L253 706 Q299 706 337 687 Q377 668 401 636 Q424 605 433 565 Q439 541 439 518 Q439 503 436 489 Q430 451 406 418 Q395 404 382 393 Q406 384 426 367 Q463 333 479 285 Q492 248 492 206 Q492 195 491 185 Q488 132 464 86 Q440 39 389 9 Q342 -19 279 -19 Q276 -19 272 -19 L262 -20 L150 -20 L150 -140 Z M208 596 L151 596 L151 424 L169 424 Q182 424 210 425 Q214 426 226 426.5 Q238 427 241 427 Q269 431 288 449 Q306 466 309 489 Q310 498 310 506 Q310 523 306 540 Q300 562 279 578 Q258 594 227 595 L208 596 Z M151 314 L150 115 L284 115 Q315 115 334 133 Q354 152 357 180 Q358 190 358 200 Q358 222 353 243 Q346 271 323 292 Q302 312 272 313 L253 314 L169 314 L151 314 Z " />
<glyph glyph-name="quoteleft" unicode="&#x2018;" horiz-adv-x="187" d="M148 613 Q147 595 139 582 Q136 578 133 573 Q116 554 94 548 Q87 546 80 546 Q61 546 46 559 Q39 565 36 569 Q23 586 20 614 Q20 618 20 626 Q20 671 45 710 Q73 754 107 765 L163 784 L129 735 Q122 724 121 693 L121 689 Q121 670 124 663 Q125 661 126 659 Q146 644 147 622 Q147 621 147.5 618 Q148 615 148 613 Z " />
<glyph glyph-name="quoteright" unicode="&#x2019;" horiz-adv-x="187" d="M35 692 Q35 712 48 730.5 Q61 749 76.5 754.5 Q92 760 100 759 Q113 759 124 754 Q129 751 134 747 Q139 743 143 739 Q144 738 146 736 Q158 720 162 696 Q163 687 163 674 Q163 635 141 594 Q119 553 88 540 L33 516 L63 568 Q67 576 67 598 Q67 605 66.5 617.5 Q66 630 62 638 Q61 642 60 642 Q39 656 36 679 Q35 689 35 692 Z " />
<glyph glyph-name="quotedblleft" unicode="&#x201c;" horiz-adv-x="292" d="M270 617 Q270 595 254.5 575.5 Q239 556 224 552.5 Q209 549 203 549 Q188 550 177 556 Q171 559 166 563.5 Q161 568 158 572 Q157 573 155 576 Q144 592 142 616 Q142 619 142 625 Q142 672 168.5 714 Q195 756 229 767 L288 787 L251 736 Q244 726 243.5 710 Q243 694 243 693 Q244 673 247 665 Q248 663 248 662 Q268 646 270 624 Q270 619 270 617 Z M148 613 Q147 595 139 582 Q136 578 133 573 Q116 554 94 548 Q87 546 80 546 Q61 546 46 559 Q39 565 36 569 Q23 586 20 614 Q20 618 20 626 Q20 671 45 710 Q73 754 107 765 L163 784 L129 735 Q122 724 121 693 L121 689 Q121 670 124 663 Q125 661 126 659 Q146 644 147 622 Q147 621 147.5 618 Q148 615 148 613 Z " />
<glyph glyph-name="quotedblright" unicode="&#x201d;" horiz-adv-x="358" d="M170 694 Q170 704 172 709 Q172 711 173 713 Q176 722 186 737 Q196 752 211.5 757 Q227 762 235 762 Q247 761 258 756 Q264 753 269 749.5 Q274 746 277 742 Q292 726 297 699 Q298 690 298 677 Q298 637 276 597 Q254 557 224 542 L166 515 L198 570 Q202 578 202 600 Q202 607 201.5 620 Q201 633 197 642 Q196 644 194 645 Q174 660 171 682 Q170 692 170 694 Z M35 692 Q35 712 48 730.5 Q61 749 76.5 754.5 Q92 760 100 759 Q113 759 124 754 Q129 751 134 747 Q139 743 143 739 Q144 738 146 736 Q158 720 162 696 Q163 687 163 674 Q163 635 141 594 Q119 553 88 540 L33 516 L63 568 Q67 576 67 598 Q67 605 66.5 617.5 Q66 630 62 638 Q61 642 60 642 Q39 656 36 679 Q35 689 35 692 Z " />
<glyph glyph-name="Euro" unicode="&#x20ac;" horiz-adv-x="715" d="M599 313 L554 191 L-3 191 L42 313 L599 313 Z M652 475 L604 355 L4 355 L43 475 L652 475 Z M704 649 L656 506 L634 548 Q627 562 587 578 Q553 592 494 594 Q490 594 485 594 Q415 594 346 551 Q277 508 243 437 Q218 383 218 331 Q218 290 243 224.5 Q268 159 364 114 Q412 92 437.5 91.5 Q463 91 465.5 91 Q468 91 469 91 Q518 91 563 107.5 Q608 124 652 156 L684 180 L684 32 L677 26 Q629 -17 595 -24.5 Q561 -32 521.5 -34.5 Q482 -37 464 -37 Q424 -37 378.5 -30 Q333 -23 297 -5 Q151 71 116.5 167 Q82 263 82 321 Q82 404 123 491 Q175 602 273 661 Q371 720 479 720 Q487 720 497 720 Q558 718 631 688 Q671 672 692 657 L704 649 Z " />
<glyph glyph-name="uniFB00" unicode="&#xfb00;" horiz-adv-x="631" d="" />
</font>
</svg>
